<svg xmlns="http://www.w3.org/2000/svg" xmlns:xlink="http://www.w3.org/1999/xlink"><defs><clipPath id="a"><path d="M0 0h14v14H0z" data-name="&#x41f;&#x440;&#x44f;&#x43c;&#x43e;&#x443;&#x433;&#x43e;&#x43b;&#x44c;&#x43d;&#x438;&#x43a; 21"/></clipPath><clipPath id="a"><path d="M0 0h31.647v35H0z" data-name="&#x41f;&#x440;&#x44f;&#x43c;&#x43e;&#x443;&#x433;&#x43e;&#x43b;&#x44c;&#x43d;&#x438;&#x43a; 77"/></clipPath><clipPath id="a"><path d="M0 0h18v18H0z" data-name="&#x41f;&#x440;&#x44f;&#x43c;&#x43e;&#x443;&#x433;&#x43e;&#x43b;&#x44c;&#x43d;&#x438;&#x43a; 26"/></clipPath><clipPath id="a"><path d="M0 0h31.647v35H0z" data-name="&#x41f;&#x440;&#x44f;&#x43c;&#x43e;&#x443;&#x433;&#x43e;&#x43b;&#x44c;&#x43d;&#x438;&#x43a; 78"/></clipPath><clipPath id="a"><path d="M0 0h31.647v35H0z" data-name="&#x41f;&#x440;&#x44f;&#x43c;&#x43e;&#x443;&#x433;&#x43e;&#x43b;&#x44c;&#x43d;&#x438;&#x43a; 101"/></clipPath></defs><symbol id="404" viewBox="0 0 1060 391.591"><g data-name="404"><g data-name="4"><path d="M880.266-.001l-157.555 247.8v82.6h190.442v61.186h101.722v-61.186H1060v-82.6h-45.125V-.001z" data-name="&#x41a;&#x43e;&#x43d;&#x442;&#x443;&#x440; 1563"/><path d="M1014.876 116.196c-6.047 25.352-14.411 43.523-24.9 53.934a4.635 4.635 0 00-.191-.737c-1.9-5.339-9.475-1.832-13.059-.289-7.092 3.02-11.212 3.426-14.613-.634a23.408 23.408 0 01-3.237-5.623 22.27 22.27 0 003.06-2.457c-1.751-5.073-6.189-15.813-8.2-20.742l-.048-.122-.041-.262c-1.068-9.549-11.783-19.617-19.456-27.5q-1.934-1.982-3.791-4.04a.539.539 0 01-.553.055.552.552 0 01-.276-.311.537.537 0 01.027-.411.609.609 0 01.085-.128q-1.634-1.838-3.228-3.713a.446.446 0 01-.169.1l-.018.006a.531.531 0 01-.67-.338.491.491 0 01.021-.411.663.663 0 01.136-.181c-4.268-5.076-8.316-10.34-12.375-15.582a.521.521 0 01-.41-.081.547.547 0 01-.181-.693l-.929-1.2c-8.7 1.633-17.455 3.292-26.036 5.356-12.692 3.056-17.854 5.592-19.006 9.015-1.026 3.046-.776 4.973 2.2 11.867a62.526 62.526 0 014.273 12.485 32.134 32.134 0 01.337 7.5 23.476 23.476 0 01-.729 3.3l.115.037a1.264 1.264 0 00-.176.147c-.045.066-.069.139-.112.211-.506-.122-.812-.2-1.237.269a8.936 8.936 0 00-1.272 3.059c-.865 2.8-.9 3.216-.36 3.467h.025a1.732 1.732 0 01.354-.054c-.035.13-.091.247-.116.375a48.32 48.32 0 00-.565 1.961c-.493-.074-.868-.181-1.252.266a12 12 0 00-.96 2.892c-.859 2.772-1.1 3.147-.517 3.481l.52-.08c-.03.134-.081.256-.1.389-.342 1.111-.581 1.829-.715 2.322a1.091 1.091 0 00-.343.291 1.259 1.259 0 00-1.349.475 15.979 15.979 0 00-.937 2.719c-.927 2.912-1.057 2.977-.379 3.54a3.333 3.333 0 01.442-.172c-.041.155-.114.3-.153.461-.272.852-.478 1.455-.609 1.9l-1.091 1.161a2.349 2.349 0 00-.218.232l-.43.444a20.671 20.671 0 00-1.541 3.219c-.721 1.493-.593 1.846.014 2.3.077.042.153.086.225.135a.76.76 0 00.236-.011l.008.053c-.2.508-.409 1-.568 1.326a3.935 3.935 0 00-.467 1.433 1.609 1.609 0 00-.5.37c-1.866-.266-2.169 2.466-3.08 3.789-.921 1.588-.945 2.044.065 2.477.153-.014.326.014.5-.012a7.693 7.693 0 01-.672 1.361 8.933 8.933 0 00-.5.947 1.919 1.919 0 00-.358.264 1.859 1.859 0 00-1.834 1.017 28.891 28.891 0 01-1.611 2.469c-.988 1.4-.959 2.25.123 2.493.047.013.091.041.13.035.181-.018.359.01.544-.019-.294.448-.62.921-.9 1.3a5.438 5.438 0 00-.42.736 1.518 1.518 0 00-1.55.461 1.351 1.351 0 00-1.588.929 17.382 17.382 0 01-1.367 2.408c-1.386 1.6-.621 1.984-.032 2.392.237-.007.495.019.74.025-.241.44-.466.887-.749 1.309l-.13.194c-.875.979-2.344 2.561-2.775 2.99s-.829.858-1.259 1.292a.492.492 0 01.051.331.538.538 0 01-.593.479.5.5 0 01-.183-.057 37.841 37.841 0 00-2.643 3.006 10.352 10.352 0 00.5 12.49 5.606 5.606 0 003.247 2.014.346.346 0 00.011.073c-.5 3.145.733 4.886 3.46 5.026a8.045 8.045 0 001.144-.026 37.238 37.238 0 00-.141 11.43l-.263 1.532 1.156.017-.281 1.993 1.862-.5.108 2.067 1.949-.552.506 1.911 1.885-1.1.765 1.743 1.62-1.143.72 1.457 1.065-.944a39.506 39.506 0 004.619-.522 94.846 94.846 0 0029.314-12.855l23.017-12.891 63.549-35.584a32.7 32.7 0 006.2-3.613c13.813-8.846 23.439-27.6 30.085-51.091zM884.2 217.247c-.479 6.131-16.6 13.59-23.181 14.488H860.989c-4.024.551-5.593-1.417-6.1-3.827a12.36 12.36 0 01-.1-3.884l.013-.112.031-.248c.05-.391.108-.753.164-1.07l.891-.355c7-2.717 16.477-7.111 24.679-11.236 1.957 1.481 3.462 2.578 3.636 5.078a7.235 7.235 0 01-.011 1.165m59.184-29.82l-35.986 20.51a22.9 22.9 0 01-11.554 4.254l-.006-.008c-2.644-.376-3.173-3.151-4.864-6.636 1.829-1.011 3.395-1.932 4.586-2.691a37.758 37.758 0 0011.252-12.136 125.858 125.858 0 0123.482-24.907 93.33 93.33 0 008.973 9.106 65.536 65.536 0 009.746-5.47c7.559 9.163 3.287 12.9-5.629 17.979" data-name="&#x41a;&#x43e;&#x43d;&#x442;&#x443;&#x440; 1564"/></g><g data-name="0"><path d="M583.207 391.591H476.795A100.346 100.346 0 01376.45 291.246v-190.9A100.346 100.346 0 01476.795 0h106.412A100.345 100.345 0 01683.55 100.345v190.9a100.345 100.345 0 01-100.343 100.346" data-name="&#x41a;&#x43e;&#x43d;&#x442;&#x443;&#x440; 1565"/><path d="M538.3 261.818h-17.4a10 10 0 01-10-10V139.229a10 10 0 0110-10h17.4a10 10 0 0110 10v112.586a10 10 0 01-10 10" data-name="&#x41a;&#x43e;&#x43d;&#x442;&#x443;&#x440; 1566"/></g><g data-name="4"><path d="M157.555-.001L0 247.799v82.6h190.442v61.186h101.722v-61.186h45.125v-82.6h-45.125V-.001z" data-name="&#x41a;&#x43e;&#x43d;&#x442;&#x443;&#x440; 1563"/><path d="M292.165 116.196c-6.047 25.352-14.411 43.523-24.9 53.934a4.635 4.635 0 00-.191-.737c-1.9-5.339-9.475-1.832-13.059-.289-7.092 3.02-11.212 3.426-14.613-.634a23.408 23.408 0 01-3.237-5.623 22.27 22.27 0 003.06-2.457c-1.751-5.073-6.189-15.813-8.2-20.742l-.048-.122-.041-.262c-1.068-9.549-11.783-19.617-19.456-27.5q-1.934-1.982-3.791-4.04a.539.539 0 01-.553.055.552.552 0 01-.276-.311.537.537 0 01.027-.411.609.609 0 01.085-.128q-1.634-1.838-3.228-3.713a.446.446 0 01-.169.1l-.018.006a.531.531 0 01-.67-.338.491.491 0 01.021-.411.663.663 0 01.136-.181c-4.268-5.076-8.316-10.34-12.375-15.582a.521.521 0 01-.41-.081.547.547 0 01-.181-.693l-.929-1.2c-8.7 1.633-17.455 3.292-26.036 5.356-12.692 3.056-17.854 5.592-19.006 9.015-1.026 3.046-.776 4.973 2.2 11.867a62.527 62.527 0 014.273 12.485 32.134 32.134 0 01.337 7.5 23.476 23.476 0 01-.729 3.3l.115.037a1.264 1.264 0 00-.176.147c-.045.066-.069.139-.112.211-.506-.122-.812-.2-1.237.269a8.935 8.935 0 00-1.272 3.059c-.865 2.8-.9 3.216-.36 3.467h.025a1.732 1.732 0 01.354-.054c-.035.13-.091.247-.116.375a48.32 48.32 0 00-.565 1.961c-.493-.074-.868-.181-1.252.266a12 12 0 00-.96 2.892c-.859 2.772-1.1 3.147-.517 3.481l.52-.08c-.03.134-.081.256-.1.389-.342 1.111-.581 1.829-.715 2.322a1.091 1.091 0 00-.343.291 1.259 1.259 0 00-1.349.475 15.977 15.977 0 00-.937 2.719c-.927 2.912-1.057 2.977-.379 3.54a3.333 3.333 0 01.442-.172c-.041.155-.114.3-.153.461-.272.852-.478 1.455-.609 1.9l-1.091 1.161a2.351 2.351 0 00-.218.232l-.43.444a20.666 20.666 0 00-1.541 3.219c-.721 1.493-.593 1.846.014 2.3.077.042.153.086.225.135a.76.76 0 00.236-.011l.008.053c-.2.508-.409 1-.568 1.326a3.934 3.934 0 00-.467 1.433 1.609 1.609 0 00-.5.37c-1.866-.266-2.169 2.466-3.08 3.789-.92 1.588-.945 2.044.065 2.477.153-.014.325.014.5-.012a7.7 7.7 0 01-.672 1.361 8.933 8.933 0 00-.5.947 1.919 1.919 0 00-.358.264 1.859 1.859 0 00-1.834 1.017 28.887 28.887 0 01-1.611 2.469c-.988 1.4-.959 2.25.123 2.493.047.013.091.041.13.035.181-.018.359.01.544-.019-.294.448-.62.921-.9 1.3a5.438 5.438 0 00-.42.736 1.518 1.518 0 00-1.55.461 1.351 1.351 0 00-1.588.929 17.381 17.381 0 01-1.367 2.408c-1.386 1.6-.621 1.984-.032 2.392.237-.007.495.019.74.025-.241.44-.466.887-.749 1.309l-.13.194c-.875.979-2.344 2.561-2.775 2.99s-.829.858-1.26 1.292a.492.492 0 01.051.331.538.538 0 01-.593.479.5.5 0 01-.183-.057 37.844 37.844 0 00-2.643 3.006 10.352 10.352 0 00.5 12.49 5.605 5.605 0 003.247 2.014.346.346 0 00.011.073c-.5 3.145.733 4.886 3.46 5.026a8.045 8.045 0 001.144-.026 37.238 37.238 0 00-.141 11.43l-.263 1.532 1.156.017-.281 1.993 1.862-.5.108 2.067 1.949-.552.506 1.911 1.885-1.1.765 1.743 1.62-1.143.72 1.457 1.065-.944a39.506 39.506 0 004.619-.522 94.846 94.846 0 0029.314-12.855l23.017-12.891 63.549-35.584a32.7 32.7 0 006.2-3.613c13.813-8.846 23.439-27.6 30.085-51.091zM161.489 217.247c-.479 6.131-16.6 13.59-23.181 14.488H138.278c-4.024.551-5.593-1.417-6.1-3.827a12.361 12.361 0 01-.1-3.884l.013-.112.031-.248c.05-.391.108-.753.164-1.07l.891-.355c7-2.717 16.477-7.111 24.679-11.236 1.957 1.481 3.462 2.578 3.636 5.078a7.235 7.235 0 01-.011 1.165m59.184-29.82l-35.986 20.51a22.9 22.9 0 01-11.554 4.254l-.006-.008c-2.644-.376-3.173-3.151-4.864-6.636 1.829-1.011 3.395-1.932 4.586-2.691a37.758 37.758 0 0011.252-12.136 125.858 125.858 0 0123.482-24.907 93.33 93.33 0 008.973 9.106 65.536 65.536 0 009.746-5.47c7.559 9.163 3.287 12.9-5.629 17.979" data-name="&#x41a;&#x43e;&#x43d;&#x442;&#x443;&#x440; 1564"/></g></g></symbol><symbol id="burger" viewBox="0 0 24 20"><g><path d="M0 0h24v1.499H0z" data-name="&#x41f;&#x440;&#x44f;&#x43c;&#x43e;&#x443;&#x433;&#x43e;&#x43b;&#x44c;&#x43d;&#x438;&#x43a; 88"/><path d="M0 9.25h14.4v1.499H0z" data-name="&#x41f;&#x440;&#x44f;&#x43c;&#x43e;&#x443;&#x433;&#x43e;&#x43b;&#x44c;&#x43d;&#x438;&#x43a; 89"/><path d="M0 18.5h24V20H0z" data-name="&#x41f;&#x440;&#x44f;&#x43c;&#x43e;&#x443;&#x433;&#x43e;&#x43b;&#x44c;&#x43d;&#x438;&#x43a; 90"/></g></symbol><symbol id="calendar" viewBox="0 0 14 14"><g clip-path="url(#a)" data-name="&#x421;&#x433;&#x440;&#x443;&#x43f;&#x43f;&#x438;&#x440;&#x43e;&#x432;&#x430;&#x442;&#x44c; 12"><path d="M12.3 0H1.7A1.7 1.7 0 000 1.7v10.6A1.7 1.7 0 001.7 14h10.6a1.7 1.7 0 001.7-1.7V1.7A1.7 1.7 0 0012.3 0m.2 12.3a.2.2 0 01-.2.2H1.7a.2.2 0 01-.2-.2V4h11zm0-9.8h-11v-.8a.2.2 0 01.2-.2h10.6a.2.2 0 01.2.2z" data-name="&#x41a;&#x43e;&#x43d;&#x442;&#x443;&#x440; 1053"/><path d="M2.944 5.654h1.5v1.5h-1.5z" data-name="&#x41f;&#x440;&#x44f;&#x43c;&#x43e;&#x443;&#x433;&#x43e;&#x43b;&#x44c;&#x43d;&#x438;&#x43a; 15"/><path d="M9.556 5.654h1.5v1.5h-1.5z" data-name="&#x41f;&#x440;&#x44f;&#x43c;&#x43e;&#x443;&#x433;&#x43e;&#x43b;&#x44c;&#x43d;&#x438;&#x43a; 16"/><path d="M6.25 5.654h1.5v1.5h-1.5z" data-name="&#x41f;&#x440;&#x44f;&#x43c;&#x43e;&#x443;&#x433;&#x43e;&#x43b;&#x44c;&#x43d;&#x438;&#x43a; 17"/><path d="M2.944 8.63h1.5v1.5h-1.5z" data-name="&#x41f;&#x440;&#x44f;&#x43c;&#x43e;&#x443;&#x433;&#x43e;&#x43b;&#x44c;&#x43d;&#x438;&#x43a; 18"/><path d="M9.556 8.63h1.5v1.5h-1.5z" data-name="&#x41f;&#x440;&#x44f;&#x43c;&#x43e;&#x443;&#x433;&#x43e;&#x43b;&#x44c;&#x43d;&#x438;&#x43a; 19"/><path d="M6.25 8.63h1.5v1.5h-1.5z" data-name="&#x41f;&#x440;&#x44f;&#x43c;&#x43e;&#x443;&#x433;&#x43e;&#x43b;&#x44c;&#x43d;&#x438;&#x43a; 20"/></g></symbol><symbol id="close" viewBox="0 0 20 20"><g opacity=".5"><path d="M1.176 0l18.823 18.823L18.823 20 0 1.176z" data-name="&#x41f;&#x440;&#x44f;&#x43c;&#x43e;&#x443;&#x433;&#x43e;&#x43b;&#x44c;&#x43d;&#x438;&#x43a; 88"/><path d="M0 18.823L18.823 0 20 1.176 1.177 20z" data-name="&#x41f;&#x440;&#x44f;&#x43c;&#x43e;&#x443;&#x433;&#x43e;&#x43b;&#x44c;&#x43d;&#x438;&#x43a; 90"/></g></symbol><symbol id="docx" viewBox="0 0 31.647 35"><path d="M2.126 0v35h29.52V5.832L25.742 0z" data-name="&#x41a;&#x43e;&#x43d;&#x442;&#x443;&#x440; 1171"/><path d="M26.647 0v5h5z" data-name="&#x41a;&#x43e;&#x43d;&#x442;&#x443;&#x440; 1172"/><g data-name="&#x421;&#x433;&#x440;&#x443;&#x43f;&#x43f;&#x438;&#x440;&#x43e;&#x432;&#x430;&#x442;&#x44c; 41"><g clip-path="url(#a)" data-name="&#x421;&#x433;&#x440;&#x443;&#x43f;&#x43f;&#x438;&#x440;&#x43e;&#x432;&#x430;&#x442;&#x44c; 40"><path d="M24.179 24.899H0v-12.72a1.863 1.863 0 011.863-1.863H27.94a1.273 1.273 0 011.225 1.619l-3.318 11.7a1.734 1.734 0 01-1.668 1.261" data-name="&#x41a;&#x43e;&#x43d;&#x442;&#x443;&#x440; 1173"/><path d="M2.48 27.58v-2.681H0z" data-name="&#x41a;&#x43e;&#x43d;&#x442;&#x443;&#x440; 1174"/><path d="M6.422 21.637a2.665 2.665 0 01-1.132-.242 2.588 2.588 0 01-.894-.684 3.189 3.189 0 01-.585-1.1 4.839 4.839 0 01-.21-1.466 4.769 4.769 0 01.212-1.464 3.157 3.157 0 01.591-1.1 2.6 2.6 0 01.9-.676 2.672 2.672 0 011.131-.238 2.377 2.377 0 01.663.087 2.15 2.15 0 01.494.2 1.763 1.763 0 01.364.3 2.375 2.375 0 01.248.3c.048.077.106.174.174.29h.078V12.5h1.31v9H8.483v-1.047h-.11a3.367 3.367 0 01-.178.292 2.7 2.7 0 01-.257.306 1.724 1.724 0 01-.368.3 2.077 2.077 0 01-.5.2 2.364 2.364 0 01-.653.086m.29-1.122a1.5 1.5 0 001.3-.65 2.932 2.932 0 00.464-1.737 2.859 2.859 0 00-.46-1.714 1.511 1.511 0 00-1.3-.633 1.582 1.582 0 00-.985.309 1.813 1.813 0 00-.6.833 3.426 3.426 0 00-.2 1.205 3.5 3.5 0 00.2 1.22 1.875 1.875 0 00.606.851 1.559 1.559 0 00.981.316" data-name="&#x41a;&#x43e;&#x43d;&#x442;&#x443;&#x440; 1175"/><path d="M16.015 21.207a3.124 3.124 0 01-1.657.432 3.13 3.13 0 01-1.657-.432 2.85 2.85 0 01-1.1-1.225 4.094 4.094 0 01-.386-1.825 3.654 3.654 0 01.86-2.536 2.922 2.922 0 012.286-.957 2.92 2.92 0 012.286.957 3.643 3.643 0 01.862 2.536 4.094 4.094 0 01-.386 1.825 2.844 2.844 0 01-1.1 1.225m-1.652-.671a1.7 1.7 0 00.8-.188 1.544 1.544 0 00.572-.52 2.555 2.555 0 00.33-.755 3.862 3.862 0 000-1.838 2.618 2.618 0 00-.33-.76 1.547 1.547 0 00-.572-.521 1.77 1.77 0 00-1.609 0 1.561 1.561 0 00-.573.521 2.521 2.521 0 00-.333.76 3.862 3.862 0 000 1.838 2.462 2.462 0 00.333.755 1.557 1.557 0 00.573.52 1.711 1.711 0 00.807.188" data-name="&#x41a;&#x43e;&#x43d;&#x442;&#x443;&#x440; 1176"/><path d="M21.744 21.643a3.109 3.109 0 01-1.682-.447 2.853 2.853 0 01-1.092-1.233 4.149 4.149 0 01-.373-1.8 4.1 4.1 0 01.384-1.818 2.906 2.906 0 011.1-1.235 3.065 3.065 0 011.65-.441 2.942 2.942 0 011.917.622 2.346 2.346 0 01.871 1.647h-1.28a1.445 1.445 0 00-1.486-1.161 1.6 1.6 0 00-1.328.639 2.712 2.712 0 00-.5 1.718 2.81 2.81 0 00.5 1.752 1.591 1.591 0 001.332.648 1.539 1.539 0 00.965-.307 1.437 1.437 0 00.521-.854h1.28a2.417 2.417 0 01-.855 1.64 2.854 2.854 0 01-1.919.633" data-name="&#x41a;&#x43e;&#x43d;&#x442;&#x443;&#x440; 1177"/></g></g></symbol><symbol id="home" viewBox="0 0 18 18"><g clip-path="url(#a)" data-name="&#x421;&#x433;&#x440;&#x443;&#x43f;&#x43f;&#x438;&#x440;&#x43e;&#x432;&#x430;&#x442;&#x44c; 19"><path d="M17.488 4.7L9.5.133a1 1 0 00-1 0L.512 4.7A1.022 1.022 0 000 5.587v11.394A1.014 1.014 0 001.01 18h15.98A1.014 1.014 0 0018 16.981V5.587a1.022 1.022 0 00-.512-.887m-6.44 11.8h-4.1V9.172h4.1zm5.452 0h-3.952V7.672h-7.1V16.5H1.5V5.864L9 1.575l7.5 4.289z" data-name="&#x41a;&#x43e;&#x43d;&#x442;&#x443;&#x440; 1056"/></g></symbol><symbol id="mark" viewBox="0 0 12 12"><rect width="12" height="12" rx="3"/></symbol><symbol id="next" viewBox="0 0 5.918 10"><path d="M0 .917L4.083 5 0 9.083.917 10l5-5-5-5z"/></symbol><symbol id="pdf" viewBox="0 0 31.647 35"><path d="M2.48 0v35h29.166V5.832L25.813 0z" data-name="&#x41a;&#x43e;&#x43d;&#x442;&#x443;&#x440; 1179"/><path d="M25.813 0v5.832h5.833z" data-name="&#x41a;&#x43e;&#x43d;&#x442;&#x443;&#x440; 1180"/><g data-name="&#x421;&#x433;&#x440;&#x443;&#x43f;&#x43f;&#x438;&#x440;&#x43e;&#x432;&#x430;&#x442;&#x44c; 43"><g clip-path="url(#a)" data-name="&#x421;&#x433;&#x440;&#x443;&#x43f;&#x43f;&#x438;&#x440;&#x43e;&#x432;&#x430;&#x442;&#x44c; 42"><path d="M24.179 24.899H0v-12.72a1.863 1.863 0 011.863-1.863H27.94a1.273 1.273 0 011.225 1.619l-3.318 11.7a1.734 1.734 0 01-1.668 1.261" data-name="&#x41a;&#x43e;&#x43d;&#x442;&#x443;&#x440; 1181"/><path d="M2.48 27.58v-2.681H0z" data-name="&#x41a;&#x43e;&#x43d;&#x442;&#x443;&#x440; 1182"/><path d="M5.227 23.771v-9h1.244v1.062h.106c.062-.11.119-.2.167-.279a2.25 2.25 0 01.241-.295 1.634 1.634 0 01.351-.292 2.109 2.109 0 01.48-.2 2.333 2.333 0 01.642-.085 2.607 2.607 0 011.1.231 2.535 2.535 0 01.873.656 3.082 3.082 0 01.573 1.067 4.6 4.6 0 01.206 1.419 3.736 3.736 0 01-.763 2.475 2.451 2.451 0 01-1.973.914 2.278 2.278 0 01-.633-.082 2.094 2.094 0 01-.481-.2 1.7 1.7 0 01-.357-.287 2.61 2.61 0 01-.256-.29 3.3 3.3 0 01-.174-.284h-.072v3.474zm1.249-5.728a2.836 2.836 0 00.451 1.684 1.461 1.461 0 001.258.631 1.513 1.513 0 00.953-.307 1.8 1.8 0 00.591-.824 3.405 3.405 0 00.191-1.183 3.3 3.3 0 00-.19-1.168 1.75 1.75 0 00-.586-.808 1.536 1.536 0 00-.959-.3 1.466 1.466 0 00-1.263.613 2.774 2.774 0 00-.446 1.662" data-name="&#x41a;&#x43e;&#x43d;&#x442;&#x443;&#x440; 1183"/><path d="M15.087 21.445a2.577 2.577 0 01-1.1-.235 2.5 2.5 0 01-.867-.663 3.094 3.094 0 01-.568-1.07 4.708 4.708 0 01-.2-1.421 4.6 4.6 0 01.206-1.419 3.044 3.044 0 01.571-1.07 2.521 2.521 0 01.869-.657 2.607 2.607 0 011.1-.231 2.33 2.33 0 01.643.085 2.143 2.143 0 01.478.2 1.725 1.725 0 01.353.291 2.113 2.113 0 01.24.292c.047.075.1.169.17.282h.076v-3.243h1.274v8.731h-1.246v-1.02h-.106a3.3 3.3 0 01-.174.284 2.749 2.749 0 01-.249.3 1.694 1.694 0 01-.357.287 2.094 2.094 0 01-.481.2 2.277 2.277 0 01-.633.084m.281-1.095a1.458 1.458 0 001.26-.631 2.845 2.845 0 00.45-1.684 2.774 2.774 0 00-.446-1.662 1.468 1.468 0 00-1.264-.613 1.534 1.534 0 00-.954.3 1.742 1.742 0 00-.586.808 3.3 3.3 0 00-.19 1.168 3.405 3.405 0 00.191 1.183 1.817 1.817 0 00.588.824 1.506 1.506 0 00.95.307" data-name="&#x41a;&#x43e;&#x43d;&#x442;&#x443;&#x440; 1184"/><path d="M23.264 14.768v1.024h-1.41v5.524h-1.28v-5.524h-1.01v-1.024h1.01v-.758a1.951 1.951 0 01.159-.8 1.518 1.518 0 01.427-.577 1.947 1.947 0 01.617-.337 2.341 2.341 0 01.741-.115 3.008 3.008 0 011.067.175l-.3 1.032a1.9 1.9 0 00-.571-.1.848.848 0 00-.659.224.978.978 0 00-.2.671v.588z" data-name="&#x41a;&#x43e;&#x43d;&#x442;&#x443;&#x440; 1185"/></g></g></symbol><symbol id="phone-1" viewBox="0 0 24 24"><path d="M5.13 1.8c.495 0 .99 0 1.485.01 1.02.014 1.334.383 1.442 1.366a34.34 34.34 0 00.556 3.495 1.611 1.611 0 01-.466 1.708 26.17 26.17 0 00-1.885 1.913.863.863 0 00-.1.784 17 17 0 006.781 6.773.518.518 0 00.243.049.9.9 0 00.539-.167 29.295 29.295 0 001.97-1.939 1.379 1.379 0 011.07-.474 2.637 2.637 0 01.506.056q1.813.351 3.651.577c.85.1 1.235.428 1.27 1.292.024.6 0 1.212.005 1.818 0 .58.012 1.16 0 1.739-.024 1-.375 1.4-1.321 1.4h-.141A18.956 18.956 0 015.61 14.432 18.805 18.805 0 011.801 3.414c-.038-1.25.3-1.6 1.572-1.607Q4.253 1.8 5.13 1.8m0-1.8c-.589 0-1.178 0-1.766.007A3.416 3.416 0 00.801.9a3.377 3.377 0 00-.8 2.569 20.615 20.615 0 004.17 12.049A20.731 20.731 0 0020.663 24h.209a2.929 2.929 0 003.12-3.158c.01-.43.008-.86.005-1.29v-.494-.562c0-.442.008-.884-.01-1.325a2.952 2.952 0 00-2.848-3.006 52.376 52.376 0 01-3.527-.558 4.374 4.374 0 00-.85-.089 3.156 3.156 0 00-2.384 1.044c-.462.494-.879.917-1.277 1.3A15.168 15.168 0 018.144 10.9c.365-.384.771-.781 1.226-1.2a3.388 3.388 0 001-3.408 32.755 32.755 0 01-.524-3.312A3 3 0 006.641.01Q5.885 0 5.13 0"/></symbol><symbol id="phone" viewBox="0 0 24 24"><path d="M5.13 1.8c.495 0 .99 0 1.485.01 1.02.014 1.334.383 1.442 1.366a34.34 34.34 0 00.556 3.495 1.611 1.611 0 01-.466 1.708 26.17 26.17 0 00-1.885 1.913.863.863 0 00-.1.784 17 17 0 006.781 6.773.518.518 0 00.243.049.9.9 0 00.539-.167 29.295 29.295 0 001.97-1.939 1.379 1.379 0 011.07-.474 2.637 2.637 0 01.506.056q1.813.351 3.651.577c.85.1 1.235.428 1.27 1.292.024.6 0 1.212.005 1.818 0 .58.012 1.16 0 1.739-.024 1-.375 1.4-1.321 1.4h-.141A18.956 18.956 0 015.61 14.432 18.805 18.805 0 011.801 3.414c-.038-1.25.3-1.6 1.572-1.607Q4.253 1.8 5.13 1.8m0-1.8c-.589 0-1.178 0-1.766.007A3.416 3.416 0 00.801.9a3.377 3.377 0 00-.8 2.569 20.615 20.615 0 004.17 12.049A20.731 20.731 0 0020.663 24h.209a2.929 2.929 0 003.12-3.158c.01-.43.008-.86.005-1.29v-.494-.562c0-.442.008-.884-.01-1.325a2.952 2.952 0 00-2.848-3.006 52.376 52.376 0 01-3.527-.558 4.374 4.374 0 00-.85-.089 3.156 3.156 0 00-2.384 1.044c-.462.494-.879.917-1.277 1.3A15.168 15.168 0 018.144 10.9c.365-.384.771-.781 1.226-1.2a3.388 3.388 0 001-3.408 32.755 32.755 0 01-.524-3.312A3 3 0 006.641.01Q5.885 0 5.13 0"/></symbol><symbol id="search" viewBox="0 0 20 20"><path d="M20 18.954l-5.04-5.04a8.479 8.479 0 10-1.045 1.046L18.954 20zM1.479 8.473a6.995 6.995 0 117 6.994 7 7 0 01-7-6.994" data-name="&#x41a;&#x43e;&#x43d;&#x442;&#x443;&#x440; 1054"/></symbol><symbol id="skate" viewBox="0 0 32.084 30.324"><path d="M31.5 22.032a7.7 7.7 0 00-.624-.523.1.1 0 01-.035.017.11.11 0 01-.083-.011.109.109 0 01-.051-.067.1.1 0 010-.068c-.1-.074-.193-.148-.293-.221s-.444-.346-.65-.516l-.032-.035c-.07-.076-.129-.159-.191-.24.049-.009.1-.022.148-.028.106-.1.248-.2-.08-.48a3.525 3.525 0 01-.349-.442.275.275 0 00-.348-.138.309.309 0 00-.326-.045 1.1 1.1 0 00-.107-.135 5.718 5.718 0 01-.221-.233c.038 0 .073-.011.11-.013.008 0 .016-.007.025-.011.21-.082.19-.253-.052-.505a5.889 5.889 0 01-.4-.447.378.378 0 00-.4-.148.389.389 0 00-.08-.042 1.827 1.827 0 00-.13-.175 1.568 1.568 0 01-.177-.253c.035 0 .069-.011.1-.013.19-.118.171-.209-.063-.5-.224-.238-.369-.778-.736-.667a.327.327 0 00-.111-.059.8.8 0 00-.138-.274 3.812 3.812 0 01-.155-.249V15.5c.016 0 .032 0 .048-.005a.49.49 0 01.041-.034c.108-.11.123-.185-.068-.463a4.2 4.2 0 00-.409-.6l-.1-.076a.487.487 0 00-.051-.04l-.255-.2c-.04-.085-.1-.2-.181-.363-.013-.031-.032-.058-.045-.088a.7.7 0 01.094.021c.119-.134.091-.143-.185-.7a3.262 3.262 0 00-.272-.518.256.256 0 00-.286-.054.219.219 0 00-.078-.048c-.042-.095-.112-.232-.215-.445-.009-.026-.023-.049-.033-.075h.107c.106-.085.047-.153-.211-.684a2.443 2.443 0 00-.282-.552c-.091-.078-.163-.045-.26-.015a9.68 9.68 0 00-.174-.377c-.009-.025-.024-.047-.035-.072.025 0 .048-.005.073 0h.005c.1-.067.081-.149-.179-.686a1.82 1.82 0 00-.35-.576c-.1-.081-.159-.056-.257-.016-.011-.013-.018-.027-.029-.039a.278.278 0 00-.04-.024l.022-.011a4.751 4.751 0 01-.248-.641 6.526 6.526 0 01-.163-1.519 12.717 12.717 0 01.475-2.642c.387-1.478.378-1.873.078-2.454C22.251.851 21.135.5 18.489.276 16.7.125 14.888.061 13.089 0l-.15.27a.1.1 0 01.02.068.1.1 0 01-.035.077.106.106 0 01-.08.029c-.655 1.179-1.307 2.362-2.009 3.514a.133.133 0 01.033.032.1.1 0 01.017.082.108.108 0 01-.128.088.09.09 0 01-.037-.015q-.263.426-.535.846a.126.126 0 01.021.023.109.109 0 01.018.082.112.112 0 01-.046.071.11.11 0 01-.113.006q-.31.471-.638.929c-1.3 1.822-3.145 4.176-3.066 6.129v.054l-.006.026c-.253 1.053-.815 3.349-1.011 4.423a4.544 4.544 0 00.691.4 4.763 4.763 0 01-.477 1.231c-.559.921-1.4.966-2.919.577-.768-.2-2.4-.672-2.617.46a.946.946 0 00.275.865 6.642 6.642 0 002.339 1.166l13.873 5.2 5.025 1.884a19.289 19.289 0 006.29 1.683 8.047 8.047 0 00.945-.037l.243.157.1-.315.361.18.1-.374.413.164.043-.4.409.051-.042-.419.39.044-.118-.392.232-.039-.1-.3a7.571 7.571 0 00-.38-2.294 1.646 1.646 0 00.231-.03c.544-.112.738-.5.541-1.117a.066.066 0 000-.015 1.141 1.141 0 00.591-.505 2.106 2.106 0 00-.283-2.527M10.559 4.617zm9.671 20.5a4.659 4.659 0 01-2.454-.5L9.909 21.6c-1.949-.746-2.923-1.367-1.685-3.442a13.32 13.32 0 002.128.8 18.979 18.979 0 001.524-2.107 25.6 25.6 0 015.488 4.286A7.68 7.68 0 0020 23.231c.263.116.606.253 1.005.4-.233.753-.254 1.327-.774 1.484m7.606 2.86h-.005c-1.351.022-4.822-.982-5.107-2.2a1.48 1.48 0 01-.038-.234c-.042-.508.227-.775.575-1.133 1.776.577 3.817 1.169 5.308 1.5l.19.044c.021.062.044.133.066.21l.014.049.006.022a2.518 2.518 0 01.1.784c-.027.5-.282.944-1.108.957"/></symbol><symbol id="Telegram" viewBox="0 0 20 16.488"><path d="M19.959.347a.422.422 0 00-.291-.317 1.482 1.482 0 00-.786.056S1.359 6.383.358 7.08c-.217.151-.29.238-.325.341-.172.5.369.716.369.716l4.518 1.47a.482.482 0 00.229-.012c1.027-.648 10.336-6.528 10.874-6.726.081-.025.147 0 .13.062-.217.754-8.3 7.942-8.3 7.942a.308.308 0 00-.052.084h-.009l-.421 4.479s-.178 1.373 1.2 0c.966-.966 1.9-1.778 2.373-2.173 1.555 1.071 3.227 2.262 3.948 2.879a1.254 1.254 0 00.869.348h.039c.685-.025.875-.777.875-.777s3.193-12.847 3.3-14.574C19.984.968 20 .861 20 .745a1.444 1.444 0 00-.039-.4" data-name="Telegram"/></symbol><symbol id="up" viewBox="0 0 60 60"><g data-name="1"><path d="M26.765 7.431l3.325-3.325 3.325 3.325-3.325 3.325z" data-name="&#x41f;&#x440;&#x44f;&#x43c;&#x43e;&#x443;&#x433;&#x43e;&#x43b;&#x44c;&#x43d;&#x438;&#x43a; 58"/><path d="M28.343 1.746L30.09-.001l1.746 1.747-1.746 1.747z" data-name="&#x41f;&#x440;&#x44f;&#x43c;&#x43e;&#x443;&#x433;&#x43e;&#x43b;&#x44c;&#x43d;&#x438;&#x43a; 59"/><path d="M26.585 52.569l3.326-3.325 3.325 3.325-3.326 3.326z" data-name="&#x41f;&#x440;&#x44f;&#x43c;&#x43e;&#x443;&#x433;&#x43e;&#x43b;&#x44c;&#x43d;&#x438;&#x43a; 60"/><path d="M28.164 58.254l1.747-1.746 1.746 1.746-1.747 1.747z" data-name="&#x41f;&#x440;&#x44f;&#x43c;&#x43e;&#x443;&#x433;&#x43e;&#x43b;&#x44c;&#x43d;&#x438;&#x43a; 61"/><path d="M4.106 29.91l3.325-3.325 3.325 3.325-3.325 3.325z" data-name="&#x41f;&#x440;&#x44f;&#x43c;&#x43e;&#x443;&#x433;&#x43e;&#x43b;&#x44c;&#x43d;&#x438;&#x43a; 62"/><path d="M0 29.91l1.747-1.746 1.746 1.746-1.747 1.747z" data-name="&#x41f;&#x440;&#x44f;&#x43c;&#x43e;&#x443;&#x433;&#x43e;&#x43b;&#x44c;&#x43d;&#x438;&#x43a; 63"/><path d="M51.714 25.423l-2.191-2.191-5.059 5.058h-1.922l2.869-2.867-1.279-1.28.027-1.8-4.466-.071 1.407-1.406 7.467.118.049-3.1-6.5-.1v-6.371h-3.102v7.153l-1.359 1.36v-4.055h-1.809l-1.25-1.293-3.21 3.108v-1.99l5.366-5.2-2.156-2.225-4.669 4.522-4.506-4.506-2.191 2.191 5.06 5.059v1.921l-2.869-2.867-1.28 1.28-1.8-.029-.072 4.466-1.406-1.408.117-7.467-3.1-.049-.1 6.5h-6.366v3.1h7.154l1.359 1.36h-4.055v1.808l-1.294 1.252 3.11 3.209h-1.991l-5.2-5.364-2.225 2.156 4.522 4.668-4.5 4.506 2.189 2.191 5.06-5.059h1.92l-2.866 2.868 1.281 1.279-.032 1.8 4.468.071-1.407 1.406-7.467-.118-.05 3.1 6.5.1v6.372h3.1v-7.153l1.361-1.36v4.055h1.807l1.253 1.293 3.209-3.108v1.99l-5.365 5.2 2.156 2.225 4.669-4.522 4.5 4.506 2.191-2.191-5.059-5.058v-1.922l2.868 2.868 1.28-1.28 1.8.029.071-4.466 1.409 1.406-.12 7.468 3.1.048.1-6.5h6.372v-3.1h-7.153l-1.36-1.36h4.056v-1.808l1.293-1.252-3.108-3.209h1.99l5.2 5.365 2.223-2.156-4.521-4.668zm-10.658-.029l-2.895 2.9h-1.132a7.2 7.2 0 00-1.036-2.317l.65-.65zm-11.042 8.758a4.124 4.124 0 114.124-4.125 4.129 4.129 0 01-4.124 4.125m4.542-15.225v4.1l-.818.818a7.156 7.156 0 00-2.353-.9v-.942zm-9.165.021l2.9 2.9v1.171a7.177 7.177 0 00-2.3 1.018l-.672-.671zm-6.465 6.494h4.094l.829.828a7.2 7.2 0 00-.918 2.343h-.934zm.02 9.165l2.9-2.9h1.152a7.12 7.12 0 001.014 2.319l-.647.648zm6.493 6.466v-4.1l.8-.8a7.18 7.18 0 002.372.932v.89zm9.166-.021l-2.9-2.9V37.04a7.179 7.179 0 002.341-1.032l.626.626zm6.466-6.494h-4.095l-.789-.787a7.191 7.191 0 00.919-2.383h.893z" data-name="&#x41a;&#x43e;&#x43d;&#x442;&#x443;&#x440; 1156"/><path d="M49.244 30.09l3.326-3.325 3.325 3.325-3.326 3.326z" data-name="&#x41f;&#x440;&#x44f;&#x43c;&#x43e;&#x443;&#x433;&#x43e;&#x43b;&#x44c;&#x43d;&#x438;&#x43a; 64"/><path d="M56.507 30.09l1.747-1.747L60 30.09l-1.746 1.747z" data-name="&#x41f;&#x440;&#x44f;&#x43c;&#x43e;&#x443;&#x433;&#x43e;&#x43b;&#x44c;&#x43d;&#x438;&#x43a; 65"/><path d="M11.752 11.627h4.703v4.703h-4.703z" data-name="&#x41f;&#x440;&#x44f;&#x43c;&#x43e;&#x443;&#x433;&#x43e;&#x43b;&#x44c;&#x43d;&#x438;&#x43a; 66"/><path d="M8.85 8.724h2.47v2.47H8.85z" data-name="&#x41f;&#x440;&#x44f;&#x43c;&#x43e;&#x443;&#x433;&#x43e;&#x43b;&#x44c;&#x43d;&#x438;&#x43a; 67"/><path d="M43.545 43.67h4.703v4.703h-4.703z" data-name="&#x41f;&#x440;&#x44f;&#x43c;&#x43e;&#x443;&#x433;&#x43e;&#x43b;&#x44c;&#x43d;&#x438;&#x43a; 68"/><path d="M48.68 48.806h2.47v2.47h-2.47z" data-name="&#x41f;&#x440;&#x44f;&#x43c;&#x43e;&#x443;&#x433;&#x43e;&#x43b;&#x44c;&#x43d;&#x438;&#x43a; 69"/><path d="M11.626 43.544h4.703v4.703h-4.703z" data-name="&#x41f;&#x440;&#x44f;&#x43c;&#x43e;&#x443;&#x433;&#x43e;&#x43b;&#x44c;&#x43d;&#x438;&#x43a; 70"/><path d="M8.724 48.68h2.47v2.47h-2.47z" data-name="&#x41f;&#x440;&#x44f;&#x43c;&#x43e;&#x443;&#x433;&#x43e;&#x43b;&#x44c;&#x43d;&#x438;&#x43a; 71"/><path d="M43.671 11.753h4.703v4.703h-4.703z" data-name="&#x41f;&#x440;&#x44f;&#x43c;&#x43e;&#x443;&#x433;&#x43e;&#x43b;&#x44c;&#x43d;&#x438;&#x43a; 72"/><path d="M48.807 8.85h2.47v2.47h-2.47z" data-name="&#x41f;&#x440;&#x44f;&#x43c;&#x43e;&#x443;&#x433;&#x43e;&#x43b;&#x44c;&#x43d;&#x438;&#x43a; 73"/></g></symbol><symbol id="Vk" viewBox="0 0 20 11.878"><path fill-rule="evenodd" d="M19.541.8c.139-.464 0-.8-.662-.8h-2.187a.945.945 0 00-.952.619 18.3 18.3 0 01-2.689 4.474c-.51.51-.742.672-1.02.672-.139 0-.34-.162-.34-.626V.8c0-.556-.161-.8-.625-.8H7.627a.527.527 0 00-.557.5c0 .527.788.649.869 2.133v3.222c0 .706-.128.834-.406.834-.742 0-2.546-2.724-3.616-5.841-.21-.606-.42-.851-.979-.851H.75c-.625 0-.75.294-.75.619 0 .58.742 3.454 3.454 7.256a8.525 8.525 0 006.674 4c1.391 0 1.563-.313 1.563-.851V9.065c0-.625.132-.75.572-.75.325 0 .881.162 2.179 1.414 1.484 1.484 1.728 2.149 2.563 2.149h2.188c.625 0 .938-.313.757-.929a9.393 9.393 0 00-1.85-2.565c-.51-.6-1.275-1.252-1.507-1.576-.325-.417-.232-.6 0-.974.007 0 2.67-3.755 2.948-5.034z" data-name="Vk"/></symbol><symbol id="whatsapp" viewBox="0 0 20 20"><path d="M0 20l1.417-5A9.653 9.653 0 010 10 9.976 9.976 0 0110 0a9.924 9.924 0 0110 10 9.924 9.924 0 01-10 10 10.267 10.267 0 01-4.917-1.25zm5.417-3.083l.333.25a7.882 7.882 0 004.333 1.167A8.334 8.334 0 101.667 10 7.467 7.467 0 003 14.417l.25.333-.833 2.917z" data-name="&#x41a;&#x43e;&#x43d;&#x442;&#x443;&#x440; 566"/><path d="M7.246 4.929h-.668c-.25 0-.334.091-.584.274a3.75 3.75 0 00-1 1.645 5.7 5.7 0 001 3.929 10.832 10.832 0 005.675 4.568 2.276 2.276 0 002.338-.365 2.686 2.686 0 00.918-1.462l.082-.549c0-.183-.083-.365-.25-.365l-2.253-1.1c-.167-.091-.334 0-.334.091l-.918 1.188c-.083.091-.167.183-.334.091a7.1 7.1 0 01-3.505-3.381c-.083-.091 0-.274 0-.365l.835-1.1a.59.59 0 00.083-.365L7.58 5.112a.57.57 0 00-.334-.183z" data-name="&#x41a;&#x43e;&#x43d;&#x442;&#x443;&#x440; 567"/></symbol><symbol id="xlsx" viewBox="0 0 31.647 35"><path d="M2.48 0v35h29.165V5.832L25.813 0z" data-name="&#x41a;&#x43e;&#x43d;&#x442;&#x443;&#x440; 1536"/><path d="M25.813 0v5.832h5.833z" data-name="&#x41a;&#x43e;&#x43d;&#x442;&#x443;&#x440; 1537"/><g data-name="&#x421;&#x433;&#x440;&#x443;&#x43f;&#x43f;&#x438;&#x440;&#x43e;&#x432;&#x430;&#x442;&#x44c; 55"><g clip-path="url(#a)" data-name="&#x421;&#x433;&#x440;&#x443;&#x43f;&#x43f;&#x438;&#x440;&#x43e;&#x432;&#x430;&#x442;&#x44c; 54"><path d="M24.179 24.9H0V12.179a1.863 1.863 0 011.863-1.863H27.94a1.273 1.273 0 011.225 1.619l-3.318 11.7a1.735 1.735 0 01-1.668 1.265" data-name="&#x41a;&#x43e;&#x43d;&#x442;&#x443;&#x440; 1538"/><path d="M2.48 27.58V24.9H0z" data-name="&#x41a;&#x43e;&#x43d;&#x442;&#x443;&#x440; 1539"/><path d="M4.668 14.294l1.32 2.416 1.343-2.416h1.633L6.99 17.566 9 20.839H7.373l-1.385-2.356-1.372 2.356H2.98l1.994-3.273-1.943-3.272z" data-name="&#x41a;&#x43e;&#x43d;&#x442;&#x443;&#x440; 1540"/><path d="M10.55 12.112h1.4v8.727h-1.4z" data-name="&#x41f;&#x440;&#x44f;&#x43c;&#x43e;&#x443;&#x433;&#x43e;&#x43b;&#x44c;&#x43d;&#x438;&#x43a; 100"/><path d="M18.458 16.024l-1.406.153a1.1 1.1 0 00-.4-.586 1.3 1.3 0 00-.8-.232 1.457 1.457 0 00-.809.211.614.614 0 00-.319.539.569.569 0 00.212.467 1.719 1.719 0 00.713.292l1.115.239a2.814 2.814 0 011.383.637 1.52 1.52 0 01.458 1.135 1.805 1.805 0 01-.785 1.509 3.28 3.28 0 01-2.009.579 3.344 3.344 0 01-1.931-.5 2.023 2.023 0 01-.878-1.41l1.5-.145a1.047 1.047 0 00.434.667 1.507 1.507 0 00.867.228 1.576 1.576 0 00.879-.222.654.654 0 00.339-.562q0-.551-.882-.746l-1.116-.234q-1.849-.384-1.84-1.846a1.724 1.724 0 01.33-1.048 2.074 2.074 0 01.93-.694 3.676 3.676 0 011.384-.243 3.024 3.024 0 011.8.482 2.048 2.048 0 01.836 1.333" data-name="&#x41a;&#x43e;&#x43d;&#x442;&#x443;&#x440; 1541"/><path d="M21.133 14.294l1.321 2.416 1.346-2.416h1.632l-1.974 3.272 2.008 3.273h-1.627l-1.385-2.356-1.372 2.356h-1.636l1.994-3.273-1.94-3.272z" data-name="&#x41a;&#x43e;&#x43d;&#x442;&#x443;&#x440; 1542"/></g></g></symbol><symbol id="youtube-svgrepo-com" viewBox="0 0 20 14.152"><path d="M15.846 0H4.154A4.154 4.154 0 000 4.154v5.845a4.154 4.154 0 004.154 4.154h11.692A4.154 4.154 0 0020 9.999V4.154A4.154 4.154 0 0015.846 0zm-2.809 7.361L7.568 9.969a.22.22 0 01-.314-.2v-5.38a.22.22 0 01.319-.2l5.469 2.771a.22.22 0 01-.005.401z" data-name="youtube-svgrepo-com"/></symbol></svg>