<svg xmlns="http://www.w3.org/2000/svg" width="93.829" height="20"><g data-name="Сгруппировать 21"><g data-name="Сгруппировать 2"><path d="M1.96 10.081c-.08-3.96 6.159-3.96 6.079-.04a2.851 2.851 0 01-3.038 2.961 2.819 2.819 0 01-3.04-2.92m-.48-3.56a4.841 4.841 0 00-1.48 3.519v9a.981.981 0 001.96 0v-5a5.018 5.018 0 008.039-4 5.068 5.068 0 00-5.16-5.039 4.929 4.929 0 00-3.36 1.52" fill="#2446a8" data-name="Сгруппировать 1"/></g><g data-name="Сгруппировать 4"><path d="M11.481 1.002v13a1.008 1.008 0 001.72.72.907.907 0 00.28-.72v-13a.933.933 0 00-1-.96.956.956 0 00-1 .96" fill="#2446a8" data-name="Сгруппировать 3"/></g><g data-name="Сгруппировать 6"><path d="M22.837 10.001a2.941 2.941 0 11-5.879 0 2.928 2.928 0 013-3.04 2.853 2.853 0 012.88 3.04m-6.479-3.52c-4.4 4.319 1.72 11.2 6.559 7.519.04 1.24 2 1.32 1.96 0v-3.92a4.929 4.929 0 00-5.081-5.035 4.4 4.4 0 00-3.44 1.44" fill="#2446a8" data-name="Сгруппировать 5"/></g><g data-name="Сгруппировать 8"><path d="M26.077 8.002a2.808 2.808 0 002.92 3c2.24.32.24 3.4-1 1.44-1.48-2.24-2.96.56-.88 1.92 2.84 2.4 6.639-1.96 4-4.479-.76-.96-1.96-.6-2.84-1.2-1.16-1.12 1.08-2.56 1.64-1.2 1.8 2.72 3.52-2.28-.92-2.52h-.08a2.915 2.915 0 00-2.84 3.04" fill="#2446a8" data-name="Сгруппировать 7"/></g><g data-name="Сгруппировать 10"><path d="M36.317.004c-1.72-.08-.76 4.079-.96 5h-.44c-.84-.04-2-.08-2 1-.04 1.08 1.16 1.04 2 1h.4v7.039a.98.98 0 101.96 0V6.961h1.4a.933.933 0 00.96-1 .933.933 0 00-.96-1h-1.4c-.2-.84.76-4.959-.88-4.959h-.08" fill="#2446a8" data-name="Сгруппировать 9"/></g><g data-name="Сгруппировать 12"><path d="M40.755 5.961c.08.24-.28 8.959.28 8.759a.988.988 0 001.68-.72V5.961a.933.933 0 00-1-.96.944.944 0 00-.96.96m1.04-4.959a.933.933 0 00-.96 1 .933.933 0 00.96 1 .913.913 0 00.96-1 .981.981 0 00-.96-1" fill="#2446a8" data-name="Сгруппировать 11"/></g><g data-name="Сгруппировать 14"><path d="M44.317 1.002v13a1.008 1.008 0 001.72.72.907.907 0 00.28-.72v-13a.933.933 0 00-1-.96.956.956 0 00-1 .96" fill="#2446a8" data-name="Сгруппировать 13"/></g><g data-name="Сгруппировать 16"><path d="M47.835 5.961v8.041a.99.99 0 001 1 .957.957 0 00.96-1V5.961a.933.933 0 00-1-.96.922.922 0 00-.96.96m1-4.959a.933.933 0 00-.96 1 .933.933 0 00.96 1 .913.913 0 00.96-1 .933.933 0 00-.96-1" fill="#2446a8" data-name="Сгруппировать 15"/></g><g data-name="Сгруппировать 18"><path d="M51.274 14.001c-.04 1.28 2.04 1.28 1.96 0v-4c-.08-3.96 6.159-3.92 6.079 0v4a.98.98 0 001.96 0c.24-3.919.2-8.879-5.039-9.039-5.119.16-5.159 5.079-4.959 9.039" fill="#2446a8" data-name="Сгруппировать 17"/></g></g><g data-name="Сгруппировать 19" fill="#e55030"><path data-name="Контур 1" d="M79.151 14.001c.08 1.32-1.92 1.24-1.96 0-4.839 3.72-10.958-3.2-6.559-7.519 2.96-3.2 8.719-.84 8.519 3.56v3.959zm-4.919-.96c3.88.12 3.84-6.119 0-6.039-3.919-.12-4.079 6.159 0 6.039"/><path data-name="Контур 2" d="M82.511 14a.98.98 0 01-1.96 0v-4c-.64-2.76 5-7.119 6.039-4.039a1.016 1.016 0 01-1 1c-3.72-.08-3.04 4.639-3.08 7.039"/><path data-name="Контур 3" d="M92.869 5.006a.98.98 0 010 1.96h-1.4v7.039a1.016 1.016 0 01-1 1 .981.981 0 01-.96-1V6.961c-.8 0-2.44.24-2.4-1-.04-1.24 1.64-.96 2.4-.96.24-.92-.76-5.079.96-5 1.72-.12.76 4.079 1 5z"/></g><g data-name="Сгруппировать 20" fill="#fff"><path data-name="Контур 4" d="M13.839 19.92h-.36l-.6-2.08a.8.8 0 01-.08-.36l-.08-.24a3.33 3.33 0 01-.16.6l-.6 2.08h-.36l-.84-3.08h.4l.48 1.92a5.138 5.138 0 01.16.76 5.146 5.146 0 01.16-.76l.56-1.88h.4l.56 1.92a3.61 3.61 0 01.16.76c.04-.2.08-.44.16-.76l.48-1.92h.4z"/><path data-name="Контур 5" d="M23.038 19.92h-1.72v-3.08h1.72v.32h-1.36v1h1.28v.32h-1.28v1.12h1.36z"/><path data-name="Контур 6" d="M29.917 16.84h.88a1.847 1.847 0 01.92.2.605.605 0 01.28.56.728.728 0 01-.16.44.673.673 0 01-.44.24v.04c.48.08.72.32.72.76a.746.746 0 01-.28.64 1.153 1.153 0 01-.76.24h-1.08zm.32 1.32h.56a1.059 1.059 0 00.56-.12.611.611 0 00.16-.4.555.555 0 00-.2-.4 1.059 1.059 0 00-.56-.12h-.52zm0 .32v1.16h.64a.782.782 0 00.56-.16.516.516 0 00.2-.44.441.441 0 00-.2-.4 1.059 1.059 0 00-.56-.12z"/><path data-name="Контур 7" d="M47.954 19.12a.8.8 0 01-.28.64 1.194 1.194 0 01-.8.24 2.337 2.337 0 01-.84-.12v-.36a1.175 1.175 0 00.4.12 1.64 1.64 0 00.44.04 1.161 1.161 0 00.56-.12.492.492 0 00.2-.4.428.428 0 00-.08-.24c-.04-.08-.12-.12-.24-.2a1.535 1.535 0 00-.44-.2 1.4 1.4 0 01-.6-.36.791.791 0 01-.2-.56.726.726 0 01.24-.56 1.287 1.287 0 01.72-.24 2.847 2.847 0 01.84.16l-.08.32a2.582 2.582 0 00-.76-.16.643.643 0 00-.44.12.507.507 0 00-.16.36.429.429 0 00.08.24.471.471 0 00.2.2 1.842 1.842 0 00.4.2 1.522 1.522 0 01.68.4.676.676 0 01.16.48z"/><path data-name="Контур 8" d="M55.673 19.92h-.36v-2.76h-.96v-.32h2.32v.32h-.96l-.04 2.76z"/><path data-name="Контур 9" d="M65.632 16.84v2a1.008 1.008 0 01-.32.84 1.293 1.293 0 01-.88.28 1.167 1.167 0 01-.88-.28 1.127 1.127 0 01-.28-.84v-2h.36v2.04a.671.671 0 00.24.56.9.9 0 00.6.2.982.982 0 00.6-.2.836.836 0 00.24-.6V16.8l.32.04z"/><path data-name="Контур 10" d="M75.111 18.32a1.462 1.462 0 01-.4 1.16 1.8 1.8 0 01-1.2.4h-.88V16.8h.92a1.425 1.425 0 011.12.4 1.506 1.506 0 01.44 1.12zm-.4.04a1.068 1.068 0 00-1.2-1.24h-.52v2.48h.44a1.22 1.22 0 00.96-.32 1.129 1.129 0 00.32-.92z"/><path data-name="Контур 11" d="M81.95 19.92v-3.08h.36v3.08z"/><path data-name="Контур 12" d="M92.029 18.36a1.578 1.578 0 01-.4 1.16 1.3 1.3 0 01-1.04.4 1.448 1.448 0 01-1.08-.4 1.8 1.8 0 01-.4-1.2 1.462 1.462 0 01.4-1.16 1.335 1.335 0 011.08-.4 1.248 1.248 0 011.04.4 1.678 1.678 0 01.4 1.2zm-2.48 0a1.618 1.618 0 00.24.96.9.9 0 00.76.32.81.81 0 00.76-.32 1.706 1.706 0 00.24-.96 1.409 1.409 0 00-.24-.92.907.907 0 00-.76-.32.81.81 0 00-.76.32 1.812 1.812 0 00-.24.92z"/></g></svg>