<svg xmlns="http://www.w3.org/2000/svg" width="515" height="250"><defs><clipPath id="a"><rect width="515" height="250" rx="10" fill="#fff"/></clipPath><clipPath id="b"><path data-name="Прямоугольник 104" transform="translate(0 -.001)" fill="#fff" d="M0 0h206v206H0z"/></clipPath></defs><g opacity=".3" clip-path="url(#a)"><path data-name="Контур 1543" d="M551.982 204.307l-8.915 8.915-8.914-8.915 8.914-8.915zm2.439 0l-11.349-11.354-11.354 11.354 11.354 11.353z" fill="#fff"/><path data-name="Контур 1544" d="M562.486 200.78l3.525 3.525-3.525 3.525-3.525-3.525zm5.964 3.525l-5.964-5.964-5.964 5.964 5.964 5.964z" fill="#fff"/><path data-name="Контур 1545" d="M397.848 203.694l-8.917 8.917-8.917-8.917 8.917-8.917zm2.439 0l-11.356-11.357-11.357 11.356 11.356 11.358z" fill="#fff"/><path data-name="Контур 1546" d="M369.518 200.169l3.525 3.525-3.526 3.525-3.525-3.525zm0-2.439l-5.964 5.964 5.964 5.965 5.964-5.964z" fill="#fff"/><path data-name="Контур 1547" d="M475.224 126.926l-8.915 8.915-8.914-8.915 8.915-8.915zm2.439 0l-11.354-11.351-11.352 11.351 11.354 11.354z" fill="#fff"/><path data-name="Контур 1548" d="M466.309 103.992l3.525 3.525-3.525 3.525-3.525-3.525zm0-2.439l-5.965 5.964 5.964 5.964 5.965-5.964z" fill="#fff"/><g data-name="Сгруппировать 99"><g data-name="Сгруппировать 98" clip-path="url(#b)" fill="#fff" transform="rotate(90 234 335)"><path data-name="Контур 1549" d="M118.656 31.234l4.962 5.121-17.085 16.553-.525.508v11.6l2.924-2.832 9.722-9.413 3.069 3.175.508.526h5.185v16.289l2.944-2.947 4.641-4.644.5-.505V41.25h7.143v21.73l1.7.026 20.471.315-.112 7.136-23.775-.376-.73-.011-.516.516-4.8 4.8-2.882 2.88 4.073.065 13.528.215-.067 4.424-.011.729.515.516 3.149 3.151-8.578 8.572-2.947 2.945h11.447l.5-.5 16.056-16.053 5.044 5.044-14.154 14.168-1.2 1.2 1.18 1.219 14.24 14.7-5.115 4.961-16.551-17.085-.509-.524H141l2.833 2.924 9.414 9.719-3.176 3.076-.525.508v5.18h-16.29l2.944 2.944 4.644 4.644.5.5h23.416v7.137h-21.727l-.026 1.7-.315 20.472-7.136-.111.382-23.777.012-.732-.518-.517-4.812-4.8-2.878-2.872-.065 4.065-.215 13.526-4.422-.071-.731-.012-.517.517-3.152 3.152-8.574-8.575-2.944-2.944v11.442l.505.505 16.056 16.053-5.042 5.042-14.148-14.167-1.2-1.2-1.22 1.182-14.704 14.245-4.963-5.121 17.083-16.557.524-.508v-11.6l-2.925 2.833-9.72 9.414-3.079-3.177-.508-.524h-5.172v-16.284l-2.944 2.942-4.647 4.644-.506.505v23.417h-7.137v-21.733l-1.7-.026-20.471-.315.115-7.136 23.775.376.73.011.516-.516 4.8-4.8 2.882-2.88-4.074-.065-13.53-.215.079-4.419.013-.733-.519-.518-3.153-3.148 8.567-8.574 2.942-2.944h-11.43l-.505.5-16.06 16.056-5.038-5.043 14.15-14.169 1.2-1.2-1.18-1.219-14.242-14.7 5.121-4.963 16.557 17.08.508.524h11.6l-2.835-2.925-9.419-9.719 3.178-3.076.525-.508v-5.18h16.285l-2.942-2.944-4.641-4.644-.5-.506H41.256v-7.133h21.712l.026-1.7.315-20.47 7.137.113-.373 23.775-.011.73.516.516 4.8 4.808 2.879 2.883.065-4.074.218-13.526 4.423.071.731.012.517-.517 3.152-3.152 8.578 8.572 2.944 2.942V52.894l-.505-.505-16.06-16.056 5.043-5.043 14.168 14.168 1.2 1.2 1.219-1.181zm-2.626 52.918l.954-.954 2.793-2.794.5-.505V61.108l-2.925 2.838-10.829 10.5-.524.508v5.374l1.4.267a22.643 22.643 0 017.468 2.856l1.156.7m-26.935.706l1.178-.793a22.707 22.707 0 017.3-3.232l1.314-.322v-6.066l-.5-.5-9.9-9.9-2.878-2.878-.067 4.069-.246 15.087-.012.731.518.517 2.295 2.291 1 1m36.559 14.038h5.93l.505-.506 9.886-9.9 2.876-2.881-4.071-.062-15.07-.229-.73-.011-.516.516-2.22 2.22-1.01 1.01.8 1.18a22.783 22.783 0 013.289 7.357l.325 1.309m-50.714 1.089h5.333l.278-1.386a22.8 22.8 0 012.915-7.44l.709-1.16-.962-.961-2.831-2.827-.5-.5H61.109l2.832 2.925L74.428 99.47l.508.525m51.169 20.3h18.77l-2.835-2.925-10.491-10.825-.508-.525h-5.2l-.269 1.4a22.751 22.751 0 01-2.918 7.566l-.705 1.159.961.959 2.694 2.687.5.5m-45.062.407l.516-.517 2.209-2.213 1-1-.789-1.177a22.518 22.518 0 01-3.217-7.357l-.315-1.326h-6.011l-.505.5-9.9 9.9-2.882 2.882 4.076.062 15.091.229.731.011m39.342 24.146l.062-4.076.228-15.087.011-.73-.516-.516-2.137-2.138-1.006-1.006-1.179.8a22.72 22.72 0 01-7.431 3.276l-1.321.318v5.871l.505.505 9.9 9.9 2.882 2.882m-34.688.047l2.926-2.839 10.832-10.511.524-.508v-5.185l-1.389-.276a22.722 22.722 0 01-7.53-2.959l-1.16-.716-.964.964-2.732 2.732-.505.505v18.792m32.995-116.087l-15.944 15.442-15.388-15.387-7.482 7.482 17.28 17.276v6.56l-9.8-9.791-4.371 4.371-6.147-.1-.246 15.251-4.8-4.808.4-25.5-10.588-.166-.341 22.2H39.531v10.582h24.43l4.641 4.644H54.755v6.174l-4.418 4.276 10.62 10.958h-6.8L36.4 79.944l-7.6 7.363 15.442 15.94-15.365 15.387 7.475 7.482 17.28-17.276h6.557l-9.787 9.794 4.375 4.368-.109 6.147 15.258.243-4.8 4.8-25.5-.4-.171 10.586 22.2.341v21.759h10.586V142.05l4.647-4.644v13.847h6.171l4.279 4.415 10.958-10.613v6.8l-18.329 17.753 7.362 7.6 15.944-15.442 15.367 15.387 7.482-7.482-17.276-17.273v-6.563l9.794 9.794 4.371-4.371 6.147.1.242-15.251 4.809 4.801-.41 25.5 10.586.164.341-22.2h21.759V133.79h-24.421l-4.644-4.644h13.851v-6.174l4.415-4.276-10.614-10.958h6.8l17.757 18.321 7.592-7.363-15.439-15.94 15.372-15.388-7.482-7.482-17.279 17.272h-6.564l9.8-9.791-4.368-4.371.092-6.147-15.251-.243 4.8-4.8 25.5.4.167-10.586-22.2-.341V39.525h-10.588v24.427l-4.641 4.644V54.749h-6.178l-4.269-4.415-10.962 10.613v-6.8l18.324-17.757zm-2.93 53.183a24.438 24.438 0 00-8.036-3.071v-3.216l10.829-10.5v14zm-26.455.656l-2.295-2.291.246-15.087 9.9 9.9v4a24.509 24.509 0 00-7.854 3.476m37.694 14.537a24.586 24.586 0 00-3.538-7.912l2.22-2.22 15.07.229-9.886 9.9zm-51.332 1.089L65.182 87.43h13.981l2.831 2.828a24.592 24.592 0 00-3.135 8zm51.151 20.3l-2.694-2.687a24.559 24.559 0 003.138-8.138h3.049l10.49 10.825zm-46.48.4l-15.091-.229 9.9-9.9h3.934a24.313 24.313 0 003.463 7.919zm38.383 21.78l-9.9-9.9v-3.8a24.517 24.517 0 007.994-3.524l2.138 2.138zm-31.3.072v-14l2.732-2.732a24.529 24.529 0 008.1 3.183v3.039z"/><path data-name="Контур 1550" d="M180.071 94.388l8.917 8.917-8.917 8.917-8.917-8.917zm0-2.439l-11.356 11.356 11.356 11.357 11.357-11.356z"/><path data-name="Контур 1551" d="M199.482 99.78l3.525 3.525-3.525 3.525-3.525-3.525zm0-2.439l-5.964 5.964 5.964 5.964 5.964-5.964z"/><path data-name="Контур 1552" d="M55.021 54.592H42.41V41.981h12.611zm1.725-14.335h-16.06v16.06h16.057z"/><path data-name="Контур 1553" d="M37.485 37.053H32.5v-4.982h4.985zm1.725-6.71h-8.435v8.435h8.435z"/><path data-name="Контур 1554" d="M163.589 164.015h-12.61v-12.611h12.611zm1.725-14.335h-16.06v16.06h16.06z"/><path data-name="Контур 1555" d="M173.499 173.928h-4.985v-4.986h4.985zm1.725-6.71h-8.435v8.435h8.435z"/><path data-name="Контур 1556" d="M54.59 163.584H41.979v-12.611H54.59zm1.725-14.335H40.259v16.06h16.06z"/><path data-name="Контур 1557" d="M37.055 173.498H32.07v-4.985h4.985zm1.725-6.71h-8.435v8.435h8.434z"/><path data-name="Контур 1558" d="M164.02 55.022h-12.611v-12.61h12.611zm1.725-14.335h-16.06v16.06h16.064z"/><path data-name="Контур 1559" d="M173.933 37.483h-4.985v-4.985h4.985zm1.725-6.71h-8.435v8.435h8.435z"/></g></g></g></svg>