<svg id="_лой_1" data-name="Слой 1" xmlns="http://www.w3.org/2000/svg" viewBox="0 0 204.9 204.89"><defs><style>.cls-1{fill:#fff}</style></defs><path class="cls-1" d="M168.16 102.75l11.35 11.35 11.35-11.35-11.35-11.35-11.35 11.35zm11.35 8.92l-8.91-8.92 8.91-8.91 8.91 8.91-8.91 8.92zm19.42-14.88l-5.96 5.96 5.96 5.96 5.96-5.96-5.96-5.96zm-3.53 5.96l3.53-3.52 3.52 3.52-3.52 3.53-3.53-3.53zM25.38 90.78l-11.36 11.36 11.36 11.36 11.36-11.36-11.36-11.36zm-8.92 11.36l8.92-8.92 8.92 8.92-8.92 8.92-8.92-8.92zm-16.46 0l5.96 5.96 5.96-5.96-5.96-5.96L0 102.14zm5.96 3.52l-3.53-3.52 3.53-3.53 3.53 3.53-3.53 3.52zm108.15-80.29l-11.35-11.35-11.35 11.35 11.35 11.35 11.35-11.35zm-20.27 0l8.91-8.91 8.91 8.91-8.91 8.92-8.91-8.92zM60.56 85.15zm69.93 20.3h-5.37l-.27 1.4c-.5 2.64-1.47 5.17-2.86 7.47l-.7 1.16.95.96 2.79 2.79.51.5h18.79l-2.84-2.93-10.5-10.83-.51-.52zm-4.24 12.56l-2.79-2.79c1.49-2.48 2.53-5.2 3.07-8.04h3.22l10.5 10.83h-14zm-20.8-43.63h.01-.01zm38.83 10.67l-4.07-.07-15.09-.25h-.73l-.52.51-2.29 2.29-1 1 .79 1.18c1.5 2.22 2.59 4.69 3.23 7.3l.32 1.31h6.07l.5-.5 9.9-9.9 2.88-2.88zm-13.99 11.56h-4c-.69-2.8-1.86-5.46-3.48-7.85l2.29-2.29 15.09.25-9.9 9.9zm-12.89 25.08l-1.01-1.01-1.18.8a22.902 22.902 0 01-7.36 3.29l-1.31.32v5.94l.51.51 9.9 9.89 2.88 2.88.06-4.07.23-15.07v-.73l-.51-.52-2.22-2.22zm.78 18.51l-9.9-9.89v-3.87c2.82-.7 5.5-1.9 7.91-3.54l2.22 2.22-.23 15.07zm-27.72-18.1l-1.16-.71-.96.96-2.69 2.69-.5.5v18.77l2.92-2.83 10.83-10.49.53-.51v-5.2l-1.4-.27a22.69 22.69 0 01-7.57-2.92zm7.25 7.66l-10.83 10.49v-13.98l2.69-2.69c2.5 1.52 5.26 2.59 8.14 3.14v3.05zM74.42 99.43h5.18l.28-1.39c.53-2.67 1.53-5.22 2.96-7.53l.72-1.16-.96-.96-2.73-2.73-.51-.51H60.57l2.84 2.92L73.92 98.9l.51.52zm4.21-12.56l2.73 2.73a24.424 24.424 0 00-3.18 8.1h-3.04L64.63 86.87h14zm8.85-3.66l1 1 1.18-.79c2.24-1.5 4.73-2.59 7.36-3.22l1.33-.32v-6.01l-.5-.51-9.9-9.9-2.88-2.88-.06 4.08-.23 15.09v.73h-.02l.52.51 2.21 2.21zm-.76-18.52l9.9 9.9v3.93c-2.83.67-5.51 1.84-7.92 3.46l-2.21-2.21.23-15.09zm20.12 15.3c2.63.53 5.15 1.51 7.44 2.91l1.16.71.96-.96 2.83-2.83.5-.5V60.56l-2.92 2.83-10.83 10.49-.52.5v5.33l1.39.28zm11.17-15.36v13.98l-2.83 2.83a24.56 24.56 0 00-8-3.14v-3.19l10.83-10.49zm-37.92 43.24l-.32-1.32H73.9l-.51.51-9.9 9.9-2.88 2.88 4.08.06 15.09.23h.73l.52-.51 2.14-2.14 1.01-1.01-.8-1.18a22.81 22.81 0 01-3.28-7.43zm-.29 10.53l-15.09-.23 9.9-9.9h3.8c.69 2.85 1.88 5.56 3.52 7.99l-2.14 2.14z"/><path class="cls-1" d="M176.59 86.81l-7.48-7.48-17.28 17.28h-6.56l9.79-9.8-4.37-4.37.1-6.15-15.25-.25 4.81-4.8 25.5.4.17-10.59-22.2-.34V38.97h-10.58V63.4l-4.64 4.64V54.19h-6.17l-4.28-4.42-10.96 10.62v-6.8l18.32-17.76-7.36-7.6-15.94 15.44L86.82 28.3l-7.48 7.48 17.28 17.28v6.56l-9.79-9.79-4.37 4.38-6.15-.11-.24 15.26-4.8-4.8.4-25.5-10.59-.17-.34 22.2H38.98v10.59h24.43l4.64 4.65H54.2v6.17l-4.41 4.28L60.4 97.74h-6.8L35.85 79.41l-7.6 7.36 15.44 15.94-15.39 15.37 7.48 7.48 17.27-17.28h6.56l-9.79 9.79 4.37 4.37-.1 6.15 15.25.24-4.8 4.81-25.5-.41-.16 10.59 22.2.34v21.76h10.58V141.5l4.64-4.64v13.85h6.17l4.28 4.41 10.96-10.61v6.8l-18.32 17.76 7.36 7.59 15.94-15.44 15.39 15.37 7.48-7.48-17.27-17.28v-6.56l9.79 9.8 4.37-4.37 6.15.09.24-15.25 4.8 4.8-.4 25.5 10.59.17.34-22.2h21.75v-10.59h-24.43l-4.64-4.64h13.85v-6.18l4.42-4.27-10.61-10.96h6.8l17.76 18.32 7.59-7.36-15.44-15.94 15.39-15.39zm-2.38 31.29l-5.12 4.96-16.55-17.09-.51-.52h-11.6l2.83 2.92 9.41 9.72-3.17 3.07-.53.51v5.18h-16.29l2.95 2.94 4.64 4.64.5.5h23.42v7.14h-21.73l-.03 1.7-.32 20.47-7.14-.11.38-23.78v-.73l-.51-.52-4.8-4.8-2.88-2.88-.07 4.07-.22 13.53-4.42-.07h-.73l-.52.5-3.15 3.15-8.57-8.58-2.95-2.95v11.45l.5.5 16.05 16.06-5.04 5.04-14.17-14.15-1.2-1.2-1.22 1.18-14.7 14.24-4.96-5.11 17.09-16.55.52-.51v-11.6l-2.92 2.83-9.72 9.41-3.08-3.18-.51-.53h-5.18v-16.29l-2.94 2.94-4.64 4.64-.5.5v23.42h-7.14v-21.73l-1.7-.03-20.47-.32.11-7.14 23.78.38h.73l.52-.51 4.8-4.81 2.87-2.88-4.07-.07-13.53-.21.07-4.42v-.73l-.51-.52-3.15-3.15 8.58-8.57 2.94-2.94H52.3l-.51.51-16.05 16.06-5.04-5.04 14.17-14.15 1.2-1.2-1.18-1.22-14.24-14.7 5.12-4.96 16.56 17.08.51.52h11.6l-2.83-2.92-9.41-9.72 3.18-3.08.52-.51v-5.17h16.28l-2.94-2.94-4.64-4.65-.51-.51H40.67v-7.14H62.4l.03-1.7.32-20.47 7.14.11-.38 23.78v.73l.51.52 4.8 4.8 2.88 2.88.07-4.07.21-13.53 4.42.08h.73l.52-.51 3.15-3.15 8.57 8.57 2.94 2.94V52.32l-.5-.51-16.06-16.06 5.04-5.04 14.17 14.15 1.2 1.2 1.22-1.18 14.7-14.24 4.96 5.12-17.08 16.56-.52.51v11.6l2.92-2.84 9.72-9.42 3.08 3.18.51.53h5.18v16.28l2.94-2.94 4.64-4.64.51-.5V40.66h7.13v21.71l1.7.03 20.47.32-.11 7.14-23.77-.37h-.73l-.52.51-4.81 4.8-2.88 2.88 4.07.07 13.53.22-.07 4.42v.73l.51.52 3.15 3.15-8.57 8.58-2.94 2.94h11.44l.51-.51 16.06-16.06 5.04 5.04-14.17 14.17-1.2 1.2 1.18 1.22 14.24 14.71zM108.72 5.96L102.76 0l-5.97 5.96 5.96 5.96 5.97-5.96zm-5.96-3.52l3.52 3.52-3.52 3.53-3.53-3.53 3.53-3.52z"/><path class="cls-1" d="M90.78 179.52l11.36 11.36 11.36-11.36-11.36-11.36-11.36 11.36zm11.36 8.92l-8.92-8.92 8.92-8.92 8.92 8.92-8.92 8.92zm-5.96 10.49l5.96 5.96 5.96-5.96-5.96-5.96-5.96 5.96zm5.96 3.53l-3.53-3.53 3.53-3.53 3.52 3.53-3.52 3.53zm63.05-162.33h-16.06v16.06h16.06V40.13zm-1.72 14.34h-12.61V41.86h12.61v12.61zm11.63-24.25h-8.43v8.43h8.43v-8.43zm-1.73 6.71h-4.98v-4.98h4.98v4.98zM39.71 164.76h16.06V148.7H39.71v16.06zm1.72-14.33h12.61v12.61H41.43v-12.61zm-11.64 24.24h8.43v-8.43h-8.43v8.43zm1.73-6.71h4.99v4.98h-4.99v-4.98zM56.2 39.71H40.14v16.06H56.2V39.71zm-1.72 14.33H41.87V41.43h12.61v12.61zM38.66 29.79h-8.43v8.43h8.43v-8.43zm-1.73 6.71h-4.98v-4.98h4.98v4.98zM148.7 165.2h16.06v-16.06H148.7v16.06zm1.72-14.34h12.61v12.61h-12.61v-12.61zm15.82 24.24h8.43v-8.43h-8.43v8.43zm1.72-6.71h4.99v4.98h-4.99v-4.98z"/></svg>