<svg aria-hidden="true" style="position:absolute;width:0;height:0" xmlns="http://www.w3.org/2000/svg" overflow="hidden"><defs><symbol id="icon-404" viewBox="0 0 32 32"><path fill="var(--color1, #161615)" d="M26.574 10.083l-4.756 7.481v2.494h5.749v1.847h3.071v-1.847H32v-2.494h-1.362v-7.481z"/><path fill="var(--color2, #f8f9fa)" d="M30.638 13.591c-.183.765-.435 1.314-.752 1.628-.002-.009-.003-.016-.006-.023v.001c-.057-.161-.286-.055-.394-.009-.214.091-.338.103-.441-.019a.727.727 0 01-.096-.165l-.002-.005a.703.703 0 00.093-.074c-.053-.153-.187-.477-.248-.626l-.001-.004-.001-.008c-.032-.288-.356-.592-.587-.83q-.058-.06-.114-.122a.017.017 0 01-.01.003l-.007-.002a.014.014 0 01-.008-.009l-.001-.005.002-.007.003-.004-.097-.112-.005.003h-.001l-.005.001a.016.016 0 01-.015-.011l-.001-.006.002-.007.004-.005c-.129-.153-.251-.312-.374-.47h-.003a.016.016 0 01-.009-.003.017.017 0 01-.007-.014l.002-.007-.028-.036c-.263.049-.527.099-.786.162-.383.092-.539.169-.574.272-.031.092-.023.15.066.358.052.107.096.233.126.364l.003.013a.946.946 0 01.01.229v-.003a.774.774 0 01-.023.105l.001-.005.003.001a.022.022 0 00-.005.004l-.003.006c-.015-.004-.024-.006-.037.008a.247.247 0 00-.038.091v.002c-.026.085-.027.097-.011.105h.001l.011-.002c-.001.004-.003.007-.003.011l-.017.059c-.015-.002-.026-.005-.038.008a.404.404 0 00-.029.085v.002c-.026.084-.033.095-.016.105l.016-.002-.003.012-.022.07a.022.022 0 00-.01.009l-.01-.001a.037.037 0 00-.031.016.485.485 0 00-.028.079l-.001.003c-.028.088-.032.09-.011.107l.013-.005h.001l-.005.014-.018.057-.033.035c-.002.002-.005.004-.006.007l-.013.013a.536.536 0 00-.045.093l-.001.004c-.022.045-.018.056 0 .069l.007.004h.003l.005-.001v.002a.604.604 0 01-.017.04.115.115 0 00-.014.043v.001a.058.058 0 00-.015.011c-.056-.008-.065.074-.093.114-.028.048-.029.062.002.075h.015a.235.235 0 01-.021.042l.001-.001a.17.17 0 00-.014.027l-.001.002a.044.044 0 00-.011.008h-.005a.054.054 0 00-.05.031.859.859 0 01-.05.077l.002-.002c-.03.042-.029.068.004.075l.004.001.016-.001a.845.845 0 01-.027.039.143.143 0 00-.012.021v.001a.043.043 0 00-.046.014l-.009-.001a.04.04 0 00-.039.029.514.514 0 01-.042.074l.001-.002c-.042.048-.019.06-.001.072l.022.001c-.007.013-.014.027-.023.04l-.004.006a2.37 2.37 0 01-.084.09l-.038.039a.019.019 0 01.002.007v.003c-.001.008-.008.015-.016.015h-.002l-.006-.002a1.633 1.633 0 00-.078.088l-.002.002a.312.312 0 00.016.378v-.001c.024.03.058.052.097.061h.001v.002c-.015.095.022.148.104.152h.012l.024-.001h-.001a1.074 1.074 0 00-.004.351l-.001-.006-.008.046h.035l-.008.06.056-.015.003.062.059-.017.015.058.057-.033.023.053.049-.035.022.044.032-.029c.052-.003.1-.008.147-.017l-.007.001c.336-.085.631-.218.895-.395l-.01.007 2.613-1.463a.999.999 0 00.19-.111l-.003.002c.417-.267.708-.833.908-1.542zm-3.945 3.05c-.014.185-.501.41-.7.437h-.001c-.121.017-.169-.043-.184-.116a.358.358 0 01-.003-.119v.002-.003l.001-.008.005-.032.027-.011c.211-.082.497-.215.745-.339.059.045.105.078.11.153l.001.016-.001.02v-.001zm1.786-.9l-1.086.619a.686.686 0 01-.346.128h-.003c-.08-.011-.096-.095-.147-.2a1.149 1.149 0 00.475-.442l.003-.005c.206-.286.439-.533.702-.746l.007-.006c.085.099.174.189.268.272l.003.003a2.04 2.04 0 00.301-.169l-.007.004c.228.277.099.389-.17.543z"/><path fill="var(--color1, #161615)" d="M17.606 21.905h-3.212a3.029 3.029 0 01-3.029-3.029v-5.763a3.029 3.029 0 013.029-3.029h3.212a3.029 3.029 0 013.029 3.029v5.763a3.029 3.029 0 01-3.029 3.029z"/><path fill="var(--color2, #f8f9fa)" d="M16.251 17.987h-.525a.302.302 0 01-.302-.302v-3.399c0-.167.135-.302.302-.302h.525c.167 0 .302.135.302.302v3.399a.302.302 0 01-.302.302z"/><path fill="var(--color1, #161615)" d="M4.756 10.083L0 17.564v2.494h5.749v1.847H8.82v-1.847h1.362v-2.494H8.82v-7.481z"/><path fill="var(--color2, #f8f9fa)" d="M8.82 13.591c-.183.765-.435 1.314-.752 1.628l-.006-.023v.001c-.057-.161-.286-.055-.394-.009-.214.091-.338.103-.441-.019a.727.727 0 01-.096-.165l-.002-.005a.703.703 0 00.093-.074c-.053-.153-.187-.477-.248-.626l-.001-.004-.001-.008c-.032-.288-.356-.592-.587-.83q-.058-.06-.114-.122a.017.017 0 01-.01.003l-.007-.002a.014.014 0 01-.008-.009l-.001-.005.002-.007.003-.004-.097-.112-.005.003h-.001l-.005.001a.016.016 0 01-.015-.011l-.001-.006.002-.007.004-.005c-.129-.153-.251-.312-.374-.47h-.003a.016.016 0 01-.009-.003.017.017 0 01-.007-.014l.002-.007-.028-.036c-.263.049-.527.099-.786.162-.383.092-.539.169-.574.272-.031.092-.023.15.066.358.051.107.096.233.126.364l.003.013a.946.946 0 01.01.229v-.003a.774.774 0 01-.023.105l.001-.005.003.001a.022.022 0 00-.005.004l-.003.006c-.015-.004-.024-.006-.037.008a.247.247 0 00-.038.091v.002c-.026.085-.027.097-.011.105h.001l.011-.002c-.001.004-.003.007-.003.011l-.017.059c-.015-.002-.026-.005-.038.008a.404.404 0 00-.029.085v.002c-.026.084-.033.095-.016.105l.016-.002-.003.012-.022.07a.022.022 0 00-.01.009l-.01-.001a.037.037 0 00-.031.016.485.485 0 00-.028.079l-.001.003c-.028.088-.032.09-.011.107l.013-.005h.001l-.005.014-.018.057-.033.035c-.002.002-.005.004-.006.007l-.013.013a.536.536 0 00-.045.093l-.001.004c-.022.045-.018.056 0 .069l.007.004h.003l.005-.001v.002a.604.604 0 01-.017.04.115.115 0 00-.014.043v.001a.058.058 0 00-.015.011c-.056-.008-.065.074-.093.114-.028.048-.029.062.002.075h.015a.235.235 0 01-.021.042l.001-.001a.17.17 0 00-.014.027l-.001.002a.044.044 0 00-.011.008h-.005a.054.054 0 00-.05.031.859.859 0 01-.05.077l.002-.002c-.03.042-.029.068.004.075l.004.001.016-.001a.845.845 0 01-.027.039.143.143 0 00-.012.021v.001a.043.043 0 00-.046.014l-.009-.001a.04.04 0 00-.039.029.514.514 0 01-.042.074l.001-.002c-.042.048-.019.06-.001.072l.022.001c-.007.013-.014.027-.023.04l-.004.006a2.37 2.37 0 01-.084.09l-.038.039a.019.019 0 01.002.007v.003c-.001.008-.008.015-.016.015h-.002l-.006-.002a1.633 1.633 0 00-.078.088l-.002.002a.312.312 0 00.016.378v-.001c.024.03.058.052.097.061h.001v.002c-.015.095.022.148.104.152h.012l.024-.001h-.001a1.074 1.074 0 00-.004.351l-.001-.006-.008.046h.035l-.008.06.056-.015.003.062.059-.017.015.058.057-.033.023.053.049-.035.022.044.032-.029c.052-.003.1-.008.147-.017l-.007.001c.336-.085.631-.218.895-.395l-.01.007 2.613-1.463a.999.999 0 00.19-.111l-.003.002c.417-.267.708-.833.908-1.542zm-3.945 3.05c-.014.185-.501.41-.7.437h-.001c-.121.017-.169-.043-.184-.116a.358.358 0 01-.003-.119v.002-.003l.001-.008.005-.032.027-.011c.211-.082.497-.215.745-.339.059.045.104.078.11.153l.001.016-.001.02v-.001zm1.787-.9l-1.086.619a.686.686 0 01-.346.128h-.003c-.08-.011-.096-.095-.147-.2.055-.031.103-.058.138-.081.139-.096.253-.219.337-.361l.003-.005c.206-.286.439-.533.702-.746l.007-.006c.085.099.174.189.268.272l.003.003a2.04 2.04 0 00.301-.169l-.007.004c.228.277.099.389-.17.543z"/></symbol><symbol id="icon-burger" viewBox="0 0 32 32"><path d="M0 2.667h32v1.999H0V2.667zM0 15h19.2v1.999H0V15zm0 12.333h32v2H0v-2z"/></symbol><symbol id="icon-calendar" viewBox="0 0 32 32"><path fill="var(--color3, #848788)" d="M28.114 0H3.885A3.886 3.886 0 00-.001 3.886v24.229a3.886 3.886 0 003.886 3.886h24.229A3.886 3.886 0 0032 28.115V3.886A3.886 3.886 0 0028.114 0zm.457 28.114a.458.458 0 01-.457.457H3.885a.458.458 0 01-.457-.457V9.143h25.143zm0-22.4H3.428V3.885c0-.252.205-.457.457-.457h24.229c.252 0 .457.205.457.457z"/><path fill="var(--color3, #848788)" d="M6.729 12.923h3.429v3.429H6.729v-3.429zm15.113 0h3.429v3.429h-3.429v-3.429zm-7.556 0h3.429v3.429h-3.429v-3.429zm-7.557 6.803h3.429v3.429H6.729v-3.429zm15.113 0h3.429v3.429h-3.429v-3.429zm-7.556 0h3.429v3.429h-3.429v-3.429z"/></symbol><symbol id="icon-close" viewBox="0 0 32 32"><path d="M1.882 0l30.117 30.117-1.881 1.881L.001 1.881 1.882 0z"/><path d="M0 30.117L30.117 0 32 1.883 1.883 32 0 30.117z"/></symbol><symbol id="icon-docx" viewBox="0 0 32 32"><path fill="var(--color4, #fff)" d="M3.315 0v32h26.99V5.332L24.907 0z"/><path fill="var(--color5, #e1e3e5)" d="M25.734 0v4.571h4.571z"/><path fill="var(--color6, #02b2ff)" d="M23.478 22.765H1.371v-11.63c0-.941.763-1.703 1.703-1.703h23.842a1.164 1.164 0 011.118 1.489l.002-.008-3.034 10.697a1.589 1.589 0 01-1.525 1.153z"/><path fill="var(--color7, #0081b6)" d="M3.639 25.216v-2.451H1.372z"/><path fill="var(--color4, #fff)" d="M7.243 19.782h-.02a2.43 2.43 0 01-1.03-.228l.015.006a2.37 2.37 0 01-.814-.622l-.003-.004a2.91 2.91 0 01-.529-.985l-.005-.021a4.33 4.33 0 01-.192-1.29v-.102c0-.459.071-.902.203-1.317l-.008.031c.119-.387.304-.722.544-1.01l-.004.005c.223-.259.498-.468.808-.612l.015-.006a2.398 2.398 0 011.008-.218h.027-.001.023c.208 0 .408.029.598.083l-.015-.004c.172.046.322.109.461.188l-.01-.005c.127.079.236.17.332.273l.001.001c.081.083.155.172.222.267l.005.007c.044.07.097.159.159.265h.071v-3.057h1.198v8.229H9.129v-.957h-.101a3.06 3.06 0 01-.169.277l.007-.01a2.43 2.43 0 01-.235.28h.001a1.554 1.554 0 01-.33.27l-.007.004a1.851 1.851 0 01-.444.18l-.013.003c-.173.05-.372.079-.578.079h-.02.001zm.261-1.025l.058.001c.467 0 .88-.234 1.128-.591l.003-.005a2.657 2.657 0 00.424-1.595v.007a2.6 2.6 0 00-.426-1.576l.006.01a1.382 1.382 0 00-1.125-.58l-.066.002h.003l-.041-.001c-.324 0-.622.106-.863.286l.004-.003a1.668 1.668 0 00-.545.75l-.004.012a3.074 3.074 0 00-.183 1.056v.049-.002.048c0 .383.067.749.19 1.09l-.007-.022c.112.315.304.579.551.775l.003.003c.236.181.536.289.861.289h.038-.002zm8.51.632a2.823 2.823 0 01-1.45.396l-.068-.001h.003l-.063.001a2.85 2.85 0 01-1.465-.403l.013.007a2.626 2.626 0 01-.999-1.104l-.007-.016a3.692 3.692 0 01-.354-1.588l.001-.084v.004a3.326 3.326 0 01.79-2.323l-.004.005a2.666 2.666 0 012.095-.875h-.005l.111-.002c.784 0 1.488.338 1.977.875l.002.002a3.316 3.316 0 01.788 2.326v-.008l.001.08c0 .577-.13 1.123-.363 1.611l.01-.023c-.224.47-.568.851-.994 1.114l-.011.006zm-1.503-.613h.021c.26 0 .504-.064.719-.176l-.009.004c.215-.115.391-.275.52-.47l.003-.005c.13-.198.234-.428.298-.674l.004-.016a3.528 3.528 0 00-.006-1.705l.005.024a2.398 2.398 0 00-.307-.704l.006.009a1.432 1.432 0 00-.515-.473l-.008-.004c-.214-.111-.467-.177-.736-.177s-.522.065-.745.181l.009-.004a1.435 1.435 0 00-.521.471l-.003.005a2.257 2.257 0 00-.301.679l-.004.016a3.528 3.528 0 00.006 1.705l-.005-.024c.067.262.172.492.31.698l-.005-.008c.133.2.309.361.516.472l.008.004c.207.108.453.172.713.172h.026-.001zm6.741 1.012l-.068.001a2.82 2.82 0 01-1.482-.417l.012.007a2.633 2.633 0 01-.992-1.111l-.007-.016a3.732 3.732 0 01-.342-1.573l.001-.076v.004l-.001-.077c0-.576.13-1.121.362-1.608l-.01.023c.225-.472.569-.856.995-1.123l.011-.007a2.77 2.77 0 011.511-.403h-.003l.096-.002c.627 0 1.205.215 1.662.575l-.006-.004c.449.362.747.895.796 1.498v.008h-1.17a1.324 1.324 0 00-1.296-1.063l-.066.002h.003l-.044-.001c-.477 0-.9.228-1.167.581l-.003.004a2.46 2.46 0 00-.457 1.577v-.006a2.556 2.556 0 00.463 1.61l-.005-.008c.268.361.693.593 1.172.593l.048-.001h-.002l.038.001c.318 0 .612-.106.848-.284l-.004.003c.241-.192.413-.462.475-.772l.001-.008h1.17a2.214 2.214 0 01-.778 1.497l-.003.003a2.592 2.592 0 01-1.76.578h.006z"/></symbol><symbol id="icon-home" viewBox="0 0 32 32"><path fill="var(--color4, #fff)" d="M31.09 8.356L16.889.237c-.255-.15-.562-.238-.889-.238s-.634.088-.897.243l.008-.005L.91 8.356A1.82 1.82 0 000 9.931v20.268c0 .993.803 1.799 1.795 1.803h28.409A1.803 1.803 0 0032 30.199V9.932c0-.67-.362-1.255-.902-1.57l-.009-.005zM19.641 29.333h-7.289V16.305h7.289zm9.692 0h-7.026V13.639H9.685v15.694H2.666V10.425L15.999 2.8l13.333 7.625z"/></symbol><symbol id="icon-mark" viewBox="0 0 32 32"><path d="M8 0h16a8 8 0 018 8v16a8 8 0 01-8 8H8a8 8 0 01-8-8V8a8 8 0 018-8z"/></symbol><symbol id="icon-next" viewBox="0 0 32 32"><path fill="var(--color4, #fff)" d="M6.4 2.934L19.466 16 6.4 29.066 9.334 32l16-16-16-16z"/></symbol><symbol id="icon-pdf" viewBox="0 0 32 32"><path fill="var(--color4, #fff)" d="M3.639 0v32h26.666V5.332L24.972 0z"/><path fill="var(--color5, #e1e3e5)" d="M24.972 0v5.332h5.333z"/><path fill="var(--color8, #fc1f3c)" d="M23.478 22.765H1.371v-11.63c0-.941.763-1.703 1.703-1.703h23.842a1.164 1.164 0 011.118 1.489l.002-.008-3.034 10.697a1.589 1.589 0 01-1.525 1.153z"/><path fill="var(--color9, #b01f46)" d="M3.639 25.216v-2.451H1.372z"/><path fill="var(--color4, #fff)" d="M6.15 21.733v-8.229h1.137v.971h.097c.057-.101.109-.183.153-.255.069-.101.142-.189.221-.27v.001c.093-.102.198-.191.315-.263l.006-.004c.126-.073.272-.136.425-.18l.014-.003c.171-.049.368-.078.571-.078h.017-.001.024c.356 0 .693.078.996.217l-.015-.006c.315.146.581.348.796.597l.003.003c.229.275.408.6.519.956l.005.02c.12.372.189.801.189 1.246v.055-.003a3.396 3.396 0 01-.704 2.271l.006-.008a2.237 2.237 0 01-1.746.836l-.061-.001h.003-.024c-.197 0-.388-.027-.569-.079l.015.004a1.91 1.91 0 01-.449-.188l.009.005a1.562 1.562 0 01-.326-.262l-.001-.001a2.448 2.448 0 01-.23-.259l-.004-.006a2.86 2.86 0 01-.151-.244l-.008-.015h-.066v3.176zm1.142-5.237a2.578 2.578 0 00.419 1.55l-.006-.01c.244.351.646.578 1.1.578l.053-.001h-.003.035c.316 0 .607-.106.839-.284l-.003.002c.245-.192.431-.448.537-.742l.004-.012a3.05 3.05 0 00.175-1.029v-.055.003l.001-.057c0-.362-.064-.71-.181-1.031l.007.021a1.611 1.611 0 00-.532-.736l-.004-.003a1.391 1.391 0 00-.835-.275l-.044.001h.002a1.338 1.338 0 00-1.152.556l-.003.004a2.513 2.513 0 00-.407 1.526v-.006zm7.873 3.111h-.022c-.357 0-.695-.079-.998-.221l.014.006a2.304 2.304 0 01-.79-.603l-.003-.003a2.805 2.805 0 01-.514-.958l-.005-.02a4.218 4.218 0 01-.183-1.242v-.109c0-.445.069-.873.197-1.275l-.008.03c.114-.377.293-.703.526-.983l-.004.005c.215-.252.48-.455.78-.595l.014-.006c.288-.133.626-.211.981-.211h.026-.001.017c.203 0 .399.028.585.081l-.015-.004c.167.048.312.11.446.188l-.009-.005c.123.077.229.165.322.265l.001.001c.079.08.151.167.215.26l.004.007c.043.069.091.155.155.258h.07v-2.965h1.165v7.983h-1.139v-.933h-.097a2.823 2.823 0 01-.166.27l.007-.01a2.419 2.419 0 01-.229.275l.001-.001c-.095.1-.202.187-.32.259l-.007.004a1.856 1.856 0 01-.426.18l-.014.003a2.028 2.028 0 01-.561.077h-.019.001zm.256-.995l.053.001c.454 0 .855-.227 1.096-.574l.003-.004a2.578 2.578 0 00.411-1.546v.006a2.53 2.53 0 00-.413-1.529l.006.01a1.342 1.342 0 00-1.159-.56h.003l-.038-.001a1.4 1.4 0 00-.838.277l.004-.003a1.599 1.599 0 00-.532.728l-.003.011a2.97 2.97 0 00-.173 1.071v-.003.052c0 .369.064.723.182 1.051l-.007-.022c.109.305.295.56.534.751l.003.003c.229.175.519.281.834.281h.037-.002zm7.22-5.11v.936h-1.289v5.05h-1.17v-5.05h-.923v-.936h.923v-.719c0-.255.054-.498.15-.717l-.005.011c.09-.21.223-.387.388-.526l.002-.002c.16-.131.348-.236.552-.304l.013-.004a2.09 2.09 0 01.663-.105h.016-.001.05c.332 0 .65.059.945.167l-.019-.006-.274.944a1.68 1.68 0 00-.52-.091h-.002a.768.768 0 00-.603.205.885.885 0 00-.182.616v-.003.538z"/></symbol><symbol id="icon-phone" viewBox="0 0 32 32"><path d="M6.84 2.4c.66 0 1.32 0 1.98.013 1.36.019 1.779.511 1.923 1.821a45.9 45.9 0 00.797 4.963l-.055-.303a2.141 2.141 0 01-.619 2.275l-.002.002a35.222 35.222 0 00-2.483 2.516l-.03.034a1.138 1.138 0 00-.131 1.053l-.003-.008c2.124 3.834 5.204 6.911 8.925 8.972l.116.059a.676.676 0 00.295.066l.031-.001h-.001.022a1.2 1.2 0 00.7-.225l-.004.002a39.06 39.06 0 002.627-2.585 1.837 1.837 0 011.388-.632h.041-.002c.241.003.473.03.698.079l-.023-.004q2.417.468 4.868.769c1.133.133 1.647.571 1.693 1.723.032.8 0 1.616.007 2.424 0 .773.016 1.547 0 2.319-.032 1.333-.5 1.867-1.761 1.867h-.188c-8.26-.08-15.562-4.11-20.118-10.288l-.049-.069A24.893 24.893 0 012.404 4.575v-.023c-.051-1.667.4-2.133 2.096-2.143Q5.673 2.4 6.843 2.4zm0-2.4c-.785 0-1.571 0-2.355.009a4.537 4.537 0 00-3.42 1.194l.003-.003A4.48 4.48 0 00.003 4.646l-.002-.02A27.38 27.38 0 005.61 20.758l-.049-.067C10.588 27.5 18.545 31.895 27.534 32h.296a3.905 3.905 0 004.158-4.225l.001.014c.013-.573.011-1.147.007-1.72v-1.408c0-.589.011-1.179-.013-1.767l.001-.074a3.935 3.935 0 00-3.791-3.933h-.007c-1.6-.199-3.18-.448-4.703-.744a5.688 5.688 0 00-1.131-.119h-.054a4.198 4.198 0 00-3.124 1.389l-.003.004a44.81 44.81 0 01-1.703 1.733 20.394 20.394 0 01-6.56-6.531l-.05-.085a34.61 34.61 0 011.635-1.6 4.51 4.51 0 001.326-4.576l.008.032a39.508 39.508 0 01-.681-4.221l-.017-.195A4 4 0 008.843.015l.013-.001Q7.848.001 6.841.001z"/></symbol><symbol id="icon-phone-1" viewBox="0 0 32 32"><path d="M6.84 2.4c.66 0 1.32 0 1.98.013 1.36.019 1.779.511 1.923 1.821a45.9 45.9 0 00.797 4.963l-.055-.303a2.141 2.141 0 01-.619 2.275l-.002.002a35.222 35.222 0 00-2.483 2.516l-.03.034a1.138 1.138 0 00-.131 1.053l-.003-.008c2.124 3.834 5.204 6.911 8.925 8.972l.116.059a.676.676 0 00.295.066l.031-.001h-.001.022a1.2 1.2 0 00.7-.225l-.004.002a39.06 39.06 0 002.627-2.585 1.837 1.837 0 011.388-.632h.041-.002c.241.003.473.03.698.079l-.023-.004q2.417.468 4.868.769c1.133.133 1.647.571 1.693 1.723.032.8 0 1.616.007 2.424 0 .773.016 1.547 0 2.319-.032 1.333-.5 1.867-1.761 1.867h-.188c-8.26-.08-15.562-4.11-20.118-10.288l-.049-.069A24.893 24.893 0 012.404 4.575v-.023c-.051-1.667.4-2.133 2.096-2.143Q5.673 2.4 6.843 2.4zm0-2.4c-.785 0-1.571 0-2.355.009a4.537 4.537 0 00-3.42 1.194l.003-.003A4.48 4.48 0 00.003 4.646l-.002-.02A27.38 27.38 0 005.61 20.758l-.049-.067C10.588 27.5 18.545 31.895 27.534 32h.296a3.905 3.905 0 004.158-4.225l.001.014c.013-.573.011-1.147.007-1.72v-1.408c0-.589.011-1.179-.013-1.767l.001-.074a3.935 3.935 0 00-3.791-3.933h-.007c-1.6-.199-3.18-.448-4.703-.744a5.688 5.688 0 00-1.131-.119h-.054a4.198 4.198 0 00-3.124 1.389l-.003.004a44.81 44.81 0 01-1.703 1.733 20.394 20.394 0 01-6.56-6.531l-.05-.085a34.61 34.61 0 011.635-1.6 4.51 4.51 0 001.326-4.576l.008.032a39.508 39.508 0 01-.681-4.221l-.017-.195A4 4 0 008.843.015l.013-.001Q7.848.001 6.841.001z"/></symbol><symbol id="icon-search" viewBox="0 0 32 32"><path fill="var(--color4, #fff)" d="M32 30.326l-8.064-8.064a13.494 13.494 0 003.169-8.715c0-7.493-6.074-13.566-13.566-13.566S-.027 6.055-.027 13.547c0 7.493 6.074 13.566 13.566 13.566 3.332 0 6.384-1.201 8.745-3.194l-.02.017L30.326 32zM2.366 13.557v-.002c0-6.181 5.011-11.192 11.192-11.192S24.75 7.374 24.75 13.555c0 6.178-5.006 11.187-11.184 11.192-6.182 0-11.195-5.009-11.2-11.19v-.001z"/></symbol><symbol id="icon-skate" viewBox="0 0 32 32"><path fill="var(--color10, #fed92b)" d="M31.5 23.032a7.895 7.895 0 00-.605-.509l-.019-.014a.109.109 0 01-.034.017h-.001a.103.103 0 01-.083-.011h.001a.112.112 0 01-.051-.066v-.001a.103.103 0 010-.069v.001c-.1-.074-.193-.148-.293-.221s-.444-.346-.65-.516l-.032-.035c-.07-.076-.129-.159-.191-.24.049-.009.1-.022.148-.028.106-.1.248-.2-.08-.48a3.568 3.568 0 01-.341-.429l-.008-.013a.276.276 0 00-.35-.138l.002-.001a.307.307 0 00-.328-.044l.002-.001a1.058 1.058 0 00-.108-.136l.001.001a5.718 5.718 0 01-.221-.233c.038 0 .073-.011.11-.013.008 0 .016-.007.025-.011.21-.082.19-.253-.052-.505a5.787 5.787 0 01-.391-.436l-.009-.011a.378.378 0 00-.402-.147l.003-.001a.376.376 0 00-.077-.041l-.003-.001a2.007 2.007 0 00-.132-.178l.002.003a1.54 1.54 0 01-.173-.245l-.004-.008c.035 0 .069-.011.1-.013.19-.118.171-.209-.063-.5-.224-.238-.369-.778-.736-.667a.301.301 0 00-.109-.058l-.002-.001a.806.806 0 00-.139-.276l.001.002a3.812 3.812 0 01-.155-.249v-.011c.016 0 .032 0 .048-.005a.319.319 0 01.04-.033l.001-.001c.108-.11.123-.185-.068-.463a4.143 4.143 0 00-.415-.607l.006.007-.1-.076a.466.466 0 00-.049-.039l-.002-.001-.255-.2c-.04-.085-.1-.2-.181-.363-.013-.031-.032-.058-.045-.088a.854.854 0 01.099.022l-.005-.001c.119-.134.091-.143-.185-.7-.084-.2-.175-.37-.28-.53l.008.012a.254.254 0 00-.288-.053l.002-.001a.233.233 0 00-.076-.048h-.002c-.042-.095-.112-.232-.215-.445-.009-.026-.023-.049-.033-.075h.107c.106-.085.047-.153-.211-.684a2.458 2.458 0 00-.287-.56l.005.008c-.091-.078-.163-.045-.26-.015a9.68 9.68 0 00-.174-.377c-.009-.025-.024-.047-.035-.072.025 0 .048-.005.073 0h.005c.1-.067.081-.149-.179-.686a1.83 1.83 0 00-.351-.578l.001.002c-.1-.081-.159-.056-.257-.016-.011-.013-.018-.027-.029-.039a.48.48 0 00-.038-.023l-.002-.001.022-.011a4.492 4.492 0 01-.239-.607l-.009-.034a6.356 6.356 0 01-.163-1.451v-.072.004c.072-.97.24-1.87.498-2.732l-.023.09c.387-1.478.378-1.873.078-2.454-.337-.653-1.453-1.004-4.099-1.228-1.789-.151-3.601-.215-5.4-.276l-.15.27c.013.017.02.038.02.06v.009c0 .03-.014.058-.035.076a.106.106 0 01-.073.029h-.007c-.655 1.179-1.307 2.362-2.009 3.514a.126.126 0 01.033.032.1.1 0 01.02.059.085.085 0 01-.003.023V5.07a.109.109 0 01-.129.088h.001a.088.088 0 01-.037-.015q-.263.426-.535.846a.11.11 0 01.039.106v-.001a.108.108 0 01-.108.09.111.111 0 01-.052-.013h.001q-.31.471-.638.929c-1.3 1.822-3.145 4.176-3.066 6.129v.054l-.006.026c-.253 1.053-.815 3.349-1.011 4.423.199.142.425.275.663.388l.027.012a4.762 4.762 0 01-.489 1.255l.012-.024c-.559.921-1.4.966-2.919.577-.768-.2-2.4-.672-2.617.46a.945.945 0 00.275.865A6.589 6.589 0 002.59 22.42l.047.011 18.898 7.084c1.835.866 3.968 1.464 6.212 1.677l.078.006a7.547 7.547 0 00.979-.039l-.034.003.243.157.1-.315.361.18.1-.374.413.164.043-.4.409.051-.042-.419.39.044-.118-.392.232-.039-.1-.3a7.536 7.536 0 00-.396-2.347l.016.053c.085-.005.165-.016.242-.032l-.011.002c.544-.112.738-.5.541-1.117v-.016c.253-.097.458-.274.588-.499l.003-.006c.186-.308.296-.679.296-1.077a2.1 2.1 0 00-.58-1.451l.001.001zM10.559 5.617zm9.671 20.5a4.637 4.637 0 01-2.48-.512l.026.012L9.909 22.6c-1.949-.746-2.923-1.367-1.685-3.442.595.293 1.302.565 2.034.777l.094.023a18.734 18.734 0 001.478-2.029l.046-.078a25.8 25.8 0 015.482 4.28l.006.006a7.733 7.733 0 002.591 2.074l.045.02c.263.116.606.253 1.005.4-.233.753-.254 1.327-.774 1.484zm7.607 2.858h-.005c-1.351.022-4.822-.982-5.107-2.2a1.458 1.458 0 01-.038-.229v-.005c-.042-.508.227-.775.575-1.133 1.776.577 3.817 1.169 5.308 1.5l.19.044c.021.062.044.133.066.21l.014.049.006.022c.064.212.101.455.101.707l-.001.081v-.004c-.027.5-.282.944-1.108.957z"/></symbol><symbol id="icon-Telegram" viewBox="0 0 32 32"><path fill="var(--color11, #039be5)" d="M31.934 3.755a.676.676 0 00-.461-.506l-.005-.001a2.374 2.374 0 00-1.274.095l.017-.005S2.174 13.413.573 14.528c-.347.242-.464.381-.52.546-.275.8.59 1.146.59 1.146l7.229 2.352a.781.781 0 00.372-.02l-.005.001C9.882 17.516 24.777 8.108 25.637 7.791c.13-.04.235 0 .208.099-.347 1.206-13.28 12.707-13.28 12.707a.467.467 0 00-.082.131l-.001.003h-.014l-.674 7.166s-.285 2.197 1.92 0a60.682 60.682 0 013.797-3.477c2.488 1.714 5.163 3.619 6.317 4.606.36.345.849.557 1.387.557h.065c1.096-.04 1.4-1.243 1.4-1.243s5.109-20.555 5.28-23.318c.014-.274.04-.445.04-.63l.002-.098c0-.192-.023-.379-.068-.558l.003.016z"/></symbol><symbol id="icon-up" viewBox="0 0 32 32"><path fill="var(--color12, #66d0ff)" d="M14.275 3.963l1.773-1.773 1.773 1.773-1.773 1.773-1.773-1.773zm.841-3.032L16.047 0l.931.931-.931.931-.931-.931zm-.937 27.106l1.774-1.774 1.774 1.774-1.774 1.774-1.774-1.774zm.842 3.032l.932-.931.931.932-.932.931-.931-.932zM2.19 15.952l1.773-1.773 1.773 1.773-1.773 1.773-1.773-1.773zm-2.19 0l.932-.931.931.932-.932.931L0 15.952z"/><path fill="var(--color12, #66d0ff)" d="M27.581 13.559l-1.169-1.169-2.698 2.698h-1.025l1.53-1.529-.682-.683.014-.96-2.382-.038.75-.75 3.982.063.026-1.653-3.467-.053V6.087h-1.654v3.815l-.725.725V8.464h-.965l-.667-.69-1.712 1.658V8.371l2.862-2.773-1.15-1.187-2.49 2.412-2.403-2.403-1.169 1.169 2.699 2.698v1.025l-1.53-1.529-.683.683-.96-.015-.038 2.382-.75-.751.062-3.982-1.653-.026-.053 3.467H6.086v1.653h3.815l.725.725H8.463v.964l-.69.668 1.659 1.711H8.37l-2.773-2.861-1.187 1.15 2.412 2.49-2.4 2.403 1.167 1.169 2.699-2.698h1.024l-1.529 1.53.683.682-.017.96 2.383.038-.75.75-3.982-.063-.027 1.653 3.467.053v3.398h1.653v-3.815l.726-.725v2.163h.964l.668.69 1.711-1.658v1.061l-2.861 2.773 1.15 1.187 2.49-2.412 2.4 2.403 1.169-1.169-2.698-2.698v-1.025l1.53 1.53.683-.683.96.015.038-2.382.751.75-.064 3.983 1.653.026.053-3.467h3.398V20.81h-3.815l-.725-.725h2.163v-.964l.69-.668-1.658-1.711h1.061l2.773 2.861 1.186-1.15-2.411-2.49zm-5.684-.016l-1.544 1.547h-.604a3.85 3.85 0 00-.561-1.249l.008.013.347-.347zm-5.89 4.671a2.199 2.199 0 112.199-2.199 2.202 2.202 0 01-2.199 2.2zm2.423-8.12v2.187l-.436.436a3.755 3.755 0 00-1.231-.476l-.024-.004v-.502zm-4.888.012l1.547 1.547v.625a3.816 3.816 0 00-1.24.551l.013-.009-.358-.358zm-3.448 3.463h2.183l.442.442a3.78 3.78 0 00-.485 1.225l-.004.025h-.498zm.011 4.888l1.547-1.547h.614c.114.47.3.883.549 1.25l-.008-.013-.345.346zm3.462 3.449v-2.187l.427-.427c.363.228.787.4 1.24.493l.025.004v.475zm4.889-.012l-1.547-1.547v-.593a3.833 3.833 0 001.262-.559l-.013.009.334.334zm3.449-3.463h-2.184l-.421-.42c.226-.365.396-.791.486-1.247l.004-.024h.476z"/><path fill="var(--color12, #66d0ff)" d="M26.263 16.048l1.774-1.774 1.774 1.774-1.774 1.774-1.774-1.774zm3.874 0l.931-.931.931.931-.931.931-.931-.931zM6.268 6.201h2.508v2.508H6.268V6.201zM4.72 4.653h1.317V5.97H4.72V4.653zm18.504 18.638h2.508v2.508h-2.508v-2.508zm2.739 2.739h1.317v1.317h-1.317V26.03zM6.201 23.223h2.508v2.508H6.201v-2.508zm-1.548 2.74H5.97v1.317H4.653v-1.317zM23.291 6.268h2.508v2.508h-2.508V6.268zM26.03 4.72h1.317v1.317H26.03V4.72z"/></symbol><symbol id="icon-Vk" viewBox="0 0 32 32"><path fill="var(--color13, #2787f5)" d="M31.266 7.68c.222-.742 0-1.28-1.059-1.28h-3.499a1.512 1.512 0 00-1.52.98l-.003.01c-1.166 2.737-2.61 5.097-4.343 7.21l.041-.051c-.816.816-1.187 1.075-1.632 1.075-.222 0-.544-.259-.544-1.002V7.68c0-.89-.258-1.28-1-1.28h-5.502l-.049-.001a.843.843 0 00-.842.799V7.2c0 .843 1.261 1.038 1.39 3.413v5.155c0 1.13-.205 1.334-.65 1.334-1.187 0-4.074-4.358-5.786-9.346-.336-.97-.672-1.362-1.566-1.362H1.201c-1 0-1.2.47-1.2.99 0 .928 1.187 5.526 5.526 11.61 2.291 3.636 6.168 6.093 10.636 6.398l.042.002c2.226 0 2.501-.501 2.501-1.362v-3.13c0-1 .211-1.2.915-1.2.52 0 1.41.259 3.486 2.262 2.374 2.374 2.765 3.438 4.101 3.438h3.501c1 0 1.501-.501 1.211-1.486a15.138 15.138 0 00-2.958-4.102l-.002-.002c-.816-.96-2.04-2.003-2.411-2.522-.52-.667-.371-.96 0-1.558.011 0 4.272-6.008 4.717-8.054z"/></symbol><symbol id="icon-whatsapp" viewBox="0 0 32 32"><path fill="var(--color14, #2cb742)" d="M0 32l2.267-8C.853 21.722.011 18.96 0 16.003v-.041C0 7.147 7.146 0 15.962 0h.041-.002.122c8.769 0 15.878 7.109 15.878 15.878v.129V16v.122C32.001 24.891 24.892 32 16.123 32l-.129-.001h.007-.012a16.35 16.35 0 01-7.94-2.043l.084.043zm8.667-4.933l.533.4a12.478 12.478 0 006.61 1.871c.113 0 .226-.002.339-.004h-.017C23.44 29.26 29.335 23.319 29.335 16c0-7.364-5.97-13.334-13.334-13.334S2.667 8.636 2.667 16a11.893 11.893 0 002.158 7.106l-.025-.038.4.533-1.333 4.667z"/><path fill="var(--color14, #2cb742)" d="M11.594 7.886h-1.069c-.4 0-.534.146-.934.438a5.996 5.996 0 00-1.589 2.59l-.011.043a9.073 9.073 0 001.619 6.315l-.019-.028c2.097 3.381 5.234 5.945 8.959 7.271l.121.038a3.59 3.59 0 001.391.276c.898 0 1.721-.325 2.355-.864l-.005.004a4.308 4.308 0 001.463-2.31l.006-.029.131-.878c0-.293-.133-.584-.4-.584l-3.605-1.76c-.267-.146-.534 0-.534.146l-1.469 1.901c-.133.146-.267.293-.534.146-2.464-1.111-4.415-2.997-5.578-5.343l-.03-.066c-.133-.146 0-.438 0-.584l1.336-1.76a.937.937 0 00.132-.589v.004l-1.202-4.082a.91.91 0 00-.529-.292l-.005-.001z"/></symbol><symbol id="icon-xlsx" viewBox="0 0 32 32"><path fill="var(--color4, #fff)" d="M3.639 0v32h26.665V5.332L24.972 0z"/><path fill="var(--color5, #e1e3e5)" d="M24.972 0v5.332h5.333z"/><path fill="var(--color15, #12b240)" d="M23.478 22.766H1.371V11.135c0-.941.763-1.703 1.703-1.703h23.842a1.164 1.164 0 011.118 1.489l.002-.008-3.034 10.697a1.59 1.59 0 01-1.525 1.157z"/><path fill="var(--color16, #0e7a2a)" d="M3.639 25.216v-2.45H1.372z"/><path fill="var(--color4, #fff)" d="M5.639 13.069l1.207 2.209 1.228-2.209h1.493l-1.805 2.992L9.6 19.053H8.112l-1.266-2.154-1.254 2.154H4.096l1.823-2.992-1.776-2.992zm5.378-1.995h1.28v7.979h-1.28v-7.979zm7.23 3.576l-1.285.14a1.008 1.008 0 00-.363-.534l-.003-.002a1.18 1.18 0 00-.679-.213l-.055.001h.003l-.048-.001c-.256 0-.495.072-.698.197l.006-.003a.562.562 0 00-.292.492v.023c0 .163.075.309.193.405l.001.001c.184.131.404.225.643.266l.009.001 1.019.219c.489.08.919.287 1.268.585l-.003-.003c.259.253.419.605.419.995l-.001.045v-.002.018a1.65 1.65 0 01-.712 1.358l-.006.004a2.975 2.975 0 01-1.844.529h.006a3.049 3.049 0 01-1.778-.464l.013.007a1.853 1.853 0 01-.802-1.279l-.001-.01 1.371-.133a.962.962 0 00.394.608l.003.002c.207.132.46.21.731.21.022 0 .043 0 .065-.002h-.003l.064.001c.273 0 .529-.076.746-.208l-.006.004a.6.6 0 00.31-.513v-.001q0-.504-.806-.682l-1.02-.214q-1.691-.351-1.682-1.688v-.03c0-.349.113-.671.305-.932l-.003.004c.216-.284.504-.503.837-.63l.013-.004a3.302 3.302 0 011.268-.222h-.003a2.753 2.753 0 011.657.447l-.011-.006c.398.284.677.713.763 1.208l.002.011zm2.446-1.581l1.208 2.209 1.231-2.209h1.492l-1.805 2.992 1.836 2.992h-1.488l-1.266-2.154-1.254 2.154h-1.496l1.823-2.992-1.774-2.992z"/></symbol><symbol id="icon-youtube-svgrepo-com" viewBox="0 0 32 32"><path fill="var(--color17, #f61c0d)" d="M25.354 4.8H6.647a6.646 6.646 0 00-6.646 6.646v9.352a6.646 6.646 0 006.646 6.646h18.707A6.646 6.646 0 0032 20.798v-9.352A6.646 6.646 0 0025.354 4.8zm-4.495 11.778l-8.75 4.173a.352.352 0 01-.502-.318v-8.616a.353.353 0 01.512-.313l-.002-.001 8.75 4.434a.352.352 0 01-.006.641l-.002.001z"/></symbol></defs></svg>