<svg xmlns="http://www.w3.org/2000/svg" width="32.084" height="30.324" viewBox="0 0 32.084 30.324">
  <path id="skate" d="M31.5,22.032a7.7,7.7,0,0,0-.624-.523.1.1,0,0,1-.035.017.11.11,0,0,1-.083-.011.109.109,0,0,1-.051-.067.1.1,0,0,1,0-.068c-.1-.074-.193-.148-.293-.221s-.444-.346-.65-.516l-.032-.035c-.07-.076-.129-.159-.191-.24.049-.009.1-.022.148-.028v0c.106-.1.248-.2-.08-.48a3.525,3.525,0,0,1-.349-.442.275.275,0,0,0-.348-.138.309.309,0,0,0-.326-.045,1.1,1.1,0,0,0-.107-.135c-.068-.067-.148-.152-.221-.233.038,0,.073-.011.11-.013.008,0,.016-.007.025-.011.21-.082.19-.253-.052-.505a5.889,5.889,0,0,1-.4-.447.378.378,0,0,0-.4-.148.389.389,0,0,0-.08-.042,1.827,1.827,0,0,0-.13-.175,1.568,1.568,0,0,1-.177-.253c.035,0,.069-.011.1-.013.19-.118.171-.209-.063-.5-.224-.238-.369-.778-.736-.667a.327.327,0,0,0-.111-.059.8.8,0,0,0-.138-.274c-.042-.061-.1-.153-.155-.249l0-.011c.016,0,.032,0,.048-.005a.49.49,0,0,1,.041-.034c.108-.11.123-.185-.068-.463a4.2,4.2,0,0,0-.409-.6v0l-.1-.076a.487.487,0,0,0-.051-.04h0l-.255-.2c-.04-.085-.1-.2-.181-.363-.013-.031-.032-.058-.045-.088a.7.7,0,0,1,.094.021c.119-.134.091-.143-.185-.7a3.262,3.262,0,0,0-.272-.518.256.256,0,0,0-.286-.054h0a.219.219,0,0,0-.078-.048c-.042-.095-.112-.232-.215-.445-.009-.026-.023-.049-.033-.075.037,0,.072,0,.107,0,.106-.085.047-.153-.211-.684a2.443,2.443,0,0,0-.282-.552c-.091-.078-.163-.045-.26-.015-.039-.092-.094-.21-.174-.377-.009-.025-.024-.047-.035-.072.025,0,.048-.005.073,0h.005c.1-.067.081-.149-.179-.686a1.82,1.82,0,0,0-.35-.576c-.1-.081-.159-.056-.257-.016-.011-.013-.018-.027-.029-.039a.278.278,0,0,0-.04-.024l.022-.011a4.751,4.751,0,0,1-.248-.641A6.526,6.526,0,0,1,22.035,6.6a12.717,12.717,0,0,1,.475-2.642c.387-1.478.378-1.873.078-2.454C22.251.851,21.135.5,18.489.276,16.7.125,14.888.061,13.089,0l-.15.27a.1.1,0,0,1,.02.068.1.1,0,0,1-.035.077.106.106,0,0,1-.08.029c-.655,1.179-1.307,2.362-2.009,3.514a.133.133,0,0,1,.033.032.1.1,0,0,1,.017.082.108.108,0,0,1-.128.088.09.09,0,0,1-.037-.015q-.263.426-.535.846a.126.126,0,0,1,.021.023.109.109,0,0,1,.018.082.112.112,0,0,1-.046.071.11.11,0,0,1-.113.006q-.31.471-.638.929c-1.3,1.822-3.145,4.176-3.066,6.129v.054l-.006.026c-.253,1.053-.815,3.349-1.011,4.423a4.544,4.544,0,0,0,.691.4,4.763,4.763,0,0,1-.477,1.231c-.559.921-1.4.966-2.919.577l0,0c-.768-.2-2.4-.672-2.617.46a.946.946,0,0,0,.275.865,6.642,6.642,0,0,0,2.339,1.166l13.873,5.2,5.025,1.884A19.289,19.289,0,0,0,27.824,30.2a8.047,8.047,0,0,0,.945-.037l.243.157v0h0l.1-.315.361.18h0l.1-.374.413.164h0l.043-.4.409.051h0l-.042-.419.39.044h0l-.118-.392.232-.039-.1-.3a7.571,7.571,0,0,0-.38-2.294,1.646,1.646,0,0,0,.231-.03c.544-.112.738-.5.541-1.117h0a.066.066,0,0,0,0-.015,1.141,1.141,0,0,0,.591-.505,2.106,2.106,0,0,0-.283-2.527M10.559,4.617h0v0Zm9.671,20.5a4.659,4.659,0,0,1-2.454-.5L9.909,21.6c-1.949-.746-2.923-1.367-1.685-3.442a13.32,13.32,0,0,0,2.128.8h0a18.979,18.979,0,0,0,1.524-2.107,25.6,25.6,0,0,1,5.488,4.286A7.68,7.68,0,0,0,20,23.231c.263.116.606.253,1.005.4-.233.753-.254,1.327-.774,1.484m7.606,2.86-.005,0c-1.351.022-4.822-.982-5.107-2.2a1.48,1.48,0,0,1-.038-.234c-.042-.508.227-.775.575-1.133,1.776.577,3.817,1.169,5.308,1.5l.19.044c.021.062.044.133.066.21l.014.049.006.022a2.518,2.518,0,0,1,.1.784c-.027.5-.282.944-1.108.957" transform="translate(0)" fill="#fed92b"/>
</svg>
