<svg aria-hidden="true" style="position: absolute; width: 0; height: 0; overflow: hidden;" version="1.1" xmlns="http://www.w3.org/2000/svg" xmlns:xlink="http://www.w3.org/1999/xlink">
<defs>
<symbol id="icon-404" viewBox="0 0 32 32">
<path fill="#161615" style="fill: var(--color1, #161615)" d="M26.574 10.083l-4.756 7.481v2.494h5.749v1.847h3.071v-1.847h1.362v-2.494h-1.362v-7.481z"></path>
<path fill="#f8f9fa" style="fill: var(--color2, #f8f9fa)" d="M30.638 13.591c-0.183 0.765-0.435 1.314-0.752 1.628-0.002-0.009-0.003-0.016-0.006-0.023l0 0.001c-0.057-0.161-0.286-0.055-0.394-0.009-0.214 0.091-0.338 0.103-0.441-0.019-0.038-0.049-0.071-0.105-0.096-0.165l-0.002-0.005c0.035-0.023 0.065-0.048 0.093-0.074l-0 0c-0.053-0.153-0.187-0.477-0.248-0.626l-0.001-0.004-0.001-0.008c-0.032-0.288-0.356-0.592-0.587-0.83q-0.058-0.060-0.114-0.122c-0.003 0.002-0.006 0.003-0.010 0.003-0.003 0-0.005-0.001-0.007-0.002l0 0c-0.004-0.002-0.007-0.005-0.008-0.009l-0-0c-0.001-0.002-0.001-0.003-0.001-0.005s0.001-0.005 0.002-0.007l-0 0c0.001-0.001 0.002-0.003 0.003-0.004l-0 0q-0.049-0.056-0.097-0.112c-0.001 0.001-0.003 0.002-0.005 0.003l-0 0-0.001 0c-0.002 0.001-0.003 0.001-0.005 0.001-0.007 0-0.013-0.005-0.015-0.011l-0-0c-0.001-0.002-0.001-0.004-0.001-0.006s0.001-0.005 0.002-0.007l-0 0c0.001-0.002 0.002-0.004 0.004-0.005v0c-0.129-0.153-0.251-0.312-0.374-0.47-0.001 0-0.002 0-0.003 0-0.003 0-0.006-0.001-0.009-0.003l0 0c-0.004-0.003-0.007-0.008-0.007-0.014 0-0.003 0.001-0.005 0.002-0.007l-0 0-0.028-0.036c-0.263 0.049-0.527 0.099-0.786 0.162-0.383 0.092-0.539 0.169-0.574 0.272-0.031 0.092-0.023 0.15 0.066 0.358 0.052 0.107 0.096 0.233 0.126 0.364l0.003 0.013c0.008 0.047 0.013 0.101 0.013 0.156 0 0.025-0.001 0.049-0.003 0.073l0-0.003c-0.006 0.038-0.013 0.072-0.023 0.105l0.001-0.005 0.003 0.001c-0.002 0.001-0.004 0.003-0.005 0.004v0c-0.001 0.002-0.002 0.004-0.003 0.006-0.015-0.004-0.024-0.006-0.037 0.008-0.018 0.026-0.031 0.057-0.038 0.091l-0 0.002c-0.026 0.085-0.027 0.097-0.011 0.105h0.001c0.003-0.001 0.007-0.001 0.011-0.002h0c-0.001 0.004-0.003 0.007-0.003 0.011-0.008 0.026-0.013 0.045-0.017 0.059-0.015-0.002-0.026-0.005-0.038 0.008-0.012 0.025-0.022 0.054-0.029 0.085l-0 0.002c-0.026 0.084-0.033 0.095-0.016 0.105l0.016-0.002c-0.001 0.004-0.002 0.008-0.003 0.012-0.010 0.034-0.018 0.055-0.022 0.070-0.004 0.002-0.008 0.005-0.010 0.009l-0 0c-0.003-0.001-0.006-0.001-0.010-0.001-0.013 0-0.024 0.006-0.031 0.016l-0 0c-0.011 0.023-0.020 0.050-0.028 0.079l-0.001 0.003c-0.028 0.088-0.032 0.090-0.011 0.107 0.004-0.002 0.008-0.004 0.013-0.005l0.001-0c-0.001 0.005-0.003 0.009-0.005 0.014-0.008 0.026-0.014 0.044-0.018 0.057l-0.033 0.035c-0.002 0.002-0.005 0.004-0.006 0.007l-0 0-0.013 0.013c-0.017 0.027-0.032 0.059-0.045 0.093l-0.001 0.004c-0.022 0.045-0.018 0.056 0 0.069 0.002 0.001 0.005 0.003 0.007 0.004 0.001 0 0.002 0 0.003 0s0.003-0 0.005-0.001l-0 0 0 0.002c-0.006 0.015-0.012 0.030-0.017 0.040-0.007 0.012-0.012 0.027-0.014 0.043l-0 0.001c-0.006 0.003-0.011 0.007-0.015 0.011l-0 0c-0.056-0.008-0.065 0.074-0.093 0.114-0.028 0.048-0.029 0.062 0.002 0.075 0.005-0 0.010 0 0.015-0-0.006 0.016-0.013 0.029-0.021 0.042l0.001-0.001c-0.005 0.008-0.010 0.017-0.014 0.027l-0.001 0.002c-0.004 0.002-0.008 0.005-0.011 0.008l0-0c-0.002-0-0.003-0-0.005-0-0.022 0-0.041 0.012-0.050 0.031l-0 0c-0.017 0.029-0.033 0.054-0.050 0.077l0.002-0.002c-0.030 0.042-0.029 0.068 0.004 0.075 0.001 0 0.003 0.001 0.004 0.001 0.005-0.001 0.011 0 0.016-0.001-0.009 0.014-0.019 0.028-0.027 0.039-0.004 0.006-0.009 0.014-0.012 0.021l-0 0.001c-0.004-0.001-0.008-0.002-0.012-0.002-0.014 0-0.026 0.006-0.034 0.016l-0 0c-0.003-0.001-0.006-0.001-0.009-0.001-0.018 0-0.034 0.012-0.039 0.029l-0 0c-0.013 0.028-0.027 0.052-0.042 0.074l0.001-0.002c-0.042 0.048-0.019 0.060-0.001 0.072 0.007-0 0.015 0.001 0.022 0.001-0.007 0.013-0.014 0.027-0.023 0.040l-0.004 0.006c-0.026 0.030-0.071 0.077-0.084 0.090s-0.025 0.026-0.038 0.039c0.001 0.002 0.002 0.005 0.002 0.007 0 0.001-0 0.002-0 0.003l0-0c-0.001 0.008-0.008 0.015-0.016 0.015-0.001 0-0.001-0-0.002-0h0c-0.002-0-0.004-0.001-0.006-0.002l0 0c-0.027 0.028-0.053 0.058-0.078 0.088l-0.002 0.002c-0.035 0.050-0.056 0.112-0.056 0.179 0 0.076 0.027 0.145 0.072 0.199l-0-0.001c0.024 0.030 0.058 0.052 0.097 0.061l0.001 0c0 0.001 0 0.002 0 0.002l-0-0c-0.015 0.095 0.022 0.148 0.104 0.152 0.003 0 0.008 0 0.012 0 0.008 0 0.016-0 0.024-0.001l-0.001 0c-0.010 0.056-0.016 0.12-0.016 0.186 0 0.056 0.004 0.111 0.012 0.165l-0.001-0.006-0.008 0.046 0.035 0-0.008 0.060 0.056-0.015 0.003 0.062 0.059-0.017 0.015 0.058 0.057-0.033 0.023 0.053 0.049-0.035 0.022 0.044 0.032-0.029c0.052-0.003 0.1-0.008 0.147-0.017l-0.007 0.001c0.336-0.085 0.631-0.218 0.895-0.395l-0.010 0.007 2.613-1.463c0.072-0.032 0.133-0.069 0.19-0.111l-0.003 0.002c0.417-0.267 0.708-0.833 0.908-1.542zM26.693 16.641c-0.014 0.185-0.501 0.41-0.7 0.437h-0.001c-0.121 0.017-0.169-0.043-0.184-0.116-0.004-0.020-0.006-0.044-0.006-0.068 0-0.017 0.001-0.034 0.003-0.051l-0 0.002 0-0.003 0.001-0.008c0.002-0.012 0.003-0.023 0.005-0.032l0.027-0.011c0.211-0.082 0.497-0.215 0.745-0.339 0.059 0.045 0.105 0.078 0.11 0.153 0 0.005 0.001 0.010 0.001 0.016 0 0.007-0 0.014-0.001 0.020l0-0.001zM28.479 15.741l-1.086 0.619c-0.097 0.071-0.217 0.117-0.346 0.128l-0.003 0-0-0c-0.080-0.011-0.096-0.095-0.147-0.2 0.055-0.031 0.102-0.058 0.138-0.081 0.139-0.096 0.253-0.219 0.337-0.361l0.003-0.005c0.206-0.286 0.439-0.533 0.702-0.746l0.007-0.006c0.085 0.099 0.174 0.189 0.268 0.272l0.003 0.003c0.113-0.052 0.21-0.107 0.301-0.169l-0.007 0.004c0.228 0.277 0.099 0.389-0.17 0.543z"></path>
<path fill="#161615" style="fill: var(--color1, #161615)" d="M17.606 21.905h-3.212c-1.673-0-3.029-1.356-3.029-3.029v0-5.763c0-1.673 1.356-3.029 3.029-3.029h3.212c1.673 0 3.029 1.356 3.029 3.029v5.763c0 0 0 0 0 0 0 1.673-1.356 3.029-3.029 3.029v0z"></path>
<path fill="#f8f9fa" style="fill: var(--color2, #f8f9fa)" d="M16.251 17.987h-0.525c-0.167 0-0.302-0.135-0.302-0.302v0-3.399c0-0.167 0.135-0.302 0.302-0.302v0h0.525c0.167 0 0.302 0.135 0.302 0.302v0 3.399c0 0.167-0.135 0.302-0.302 0.302v0z"></path>
<path fill="#161615" style="fill: var(--color1, #161615)" d="M4.756 10.083l-4.756 7.481v2.494h5.749v1.847h3.071v-1.847h1.362v-2.494h-1.362v-7.481z"></path>
<path fill="#f8f9fa" style="fill: var(--color2, #f8f9fa)" d="M8.82 13.591c-0.183 0.765-0.435 1.314-0.752 1.628-0.002-0.009-0.004-0.016-0.006-0.023l0 0.001c-0.057-0.161-0.286-0.055-0.394-0.009-0.214 0.091-0.338 0.103-0.441-0.019-0.038-0.049-0.071-0.105-0.096-0.165l-0.002-0.005c0.035-0.023 0.065-0.048 0.093-0.074l-0 0c-0.053-0.153-0.187-0.477-0.248-0.626l-0.001-0.004-0.001-0.008c-0.032-0.288-0.356-0.592-0.587-0.83q-0.058-0.060-0.114-0.122c-0.003 0.002-0.006 0.003-0.010 0.003-0.003 0-0.005-0.001-0.007-0.002l0 0c-0.004-0.002-0.007-0.005-0.008-0.009l-0-0c-0.001-0.002-0.001-0.003-0.001-0.005s0.001-0.005 0.002-0.007l-0 0c0.001-0.001 0.002-0.003 0.003-0.004l-0 0q-0.049-0.056-0.097-0.112c-0.001 0.001-0.003 0.002-0.005 0.003l-0 0-0.001 0c-0.002 0.001-0.003 0.001-0.005 0.001-0.007 0-0.013-0.005-0.015-0.011l-0-0c-0.001-0.002-0.001-0.004-0.001-0.006s0.001-0.005 0.002-0.007l-0 0c0.001-0.002 0.002-0.004 0.004-0.005v0c-0.129-0.153-0.251-0.312-0.374-0.47-0.001 0-0.002 0-0.003 0-0.003 0-0.006-0.001-0.009-0.003l0 0c-0.004-0.003-0.007-0.008-0.007-0.014 0-0.003 0.001-0.005 0.002-0.007l-0 0-0.028-0.036c-0.263 0.049-0.527 0.099-0.786 0.162-0.383 0.092-0.539 0.169-0.574 0.272-0.031 0.092-0.023 0.15 0.066 0.358 0.051 0.107 0.096 0.233 0.126 0.364l0.003 0.013c0.008 0.047 0.013 0.101 0.013 0.156 0 0.025-0.001 0.049-0.003 0.073l0-0.003c-0.006 0.038-0.013 0.072-0.023 0.105l0.001-0.005 0.003 0.001c-0.002 0.001-0.004 0.003-0.005 0.004v0c-0.001 0.002-0.002 0.004-0.003 0.006-0.015-0.004-0.024-0.006-0.037 0.008-0.018 0.026-0.031 0.057-0.038 0.091l-0 0.002c-0.026 0.085-0.027 0.097-0.011 0.105h0.001c0.003-0.001 0.007-0.001 0.011-0.002h0c-0.001 0.004-0.003 0.007-0.003 0.011-0.008 0.026-0.013 0.045-0.017 0.059-0.015-0.002-0.026-0.005-0.038 0.008-0.012 0.025-0.022 0.054-0.029 0.085l-0 0.002c-0.026 0.084-0.033 0.095-0.016 0.105l0.016-0.002c-0.001 0.004-0.002 0.008-0.003 0.012-0.010 0.034-0.018 0.055-0.022 0.070-0.004 0.002-0.008 0.005-0.010 0.009l-0 0c-0.003-0.001-0.006-0.001-0.010-0.001-0.013 0-0.024 0.006-0.031 0.016l-0 0c-0.011 0.023-0.020 0.050-0.028 0.079l-0.001 0.003c-0.028 0.088-0.032 0.090-0.011 0.107 0.004-0.002 0.008-0.004 0.013-0.005l0.001-0c-0.001 0.005-0.003 0.009-0.005 0.014-0.008 0.026-0.014 0.044-0.018 0.057l-0.033 0.035c-0.002 0.002-0.005 0.004-0.006 0.007l-0 0-0.013 0.013c-0.017 0.027-0.032 0.059-0.045 0.093l-0.001 0.004c-0.022 0.045-0.018 0.056 0 0.069 0.002 0.001 0.005 0.003 0.007 0.004 0.001 0 0.002 0 0.003 0s0.003-0 0.005-0.001l-0 0 0 0.002c-0.006 0.015-0.012 0.030-0.017 0.040-0.007 0.012-0.012 0.027-0.014 0.043l-0 0.001c-0.006 0.003-0.011 0.007-0.015 0.011l-0 0c-0.056-0.008-0.065 0.074-0.093 0.114-0.028 0.048-0.029 0.062 0.002 0.075 0.005-0 0.010 0 0.015-0-0.006 0.016-0.013 0.029-0.021 0.042l0.001-0.001c-0.005 0.008-0.010 0.017-0.014 0.027l-0.001 0.002c-0.004 0.002-0.008 0.005-0.011 0.008l0-0c-0.002-0-0.003-0-0.005-0-0.022 0-0.041 0.012-0.050 0.031l-0 0c-0.017 0.029-0.033 0.054-0.050 0.077l0.002-0.002c-0.030 0.042-0.029 0.068 0.004 0.075 0.001 0 0.003 0.001 0.004 0.001 0.005-0.001 0.011 0 0.016-0.001-0.009 0.014-0.019 0.028-0.027 0.039-0.004 0.006-0.009 0.014-0.012 0.021l-0 0.001c-0.004-0.001-0.008-0.002-0.012-0.002-0.014 0-0.026 0.006-0.034 0.016l-0 0c-0.003-0.001-0.006-0.001-0.009-0.001-0.018 0-0.034 0.012-0.039 0.029l-0 0c-0.013 0.028-0.027 0.052-0.042 0.074l0.001-0.002c-0.042 0.048-0.019 0.060-0.001 0.072 0.007-0 0.015 0.001 0.022 0.001-0.007 0.013-0.014 0.027-0.023 0.040l-0.004 0.006c-0.026 0.030-0.071 0.077-0.084 0.090s-0.025 0.026-0.038 0.039c0.001 0.002 0.002 0.005 0.002 0.007 0 0.001-0 0.002-0 0.003l0-0c-0.001 0.008-0.008 0.015-0.016 0.015-0.001 0-0.001-0-0.002-0h0c-0.002-0-0.004-0.001-0.006-0.002l0 0c-0.027 0.028-0.053 0.058-0.078 0.088l-0.002 0.002c-0.035 0.050-0.056 0.112-0.056 0.179 0 0.076 0.027 0.145 0.072 0.199l-0-0.001c0.024 0.030 0.058 0.052 0.097 0.061l0.001 0c0 0.001 0 0.002 0 0.002l-0-0c-0.015 0.095 0.022 0.148 0.104 0.152 0.003 0 0.008 0 0.012 0 0.008 0 0.016-0 0.024-0.001l-0.001 0c-0.010 0.056-0.016 0.12-0.016 0.186 0 0.056 0.004 0.111 0.012 0.165l-0.001-0.006-0.008 0.046 0.035 0-0.008 0.060 0.056-0.015 0.003 0.062 0.059-0.017 0.015 0.058 0.057-0.033 0.023 0.053 0.049-0.035 0.022 0.044 0.032-0.029c0.052-0.003 0.1-0.008 0.147-0.017l-0.007 0.001c0.336-0.085 0.631-0.218 0.895-0.395l-0.010 0.007 2.613-1.463c0.072-0.032 0.133-0.069 0.19-0.111l-0.003 0.002c0.417-0.267 0.708-0.833 0.908-1.542zM4.875 16.641c-0.014 0.185-0.501 0.41-0.7 0.437h-0.001c-0.121 0.017-0.169-0.043-0.184-0.116-0.004-0.020-0.006-0.044-0.006-0.068 0-0.017 0.001-0.034 0.003-0.051l-0 0.002 0-0.003 0.001-0.008c0.002-0.012 0.003-0.023 0.005-0.032l0.027-0.011c0.211-0.082 0.497-0.215 0.745-0.339 0.059 0.045 0.104 0.078 0.11 0.153 0 0.005 0.001 0.010 0.001 0.016 0 0.007-0 0.014-0.001 0.020l0-0.001zM6.662 15.741l-1.086 0.619c-0.097 0.071-0.217 0.117-0.346 0.128l-0.003 0-0-0c-0.080-0.011-0.096-0.095-0.147-0.2 0.055-0.031 0.103-0.058 0.138-0.081 0.139-0.096 0.253-0.219 0.337-0.361l0.003-0.005c0.206-0.286 0.439-0.533 0.702-0.746l0.007-0.006c0.085 0.099 0.174 0.189 0.268 0.272l0.003 0.003c0.113-0.052 0.21-0.107 0.301-0.169l-0.007 0.004c0.228 0.277 0.099 0.389-0.17 0.543z"></path>
</symbol>
<symbol id="icon-burger" viewBox="0 0 32 32">
<path d="M0 2.667h32v1.999h-32v-1.999z"></path>
<path d="M0 15h19.2v1.999h-19.2v-1.999z"></path>
<path d="M0 27.333h32v2h-32v-2z"></path>
</symbol>
<symbol id="icon-calendar" viewBox="0 0 32 32">
<path fill="#848788" style="fill: var(--color3, #848788)" d="M28.114 0h-24.229c-2.146 0-3.886 1.74-3.886 3.886v0 24.229c0 2.146 1.74 3.886 3.886 3.886h24.229c2.146 0 3.886-1.74 3.886-3.886v0-24.229c0-2.146-1.74-3.886-3.886-3.886v0zM28.571 28.114c0 0.252-0.205 0.457-0.457 0.457v0h-24.229c-0.252 0-0.457-0.205-0.457-0.457v0-18.971h25.143zM28.571 5.714h-25.143v-1.829c0-0.252 0.205-0.457 0.457-0.457v0h24.229c0.252 0 0.457 0.205 0.457 0.457v0z"></path>
<path fill="#848788" style="fill: var(--color3, #848788)" d="M6.729 12.923h3.429v3.429h-3.429v-3.429z"></path>
<path fill="#848788" style="fill: var(--color3, #848788)" d="M21.842 12.923h3.429v3.429h-3.429v-3.429z"></path>
<path fill="#848788" style="fill: var(--color3, #848788)" d="M14.286 12.923h3.429v3.429h-3.429v-3.429z"></path>
<path fill="#848788" style="fill: var(--color3, #848788)" d="M6.729 19.726h3.429v3.429h-3.429v-3.429z"></path>
<path fill="#848788" style="fill: var(--color3, #848788)" d="M21.842 19.726h3.429v3.429h-3.429v-3.429z"></path>
<path fill="#848788" style="fill: var(--color3, #848788)" d="M14.286 19.726h3.429v3.429h-3.429v-3.429z"></path>
</symbol>
<symbol id="icon-close" viewBox="0 0 32 32">
<path d="M1.882 0l30.117 30.117-1.881 1.881-30.117-30.117 1.881-1.881z"></path>
<path d="M0 30.117l30.117-30.117 1.883 1.883-30.117 30.117-1.883-1.883z"></path>
</symbol>
<symbol id="icon-docx" viewBox="0 0 32 32">
<path fill="#fff" style="fill: var(--color4, #fff)" d="M3.315 0v32h26.99v-26.668l-5.398-5.332z"></path>
<path fill="#e1e3e5" style="fill: var(--color5, #e1e3e5)" d="M25.734 0v4.571h4.571z"></path>
<path fill="#02b2ff" style="fill: var(--color6, #02b2ff)" d="M23.478 22.765h-22.107v-11.63c0-0.941 0.763-1.703 1.703-1.703h23.842c0.643 0 1.164 0.521 1.164 1.164 0 0.113-0.016 0.222-0.046 0.325l0.002-0.008-3.034 10.697c-0.195 0.671-0.804 1.153-1.525 1.153v0z"></path>
<path fill="#0081b6" style="fill: var(--color7, #0081b6)" d="M3.639 25.216v-2.451h-2.267z"></path>
<path fill="#fff" style="fill: var(--color4, #fff)" d="M7.243 19.782c-0.006 0-0.013 0-0.020 0-0.368 0-0.717-0.082-1.030-0.228l0.015 0.006c-0.324-0.152-0.596-0.363-0.814-0.622l-0.003-0.004c-0.233-0.284-0.416-0.619-0.529-0.985l-0.005-0.021c-0.122-0.386-0.192-0.83-0.192-1.29 0-0.018 0-0.035 0-0.053l-0 0.003c-0-0.015-0-0.034-0-0.052 0-0.459 0.071-0.902 0.203-1.317l-0.008 0.031c0.119-0.387 0.304-0.722 0.544-1.010l-0.004 0.005c0.223-0.259 0.498-0.468 0.808-0.612l0.015-0.006c0.296-0.138 0.643-0.218 1.008-0.218 0.009 0 0.018 0 0.027 0h-0.001c0.007-0 0.015-0 0.023-0 0.208 0 0.408 0.029 0.598 0.083l-0.015-0.004c0.172 0.046 0.322 0.109 0.461 0.188l-0.010-0.005c0.127 0.079 0.236 0.17 0.332 0.273l0.001 0.001c0.081 0.083 0.155 0.172 0.222 0.267l0.005 0.007c0.044 0.070 0.097 0.159 0.159 0.265h0.071v-3.057h1.198v8.229h-1.173v-0.957h-0.101c-0.058 0.106-0.111 0.193-0.169 0.277l0.007-0.010c-0.075 0.104-0.152 0.195-0.235 0.28l0.001-0c-0.098 0.105-0.208 0.196-0.33 0.27l-0.007 0.004c-0.131 0.075-0.284 0.138-0.444 0.18l-0.013 0.003c-0.173 0.050-0.372 0.079-0.578 0.079-0.007 0-0.013-0-0.020-0h0.001zM7.504 18.757c0.017 0.001 0.037 0.001 0.058 0.001 0.467 0 0.88-0.234 1.128-0.591l0.003-0.005c0.268-0.41 0.428-0.913 0.428-1.453 0-0.048-0.001-0.095-0.004-0.142l0 0.007c0.002-0.042 0.004-0.090 0.004-0.139 0-0.531-0.158-1.025-0.43-1.437l0.006 0.010c-0.254-0.353-0.663-0.58-1.125-0.58-0.022 0-0.044 0.001-0.066 0.002l0.003-0c-0.012-0-0.027-0.001-0.041-0.001-0.324 0-0.622 0.106-0.863 0.286l0.004-0.003c-0.248 0.194-0.438 0.452-0.545 0.75l-0.004 0.012c-0.116 0.314-0.183 0.677-0.183 1.056 0 0.016 0 0.032 0 0.049l-0-0.002c-0 0.014-0 0.031-0 0.048 0 0.383 0.067 0.749 0.19 1.090l-0.007-0.022c0.112 0.315 0.304 0.579 0.551 0.775l0.003 0.003c0.236 0.181 0.536 0.289 0.861 0.289 0.013 0 0.025-0 0.038-0l-0.002 0z"></path>
<path fill="#fff" style="fill: var(--color4, #fff)" d="M16.014 19.389c-0.415 0.249-0.916 0.396-1.45 0.396-0.023 0-0.045-0-0.068-0.001l0.003 0c-0.019 0-0.041 0.001-0.063 0.001-0.535 0-1.036-0.147-1.465-0.403l0.013 0.007c-0.437-0.269-0.782-0.65-0.999-1.104l-0.007-0.016c-0.223-0.465-0.354-1.012-0.354-1.588 0-0.028 0-0.056 0.001-0.084l-0 0.004c-0.002-0.048-0.004-0.104-0.004-0.161 0-0.825 0.299-1.58 0.794-2.162l-0.004 0.005c0.491-0.54 1.196-0.877 1.979-0.877 0.039 0 0.078 0.001 0.116 0.002l-0.005-0c0.033-0.001 0.072-0.002 0.111-0.002 0.784 0 1.488 0.338 1.977 0.875l0.002 0.002c0.492 0.577 0.792 1.332 0.792 2.156 0 0.057-0.001 0.114-0.004 0.17l0-0.008c0.001 0.024 0.001 0.052 0.001 0.080 0 0.577-0.13 1.123-0.363 1.611l0.010-0.023c-0.224 0.47-0.568 0.851-0.994 1.114l-0.011 0.006zM14.511 18.776c0.006 0 0.013 0 0.021 0 0.26 0 0.504-0.064 0.719-0.176l-0.009 0.004c0.215-0.115 0.391-0.275 0.52-0.47l0.003-0.005c0.13-0.198 0.234-0.428 0.298-0.674l0.004-0.016c0.064-0.252 0.101-0.542 0.101-0.84s-0.037-0.588-0.107-0.865l0.005 0.024c-0.069-0.264-0.172-0.495-0.307-0.704l0.006 0.009c-0.132-0.2-0.308-0.361-0.515-0.473l-0.008-0.004c-0.214-0.111-0.467-0.177-0.736-0.177s-0.522 0.065-0.745 0.181l0.009-0.004c-0.215 0.115-0.391 0.276-0.521 0.471l-0.003 0.005c-0.132 0.199-0.237 0.431-0.301 0.679l-0.004 0.016c-0.064 0.252-0.101 0.542-0.101 0.84s0.037 0.588 0.107 0.865l-0.005-0.024c0.067 0.262 0.172 0.492 0.31 0.698l-0.005-0.008c0.133 0.2 0.309 0.361 0.516 0.472l0.008 0.004c0.207 0.108 0.453 0.172 0.713 0.172 0.009 0 0.017-0 0.026-0l-0.001 0z"></path>
<path fill="#fff" style="fill: var(--color4, #fff)" d="M21.252 19.788c-0.020 0.001-0.044 0.001-0.068 0.001-0.543 0-1.051-0.152-1.482-0.417l0.012 0.007c-0.435-0.272-0.777-0.655-0.992-1.111l-0.007-0.016c-0.216-0.462-0.342-1.003-0.342-1.573 0-0.025 0-0.051 0.001-0.076l-0 0.004c-0-0.023-0.001-0.050-0.001-0.077 0-0.576 0.13-1.121 0.362-1.608l-0.010 0.023c0.225-0.472 0.569-0.856 0.995-1.123l0.011-0.007c0.413-0.254 0.914-0.404 1.449-0.404 0.021 0 0.042 0 0.062 0.001l-0.003-0c0.029-0.001 0.063-0.002 0.096-0.002 0.627 0 1.205 0.215 1.662 0.575l-0.006-0.004c0.449 0.362 0.747 0.895 0.796 1.498l0 0.008h-1.17c-0.125-0.61-0.657-1.063-1.296-1.063-0.022 0-0.044 0.001-0.066 0.002l0.003-0c-0.013-0-0.029-0.001-0.044-0.001-0.477 0-0.9 0.228-1.167 0.581l-0.003 0.004c-0.288 0.4-0.461 0.899-0.461 1.439 0 0.046 0.001 0.092 0.004 0.138l-0-0.006c-0.002 0.040-0.003 0.087-0.003 0.134 0 0.549 0.172 1.058 0.466 1.476l-0.005-0.008c0.268 0.361 0.693 0.593 1.172 0.593 0.016 0 0.032-0 0.048-0.001l-0.002 0c0.011 0 0.025 0.001 0.038 0.001 0.318 0 0.612-0.106 0.848-0.284l-0.004 0.003c0.241-0.192 0.413-0.462 0.475-0.772l0.001-0.008h1.17c-0.055 0.605-0.346 1.132-0.778 1.497l-0.003 0.003c-0.444 0.362-1.017 0.581-1.642 0.581-0.040 0-0.079-0.001-0.118-0.003l0.006 0z"></path>
</symbol>
<symbol id="icon-home" viewBox="0 0 32 32">
<path fill="#fff" style="fill: var(--color4, #fff)" d="M31.090 8.356l-14.201-8.119c-0.255-0.15-0.562-0.238-0.889-0.238s-0.634 0.088-0.897 0.243l0.008-0.005-14.201 8.119c-0.548 0.32-0.91 0.905-0.91 1.575 0 0.001 0 0.002 0 0.003v-0 20.256c0 0.003-0 0.006-0 0.009 0 0.993 0.803 1.799 1.795 1.803h28.409c0.993-0.004 1.796-0.81 1.796-1.803 0-0.003 0-0.006-0-0.009v0-20.256c0-0.001 0-0.002 0-0.002 0-0.67-0.362-1.255-0.902-1.57l-0.009-0.005zM19.641 29.333h-7.289v-13.028h7.289zM29.333 29.333h-7.026v-15.694h-12.622v15.694h-7.019v-18.908l13.333-7.625 13.333 7.625z"></path>
</symbol>
<symbol id="icon-mark" viewBox="0 0 32 32">
<path d="M8 0h16c4.418 0 8 3.582 8 8v16c0 4.418-3.582 8-8 8h-16c-4.418 0-8-3.582-8-8v-16c0-4.418 3.582-8 8-8z"></path>
</symbol>
<symbol id="icon-next" viewBox="0 0 32 32">
<path fill="#fff" style="fill: var(--color4, #fff)" d="M6.4 2.934l13.066 13.066-13.066 13.066 2.934 2.934 16-16-16-16z"></path>
</symbol>
<symbol id="icon-pdf" viewBox="0 0 32 32">
<path fill="#fff" style="fill: var(--color4, #fff)" d="M3.639 0v32h26.666v-26.668l-5.333-5.332z"></path>
<path fill="#e1e3e5" style="fill: var(--color5, #e1e3e5)" d="M24.972 0v5.332h5.333z"></path>
<path fill="#fc1f3c" style="fill: var(--color8, #fc1f3c)" d="M23.478 22.765h-22.107v-11.63c0-0.941 0.763-1.703 1.703-1.703h23.842c0.643 0 1.164 0.521 1.164 1.164 0 0.113-0.016 0.222-0.046 0.325l0.002-0.008-3.034 10.697c-0.195 0.671-0.804 1.153-1.525 1.153v0z"></path>
<path fill="#b01f46" style="fill: var(--color9, #b01f46)" d="M3.639 25.216v-2.451h-2.267z"></path>
<path fill="#fff" style="fill: var(--color4, #fff)" d="M6.15 21.733v-8.229h1.137v0.971h0.097c0.057-0.101 0.109-0.183 0.153-0.255 0.069-0.101 0.142-0.189 0.221-0.27l-0 0.001c0.093-0.102 0.198-0.191 0.315-0.263l0.006-0.004c0.126-0.073 0.272-0.136 0.425-0.18l0.014-0.003c0.171-0.049 0.368-0.078 0.571-0.078 0.006 0 0.011 0 0.017 0h-0.001c0.007-0 0.016-0 0.024-0 0.356 0 0.693 0.078 0.996 0.217l-0.015-0.006c0.315 0.146 0.581 0.348 0.796 0.597l0.003 0.003c0.229 0.275 0.408 0.6 0.519 0.956l0.005 0.020c0.12 0.372 0.189 0.801 0.189 1.246 0 0.018-0 0.036-0 0.055l0-0.003c0.003 0.056 0.005 0.122 0.005 0.188 0 0.784-0.264 1.507-0.709 2.083l0.006-0.008c-0.414 0.512-1.042 0.836-1.746 0.836-0.020 0-0.041-0-0.061-0.001l0.003 0c-0.007 0-0.016 0-0.024 0-0.197 0-0.388-0.027-0.569-0.079l0.015 0.004c-0.167-0.047-0.313-0.109-0.449-0.188l0.009 0.005c-0.124-0.076-0.232-0.162-0.326-0.262l-0.001-0.001c-0.083-0.081-0.16-0.168-0.23-0.259l-0.004-0.006c-0.050-0.072-0.103-0.157-0.151-0.244l-0.008-0.015h-0.066v3.176zM7.292 16.496c-0.002 0.039-0.003 0.085-0.003 0.132 0 0.523 0.155 1.011 0.422 1.418l-0.006-0.010c0.244 0.351 0.646 0.578 1.1 0.578 0.018 0 0.035-0 0.053-0.001l-0.003 0c0.011 0 0.023 0 0.035 0 0.316 0 0.607-0.106 0.839-0.284l-0.003 0.002c0.245-0.192 0.431-0.448 0.537-0.742l0.004-0.012c0.111-0.307 0.175-0.66 0.175-1.029 0-0.018-0-0.037-0-0.055l0 0.003c0-0.017 0.001-0.037 0.001-0.057 0-0.362-0.064-0.71-0.181-1.031l0.007 0.021c-0.108-0.301-0.293-0.551-0.532-0.736l-0.004-0.003c-0.23-0.172-0.52-0.275-0.835-0.275-0.015 0-0.030 0-0.044 0.001l0.002-0c-0.019-0.001-0.041-0.002-0.064-0.002-0.448 0-0.845 0.22-1.088 0.558l-0.003 0.004c-0.258 0.391-0.411 0.87-0.411 1.385 0 0.047 0.001 0.095 0.004 0.141l-0-0.006z"></path>
<path fill="#fff" style="fill: var(--color4, #fff)" d="M15.165 19.607c-0.007 0-0.015 0-0.022 0-0.357 0-0.695-0.079-0.998-0.221l0.014 0.006c-0.314-0.147-0.578-0.352-0.79-0.603l-0.003-0.003c-0.227-0.276-0.405-0.602-0.514-0.958l-0.005-0.020c-0.116-0.372-0.183-0.799-0.183-1.242 0-0.020 0-0.040 0-0.060l-0 0.003c-0-0.015-0-0.034-0-0.052 0-0.445 0.069-0.873 0.197-1.275l-0.008 0.030c0.114-0.377 0.293-0.703 0.526-0.983l-0.004 0.005c0.215-0.252 0.48-0.455 0.78-0.595l0.014-0.006c0.288-0.133 0.626-0.211 0.981-0.211 0.009 0 0.017 0 0.026 0h-0.001c0.005-0 0.011-0 0.017-0 0.203 0 0.399 0.028 0.585 0.081l-0.015-0.004c0.167 0.048 0.312 0.11 0.446 0.188l-0.009-0.005c0.123 0.077 0.229 0.165 0.322 0.265l0.001 0.001c0.079 0.080 0.151 0.167 0.215 0.26l0.004 0.007c0.043 0.069 0.091 0.155 0.155 0.258h0.070v-2.965h1.165v7.983h-1.139v-0.933h-0.097c-0.056 0.103-0.109 0.188-0.166 0.27l0.007-0.010c-0.073 0.102-0.148 0.191-0.229 0.275l0.001-0.001c-0.095 0.1-0.202 0.187-0.32 0.259l-0.007 0.004c-0.126 0.074-0.272 0.136-0.426 0.18l-0.014 0.003c-0.168 0.049-0.361 0.077-0.561 0.077-0.006 0-0.013-0-0.019-0h0.001zM15.421 18.612c0.016 0.001 0.035 0.001 0.053 0.001 0.454 0 0.855-0.227 1.096-0.574l0.003-0.004c0.26-0.398 0.415-0.886 0.415-1.409 0-0.046-0.001-0.092-0.004-0.137l0 0.006c0.002-0.040 0.004-0.087 0.004-0.135 0-0.515-0.154-0.994-0.417-1.394l0.006 0.010c-0.246-0.342-0.644-0.562-1.092-0.562-0.022 0-0.045 0.001-0.067 0.002l0.003-0c-0.011-0-0.025-0.001-0.038-0.001-0.314 0-0.604 0.103-0.838 0.277l0.004-0.003c-0.243 0.187-0.428 0.438-0.532 0.728l-0.003 0.011c-0.11 0.301-0.174 0.648-0.174 1.011 0 0.020 0 0.040 0.001 0.060l-0-0.003c-0 0.016-0 0.034-0 0.052 0 0.369 0.064 0.723 0.182 1.051l-0.007-0.022c0.109 0.305 0.295 0.56 0.534 0.751l0.003 0.003c0.229 0.175 0.519 0.281 0.834 0.281 0.012 0 0.024-0 0.037-0l-0.002 0z"></path>
<path fill="#fff" style="fill: var(--color4, #fff)" d="M22.641 13.502v0.936h-1.289v5.050h-1.17v-5.050h-0.923v-0.936h0.923v-0.693c-0-0.008-0-0.017-0-0.026 0-0.255 0.054-0.498 0.15-0.717l-0.005 0.011c0.090-0.21 0.223-0.387 0.388-0.526l0.002-0.002c0.16-0.131 0.348-0.236 0.552-0.304l0.013-0.004c0.198-0.067 0.426-0.105 0.663-0.105 0.005 0 0.010 0 0.016 0h-0.001c0.015-0 0.032-0 0.050-0 0.332 0 0.65 0.059 0.945 0.167l-0.019-0.006-0.274 0.944c-0.155-0.054-0.334-0.088-0.52-0.091l-0.002-0c-0.022-0.002-0.048-0.004-0.074-0.004-0.205 0-0.391 0.079-0.529 0.209l0-0c-0.116 0.149-0.185 0.339-0.185 0.545 0 0.024 0.001 0.048 0.003 0.071l-0-0.003v0.538z"></path>
</symbol>
<symbol id="icon-phone" viewBox="0 0 32 32">
<path d="M6.84 2.4c0.66 0 1.32 0 1.98 0.013 1.36 0.019 1.779 0.511 1.923 1.821 0.196 1.818 0.457 3.405 0.797 4.963l-0.055-0.303c0.067 0.199 0.106 0.428 0.106 0.666 0 0.64-0.28 1.216-0.725 1.609l-0.002 0.002c-0.886 0.813-1.706 1.645-2.483 2.516l-0.030 0.034c-0.127 0.182-0.203 0.408-0.203 0.652 0 0.141 0.025 0.276 0.072 0.401l-0.003-0.008c2.124 3.834 5.204 6.911 8.925 8.972l0.116 0.059c0.086 0.042 0.188 0.066 0.295 0.066 0.010 0 0.021-0 0.031-0.001l-0.001 0c0.007 0 0.014 0 0.022 0 0.261 0 0.503-0.084 0.7-0.225l-0.004 0.002c0.919-0.813 1.788-1.688 2.627-2.585 0.339-0.388 0.835-0.632 1.388-0.632 0.014 0 0.027 0 0.041 0l-0.002-0c0.241 0.003 0.473 0.030 0.698 0.079l-0.023-0.004q2.417 0.468 4.868 0.769c1.133 0.133 1.647 0.571 1.693 1.723 0.032 0.8 0 1.616 0.007 2.424 0 0.773 0.016 1.547 0 2.319-0.032 1.333-0.5 1.867-1.761 1.867h-0.188c-8.26-0.080-15.562-4.11-20.118-10.288l-0.049-0.069c-3.084-4.040-4.977-9.135-5.078-14.667l-0-0.023c-0.051-1.667 0.4-2.133 2.096-2.143q1.173-0.009 2.343-0.009zM6.84 0c-0.785 0-1.571 0-2.355 0.009-0.1-0.008-0.216-0.012-0.333-0.012-1.191 0-2.275 0.457-3.087 1.206l0.003-0.003c-0.679 0.784-1.093 1.814-1.093 2.941 0 0.171 0.009 0.339 0.028 0.505l-0.002-0.020c0.118 6.076 2.189 11.646 5.609 16.132l-0.049-0.067c5.027 6.809 12.984 11.204 21.973 11.309l0.017 0c0.096 0 0.188 0 0.279 0 0.080 0.006 0.173 0.009 0.267 0.009 2.157 0 3.905-1.748 3.905-3.905 0-0.111-0.005-0.22-0.014-0.329l0.001 0.014c0.013-0.573 0.011-1.147 0.007-1.72v-0.659c0-0.249 0-0.499 0-0.749 0-0.589 0.011-1.179-0.013-1.767 0-0.022 0.001-0.048 0.001-0.074 0-2.125-1.684-3.857-3.791-3.933l-0.007-0c-1.6-0.199-3.18-0.448-4.703-0.744-0.34-0.073-0.731-0.116-1.131-0.119h-0.002c-0.015-0-0.033-0-0.052-0-1.239 0-2.354 0.536-3.124 1.389l-0.003 0.004c-0.616 0.659-1.172 1.223-1.703 1.733-2.706-1.687-4.925-3.908-6.56-6.531l-0.050-0.085c0.487-0.512 1.028-1.041 1.635-1.6 0.918-0.83 1.493-2.026 1.493-3.355 0-0.423-0.058-0.832-0.167-1.221l0.008 0.032c-0.268-1.188-0.514-2.693-0.681-4.221l-0.017-0.195c-0.017-2.196-1.802-3.969-4-3.969-0.096 0-0.192 0.003-0.286 0.010l0.013-0.001q-1.008-0.013-2.015-0.013z"></path>
</symbol>
<symbol id="icon-phone-1" viewBox="0 0 32 32">
<path d="M6.84 2.4c0.66 0 1.32 0 1.98 0.013 1.36 0.019 1.779 0.511 1.923 1.821 0.196 1.818 0.457 3.405 0.797 4.963l-0.055-0.303c0.067 0.199 0.106 0.428 0.106 0.666 0 0.64-0.28 1.216-0.725 1.609l-0.002 0.002c-0.886 0.813-1.706 1.645-2.483 2.516l-0.030 0.034c-0.127 0.182-0.203 0.408-0.203 0.652 0 0.141 0.025 0.276 0.072 0.401l-0.003-0.008c2.124 3.834 5.204 6.911 8.925 8.972l0.116 0.059c0.086 0.042 0.188 0.066 0.295 0.066 0.010 0 0.021-0 0.031-0.001l-0.001 0c0.007 0 0.014 0 0.022 0 0.261 0 0.503-0.084 0.7-0.225l-0.004 0.002c0.919-0.813 1.788-1.688 2.627-2.585 0.339-0.388 0.835-0.632 1.388-0.632 0.014 0 0.027 0 0.041 0l-0.002-0c0.241 0.003 0.473 0.030 0.698 0.079l-0.023-0.004q2.417 0.468 4.868 0.769c1.133 0.133 1.647 0.571 1.693 1.723 0.032 0.8 0 1.616 0.007 2.424 0 0.773 0.016 1.547 0 2.319-0.032 1.333-0.5 1.867-1.761 1.867h-0.188c-8.26-0.080-15.562-4.11-20.118-10.288l-0.049-0.069c-3.084-4.040-4.977-9.135-5.078-14.667l-0-0.023c-0.051-1.667 0.4-2.133 2.096-2.143q1.173-0.009 2.343-0.009zM6.84 0c-0.785 0-1.571 0-2.355 0.009-0.1-0.008-0.216-0.012-0.333-0.012-1.191 0-2.275 0.457-3.087 1.206l0.003-0.003c-0.679 0.784-1.093 1.814-1.093 2.941 0 0.171 0.009 0.339 0.028 0.505l-0.002-0.020c0.118 6.076 2.189 11.646 5.609 16.132l-0.049-0.067c5.027 6.809 12.984 11.204 21.973 11.309l0.017 0c0.096 0 0.188 0 0.279 0 0.080 0.006 0.173 0.009 0.267 0.009 2.157 0 3.905-1.748 3.905-3.905 0-0.111-0.005-0.22-0.014-0.329l0.001 0.014c0.013-0.573 0.011-1.147 0.007-1.72v-0.659c0-0.249 0-0.499 0-0.749 0-0.589 0.011-1.179-0.013-1.767 0-0.022 0.001-0.048 0.001-0.074 0-2.125-1.684-3.857-3.791-3.933l-0.007-0c-1.6-0.199-3.18-0.448-4.703-0.744-0.34-0.073-0.731-0.116-1.131-0.119h-0.002c-0.015-0-0.033-0-0.052-0-1.239 0-2.354 0.536-3.124 1.389l-0.003 0.004c-0.616 0.659-1.172 1.223-1.703 1.733-2.706-1.687-4.925-3.908-6.56-6.531l-0.050-0.085c0.487-0.512 1.028-1.041 1.635-1.6 0.918-0.83 1.493-2.026 1.493-3.355 0-0.423-0.058-0.832-0.167-1.221l0.008 0.032c-0.268-1.188-0.514-2.693-0.681-4.221l-0.017-0.195c-0.017-2.196-1.802-3.969-4-3.969-0.096 0-0.192 0.003-0.286 0.010l0.013-0.001q-1.008-0.013-2.015-0.013z"></path>
</symbol>
<symbol id="icon-search" viewBox="0 0 32 32">
<path  d="M32 30.326l-8.064-8.064c1.971-2.34 3.169-5.387 3.169-8.715 0-7.493-6.074-13.566-13.566-13.566s-13.566 6.074-13.566 13.566c0 7.493 6.074 13.566 13.566 13.566 3.332 0 6.384-1.201 8.745-3.194l-0.020 0.017 8.062 8.064zM2.366 13.557c0-0 0-0.001 0-0.002 0-6.181 5.011-11.192 11.192-11.192s11.192 5.011 11.192 11.192c0 6.178-5.006 11.187-11.184 11.192h-0c-6.182 0-11.195-5.009-11.2-11.19v-0.001z"></path>
</symbol>
<symbol id="icon-skate" viewBox="0 0 32 32">
<path fill="#fed92b" style="fill: var(--color10, #fed92b)" d="M31.5 23.032c-0.19-0.177-0.393-0.348-0.605-0.509l-0.019-0.014c-0.010 0.008-0.022 0.013-0.034 0.017l-0.001 0c-0.008 0.002-0.018 0.004-0.028 0.004-0.020 0-0.039-0.005-0.055-0.015l0.001 0c-0.025-0.015-0.043-0.038-0.051-0.066l-0-0.001c-0.004-0.010-0.006-0.022-0.006-0.034s0.002-0.024 0.006-0.035l-0 0.001c-0.1-0.074-0.193-0.148-0.293-0.221s-0.444-0.346-0.65-0.516l-0.032-0.035c-0.070-0.076-0.129-0.159-0.191-0.24 0.049-0.009 0.1-0.022 0.148-0.028v0c0.106-0.1 0.248-0.2-0.080-0.48-0.123-0.132-0.238-0.277-0.341-0.429l-0.008-0.013c-0.045-0.093-0.139-0.157-0.248-0.157-0.036 0-0.070 0.007-0.102 0.019l0.002-0.001c-0.053-0.045-0.123-0.072-0.199-0.072-0.046 0-0.090 0.010-0.129 0.028l0.002-0.001c-0.034-0.050-0.069-0.095-0.108-0.136l0.001 0.001c-0.068-0.067-0.148-0.152-0.221-0.233 0.038 0 0.073-0.011 0.11-0.013 0.008 0 0.016-0.007 0.025-0.011 0.21-0.082 0.19-0.253-0.052-0.505-0.137-0.138-0.268-0.284-0.391-0.436l-0.009-0.011c-0.069-0.097-0.182-0.159-0.308-0.159-0.033 0-0.064 0.004-0.094 0.012l0.003-0.001c-0.023-0.016-0.049-0.030-0.077-0.041l-0.003-0.001c-0.044-0.066-0.086-0.123-0.132-0.178l0.002 0.003c-0.064-0.074-0.123-0.157-0.173-0.245l-0.004-0.008c0.035 0 0.069-0.011 0.1-0.013 0.19-0.118 0.171-0.209-0.063-0.5-0.224-0.238-0.369-0.778-0.736-0.667-0.031-0.026-0.068-0.046-0.109-0.058l-0.002-0.001c-0.030-0.105-0.077-0.196-0.139-0.276l0.001 0.002c-0.042-0.061-0.1-0.153-0.155-0.249v-0.011c0.016 0 0.032 0 0.048-0.005 0.012-0.012 0.026-0.023 0.040-0.033l0.001-0.001c0.108-0.11 0.123-0.185-0.068-0.463-0.129-0.228-0.264-0.424-0.415-0.607l0.006 0.007-0.1-0.076c-0.015-0.014-0.032-0.027-0.049-0.039l-0.002-0.001-0.255-0.2c-0.040-0.085-0.1-0.2-0.181-0.363-0.013-0.031-0.032-0.058-0.045-0.088 0.036 0.006 0.068 0.013 0.099 0.022l-0.005-0.001c0.119-0.134 0.091-0.143-0.185-0.7-0.084-0.2-0.175-0.37-0.28-0.53l0.008 0.012c-0.046-0.047-0.111-0.076-0.182-0.076-0.038 0-0.073 0.008-0.106 0.023l0.002-0.001c-0.022-0.021-0.048-0.037-0.076-0.048l-0.002-0c-0.042-0.095-0.112-0.232-0.215-0.445-0.009-0.026-0.023-0.049-0.033-0.075 0.037 0 0.072 0 0.107 0 0.106-0.085 0.047-0.153-0.211-0.684-0.077-0.211-0.172-0.393-0.287-0.56l0.005 0.008c-0.091-0.078-0.163-0.045-0.26-0.015-0.039-0.092-0.094-0.21-0.174-0.377-0.009-0.025-0.024-0.047-0.035-0.072 0.025 0 0.048-0.005 0.073 0h0.005c0.1-0.067 0.081-0.149-0.179-0.686-0.085-0.222-0.203-0.414-0.351-0.578l0.001 0.002c-0.1-0.081-0.159-0.056-0.257-0.016-0.011-0.013-0.018-0.027-0.029-0.039-0.012-0.008-0.025-0.016-0.038-0.023l-0.002-0.001 0.022-0.011c-0.086-0.176-0.17-0.388-0.239-0.607l-0.009-0.034c-0.104-0.436-0.163-0.937-0.163-1.451 0-0.024 0-0.048 0-0.072l-0 0.004c0.072-0.97 0.24-1.87 0.498-2.732l-0.023 0.090c0.387-1.478 0.378-1.873 0.078-2.454-0.337-0.653-1.453-1.004-4.099-1.228-1.789-0.151-3.601-0.215-5.4-0.276l-0.15 0.27c0.013 0.017 0.020 0.038 0.020 0.060 0 0.003-0 0.005-0 0.008l0-0c0 0 0 0.001 0 0.001 0 0.030-0.014 0.058-0.035 0.076l-0 0c-0.019 0.018-0.045 0.029-0.073 0.029-0.002 0-0.005-0-0.007-0l0 0c-0.655 1.179-1.307 2.362-2.009 3.514 0.013 0.009 0.024 0.019 0.033 0.032l0 0c0.012 0.016 0.020 0.037 0.020 0.059 0 0.008-0.001 0.016-0.003 0.023l0-0.001c-0.009 0.051-0.053 0.090-0.107 0.090-0.008 0-0.015-0.001-0.022-0.002l0.001 0c-0.014-0.002-0.027-0.008-0.037-0.015l0 0q-0.263 0.426-0.535 0.846c0.008 0.007 0.015 0.014 0.021 0.023l0 0c0.012 0.017 0.020 0.039 0.020 0.063 0 0.007-0.001 0.014-0.002 0.020l0-0.001c-0.006 0.030-0.022 0.054-0.046 0.071l-0 0c-0.017 0.012-0.039 0.019-0.062 0.019-0.019 0-0.037-0.005-0.052-0.013l0.001 0q-0.31 0.471-0.638 0.929c-1.3 1.822-3.145 4.176-3.066 6.129v0.054l-0.006 0.026c-0.253 1.053-0.815 3.349-1.011 4.423 0.199 0.142 0.425 0.275 0.663 0.388l0.027 0.012c-0.111 0.466-0.275 0.876-0.489 1.255l0.012-0.024c-0.559 0.921-1.4 0.966-2.919 0.577v0c-0.768-0.2-2.4-0.672-2.617 0.46-0.011 0.054-0.017 0.117-0.017 0.181 0 0.269 0.112 0.511 0.292 0.684l0 0c0.661 0.518 1.443 0.919 2.292 1.155l0.047 0.011 18.898 7.084c1.835 0.866 3.968 1.464 6.212 1.677l0.078 0.006c0.047 0.001 0.103 0.002 0.158 0.002 0.277 0 0.551-0.014 0.821-0.041l-0.034 0.003 0.243 0.157 0.1-0.315 0.361 0.18 0.1-0.374 0.413 0.164 0.043-0.4 0.409 0.051-0.042-0.419 0.39 0.044-0.118-0.392 0.232-0.039-0.1-0.3c-0.008-0.823-0.147-1.611-0.396-2.347l0.016 0.053c0.085-0.005 0.165-0.016 0.242-0.032l-0.011 0.002c0.544-0.112 0.738-0.5 0.541-1.117v0c0-0.002 0-0.005 0-0.008s-0-0.005-0-0.008l0 0c0.253-0.097 0.458-0.274 0.588-0.499l0.003-0.006c0.186-0.308 0.296-0.679 0.296-1.077 0-0.563-0.221-1.073-0.58-1.451l0.001 0.001zM10.559 5.617v0 0zM20.23 26.117c-0.099 0.008-0.215 0.012-0.331 0.012-0.775 0-1.506-0.189-2.149-0.524l0.026 0.012-7.867-3.017c-1.949-0.746-2.923-1.367-1.685-3.442 0.595 0.293 1.302 0.565 2.034 0.777l0.094 0.023c0.521-0.621 1.023-1.308 1.478-2.029l0.046-0.078c2.092 1.229 3.895 2.649 5.482 4.28l0.006 0.006c0.709 0.874 1.588 1.58 2.591 2.074l0.045 0.020c0.263 0.116 0.606 0.253 1.005 0.4-0.233 0.753-0.254 1.327-0.774 1.484zM27.837 28.975h-0.005c-1.351 0.022-4.822-0.982-5.107-2.2-0.017-0.067-0.031-0.147-0.038-0.229l-0-0.005c-0.042-0.508 0.227-0.775 0.575-1.133 1.776 0.577 3.817 1.169 5.308 1.5l0.19 0.044c0.021 0.062 0.044 0.133 0.066 0.21l0.014 0.049 0.006 0.022c0.064 0.212 0.101 0.455 0.101 0.707 0 0.027-0 0.054-0.001 0.081l0-0.004c-0.027 0.5-0.282 0.944-1.108 0.957z"></path>
</symbol>
<symbol id="icon-Telegram" viewBox="0 0 32 32">
<path fill="#039be5" style="fill: var(--color11, #039be5)" d="M31.934 3.755c-0.052-0.243-0.23-0.435-0.461-0.506l-0.005-0.001c-0.14-0.029-0.301-0.046-0.466-0.046-0.284 0-0.556 0.050-0.808 0.141l0.017-0.005s-28.037 10.075-29.638 11.19c-0.347 0.242-0.464 0.381-0.52 0.546-0.275 0.8 0.59 1.146 0.59 1.146l7.229 2.352c0.043 0.009 0.093 0.014 0.144 0.014 0.079 0 0.156-0.012 0.228-0.034l-0.005 0.001c1.643-1.037 16.538-10.445 17.398-10.762 0.13-0.040 0.235 0 0.208 0.099-0.347 1.206-13.28 12.707-13.28 12.707-0.034 0.038-0.062 0.083-0.082 0.131l-0.001 0.003h-0.014l-0.674 7.166s-0.285 2.197 1.92 0c1.546-1.546 3.040-2.845 3.797-3.477 2.488 1.714 5.163 3.619 6.317 4.606 0.36 0.345 0.849 0.557 1.387 0.557 0.001 0 0.002 0 0.003 0h0.062c1.096-0.040 1.4-1.243 1.4-1.243s5.109-20.555 5.28-23.318c0.014-0.274 0.040-0.445 0.040-0.63 0.001-0.029 0.002-0.064 0.002-0.098 0-0.192-0.023-0.379-0.068-0.558l0.003 0.016z"></path>
</symbol>
<symbol id="icon-up" viewBox="0 0 32 32">
<path fill="#66d0ff" style="fill: var(--color12, #66d0ff)" d="M14.275 3.963l1.773-1.773 1.773 1.773-1.773 1.773-1.773-1.773z"></path>
<path fill="#66d0ff" style="fill: var(--color12, #66d0ff)" d="M15.116 0.931l0.931-0.931 0.931 0.931-0.931 0.931-0.931-0.931z"></path>
<path fill="#66d0ff" style="fill: var(--color12, #66d0ff)" d="M14.179 28.037l1.774-1.774 1.774 1.774-1.774 1.774-1.774-1.774z"></path>
<path fill="#66d0ff" style="fill: var(--color12, #66d0ff)" d="M15.021 31.069l0.932-0.931 0.931 0.932-0.932 0.931-0.931-0.932z"></path>
<path fill="#66d0ff" style="fill: var(--color12, #66d0ff)" d="M2.19 15.952l1.773-1.773 1.773 1.773-1.773 1.773-1.773-1.773z"></path>
<path fill="#66d0ff" style="fill: var(--color12, #66d0ff)" d="M0 15.952l0.932-0.931 0.931 0.932-0.932 0.931-0.931-0.932z"></path>
<path fill="#66d0ff" style="fill: var(--color12, #66d0ff)" d="M27.581 13.559l-1.169-1.169-2.698 2.698h-1.025l1.53-1.529-0.682-0.683 0.014-0.96-2.382-0.038 0.75-0.75 3.982 0.063 0.026-1.653-3.467-0.053v-3.398h-1.654v3.815l-0.725 0.725v-2.163h-0.965l-0.667-0.69-1.712 1.658v-1.061l2.862-2.773-1.15-1.187-2.49 2.412-2.403-2.403-1.169 1.169 2.699 2.698v1.025l-1.53-1.529-0.683 0.683-0.96-0.015-0.038 2.382-0.75-0.751 0.062-3.982-1.653-0.026-0.053 3.467h-3.395v1.653h3.815l0.725 0.725h-2.163v0.964l-0.69 0.668 1.659 1.711h-1.062l-2.773-2.861-1.187 1.15 2.412 2.49-2.4 2.403 1.167 1.169 2.699-2.698h1.024l-1.529 1.53 0.683 0.682-0.017 0.96 2.383 0.038-0.75 0.75-3.982-0.063-0.027 1.653 3.467 0.053v3.398h1.653v-3.815l0.726-0.725v2.163h0.964l0.668 0.69 1.711-1.658v1.061l-2.861 2.773 1.15 1.187 2.49-2.412 2.4 2.403 1.169-1.169-2.698-2.698v-1.025l1.53 1.53 0.683-0.683 0.96 0.015 0.038-2.382 0.751 0.75-0.064 3.983 1.653 0.026 0.053-3.467h3.398v-1.653h-3.815l-0.725-0.725h2.163v-0.964l0.69-0.668-1.658-1.711h1.061l2.773 2.861 1.186-1.15-2.411-2.49zM21.897 13.543l-1.544 1.547h-0.604c-0.119-0.47-0.309-0.882-0.561-1.249l0.008 0.013 0.347-0.347zM16.007 18.214c-1.215 0-2.199-0.985-2.199-2.199s0.985-2.199 2.199-2.199c1.215 0 2.199 0.984 2.199 2.199v0c-0.001 1.214-0.985 2.198-2.199 2.2h-0zM18.43 10.094v2.187l-0.436 0.436c-0.361-0.221-0.782-0.388-1.231-0.476l-0.024-0.004v-0.502zM13.542 10.106l1.547 1.547v0.625c-0.466 0.116-0.876 0.303-1.24 0.551l0.013-0.009-0.358-0.358zM10.094 13.569h2.183l0.442 0.442c-0.223 0.359-0.393 0.778-0.485 1.225l-0.004 0.025h-0.498zM10.105 18.457l1.547-1.547h0.614c0.114 0.47 0.3 0.883 0.549 1.25l-0.008-0.013-0.345 0.346zM13.567 21.906v-2.187l0.427-0.427c0.363 0.228 0.787 0.4 1.24 0.493l0.025 0.004v0.475zM18.456 21.894l-1.547-1.547v-0.593c0.474-0.116 0.891-0.306 1.262-0.559l-0.013 0.009 0.334 0.334zM21.905 18.431h-2.184l-0.421-0.42c0.226-0.365 0.396-0.791 0.486-1.247l0.004-0.024h0.476z"></path>
<path fill="#66d0ff" style="fill: var(--color12, #66d0ff)" d="M26.263 16.048l1.774-1.774 1.774 1.774-1.774 1.774-1.774-1.774z"></path>
<path fill="#66d0ff" style="fill: var(--color12, #66d0ff)" d="M30.137 16.048l0.931-0.931 0.931 0.931-0.931 0.931-0.931-0.931z"></path>
<path fill="#66d0ff" style="fill: var(--color12, #66d0ff)" d="M6.268 6.201h2.508v2.508h-2.508v-2.508z"></path>
<path fill="#66d0ff" style="fill: var(--color12, #66d0ff)" d="M4.72 4.653h1.317v1.317h-1.317v-1.317z"></path>
<path fill="#66d0ff" style="fill: var(--color12, #66d0ff)" d="M23.224 23.291h2.508v2.508h-2.508v-2.508z"></path>
<path fill="#66d0ff" style="fill: var(--color12, #66d0ff)" d="M25.963 26.030h1.317v1.317h-1.317v-1.317z"></path>
<path fill="#66d0ff" style="fill: var(--color12, #66d0ff)" d="M6.201 23.223h2.508v2.508h-2.508v-2.508z"></path>
<path fill="#66d0ff" style="fill: var(--color12, #66d0ff)" d="M4.653 25.963h1.317v1.317h-1.317v-1.317z"></path>
<path fill="#66d0ff" style="fill: var(--color12, #66d0ff)" d="M23.291 6.268h2.508v2.508h-2.508v-2.508z"></path>
<path fill="#66d0ff" style="fill: var(--color12, #66d0ff)" d="M26.030 4.72h1.317v1.317h-1.317v-1.317z"></path>
</symbol>
<symbol id="icon-Vk" viewBox="0 0 32 32">
<path fill="#2787f5" style="fill: var(--color13, #2787f5)" d="M31.266 7.68c0.222-0.742 0-1.28-1.059-1.28h-3.499c-0.031-0.002-0.067-0.003-0.103-0.003-0.649 0-1.203 0.409-1.417 0.983l-0.003 0.010c-1.166 2.737-2.61 5.097-4.343 7.21l0.041-0.051c-0.816 0.816-1.187 1.075-1.632 1.075-0.222 0-0.544-0.259-0.544-1.002v-6.942c0-0.89-0.258-1.28-1-1.28h-5.502c-0.015-0.001-0.032-0.001-0.049-0.001-0.451 0-0.819 0.354-0.842 0.799l-0 0.002c0 0.843 1.261 1.038 1.39 3.413v5.155c0 1.13-0.205 1.334-0.65 1.334-1.187 0-4.074-4.358-5.786-9.346-0.336-0.97-0.672-1.362-1.566-1.362h-3.501c-1 0-1.2 0.47-1.2 0.99 0 0.928 1.187 5.526 5.526 11.61 2.291 3.636 6.168 6.093 10.636 6.398l0.042 0.002c2.226 0 2.501-0.501 2.501-1.362v-3.13c0-1 0.211-1.2 0.915-1.2 0.52 0 1.41 0.259 3.486 2.262 2.374 2.374 2.765 3.438 4.101 3.438h3.501c1 0 1.501-0.501 1.211-1.486-0.787-1.585-1.777-2.94-2.958-4.102l-0.002-0.002c-0.816-0.96-2.040-2.003-2.411-2.522-0.52-0.667-0.371-0.96 0-1.558 0.011 0 4.272-6.008 4.717-8.054z"></path>
</symbol>
<symbol id="icon-whatsapp" viewBox="0 0 32 32">
<path fill="#2cb742" style="fill: var(--color14, #2cb742)" d="M0 32l2.267-8c-1.414-2.278-2.256-5.040-2.267-7.997v-0.003c-0-0.011-0-0.025-0-0.038 0-8.815 7.146-15.962 15.962-15.962 0.014 0 0.027 0 0.041 0h-0.002c0.036-0 0.079-0 0.122-0 8.769 0 15.878 7.109 15.878 15.878 0 0.043-0 0.086-0 0.129l0-0.007c0 0.036 0 0.079 0 0.122 0 8.769-7.109 15.878-15.878 15.878-0.043 0-0.086-0-0.129-0.001l0.007 0c-0.003 0-0.008 0-0.012 0-2.88 0-5.587-0.741-7.94-2.043l0.084 0.043zM8.667 27.067l0.533 0.4c1.88 1.175 4.164 1.871 6.61 1.871 0.113 0 0.226-0.002 0.339-0.004l-0.017 0c7.308-0.074 13.203-6.015 13.203-13.334 0-7.364-5.97-13.334-13.334-13.334s-13.334 5.97-13.334 13.334v0c-0.002 0.075-0.003 0.163-0.003 0.251 0 2.55 0.799 4.914 2.161 6.855l-0.025-0.038 0.4 0.533-1.333 4.667z"></path>
<path fill="#2cb742" style="fill: var(--color14, #2cb742)" d="M11.594 7.886h-1.069c-0.4 0-0.534 0.146-0.934 0.438-0.734 0.705-1.288 1.593-1.589 2.59l-0.011 0.043c-0.038 0.312-0.060 0.674-0.060 1.041 0 1.965 0.621 3.785 1.679 5.274l-0.019-0.028c2.097 3.381 5.234 5.945 8.959 7.271l0.121 0.038c0.411 0.174 0.889 0.276 1.391 0.276 0.898 0 1.721-0.325 2.355-0.864l-0.005 0.004c0.717-0.587 1.238-1.39 1.463-2.31l0.006-0.029 0.131-0.878c0-0.293-0.133-0.584-0.4-0.584l-3.605-1.76c-0.267-0.146-0.534 0-0.534 0.146l-1.469 1.901c-0.133 0.146-0.267 0.293-0.534 0.146-2.464-1.111-4.415-2.997-5.578-5.343l-0.030-0.066c-0.133-0.146 0-0.438 0-0.584l1.336-1.76c0.086-0.14 0.137-0.309 0.137-0.491 0-0.033-0.002-0.065-0.005-0.098l0 0.004-1.202-4.082c-0.136-0.152-0.32-0.257-0.529-0.292l-0.005-0.001z"></path>
</symbol>
<symbol id="icon-xlsx" viewBox="0 0 32 32">
<path fill="#fff" style="fill: var(--color4, #fff)" d="M3.639 0v32h26.665v-26.668l-5.332-5.332z"></path>
<path fill="#e1e3e5" style="fill: var(--color5, #e1e3e5)" d="M24.972 0v5.332h5.333z"></path>
<path fill="#12b240" style="fill: var(--color15, #12b240)" d="M23.478 22.766h-22.107v-11.631c0-0.941 0.763-1.703 1.703-1.703h23.842c0.643 0 1.164 0.521 1.164 1.164 0 0.113-0.016 0.222-0.046 0.325l0.002-0.008-3.034 10.697c-0.194 0.672-0.803 1.156-1.525 1.157h-0z"></path>
<path fill="#0e7a2a" style="fill: var(--color16, #0e7a2a)" d="M3.639 25.216v-2.45h-2.267z"></path>
<path fill="#fff" style="fill: var(--color4, #fff)" d="M5.639 13.069l1.207 2.209 1.228-2.209h1.493l-1.805 2.992 1.838 2.992h-1.488l-1.266-2.154-1.254 2.154h-1.496l1.823-2.992-1.776-2.992z"></path>
<path fill="#fff" style="fill: var(--color4, #fff)" d="M11.017 11.074h1.28v7.979h-1.28v-7.979z"></path>
<path fill="#fff" style="fill: var(--color4, #fff)" d="M18.247 14.65l-1.285 0.14c-0.062-0.22-0.191-0.404-0.363-0.534l-0.003-0.002c-0.189-0.133-0.425-0.213-0.679-0.213-0.018 0-0.037 0-0.055 0.001l0.003-0c-0.014-0.001-0.031-0.001-0.048-0.001-0.256 0-0.495 0.072-0.698 0.197l0.006-0.003c-0.175 0.097-0.292 0.281-0.292 0.492 0 0 0 0 0 0.001v-0c-0 0.006-0 0.014-0 0.022 0 0.163 0.075 0.309 0.193 0.405l0.001 0.001c0.184 0.131 0.404 0.225 0.643 0.266l0.009 0.001 1.019 0.219c0.489 0.080 0.919 0.287 1.268 0.585l-0.003-0.003c0.259 0.253 0.419 0.605 0.419 0.995 0 0.015-0 0.030-0.001 0.045l0-0.002c0 0.005 0 0.012 0 0.018 0 0.563-0.282 1.060-0.712 1.358l-0.006 0.004c-0.476 0.333-1.068 0.532-1.706 0.532-0.046 0-0.092-0.001-0.138-0.003l0.006 0c-0.045 0.002-0.098 0.004-0.151 0.004-0.598 0-1.156-0.172-1.627-0.468l0.013 0.007c-0.43-0.291-0.728-0.749-0.802-1.279l-0.001-0.010 1.371-0.133c0.049 0.254 0.194 0.468 0.394 0.608l0.003 0.002c0.207 0.132 0.46 0.21 0.731 0.21 0.022 0 0.043-0 0.065-0.002l-0.003 0c0.019 0.001 0.041 0.001 0.064 0.001 0.273 0 0.529-0.076 0.746-0.208l-0.006 0.004c0.183-0.102 0.306-0.293 0.31-0.513v-0.001q0-0.504-0.806-0.682l-1.020-0.214q-1.691-0.351-1.682-1.688c-0-0.009-0-0.020-0-0.030 0-0.349 0.113-0.671 0.305-0.932l-0.003 0.004c0.216-0.284 0.504-0.503 0.837-0.63l0.013-0.004c0.357-0.141 0.771-0.223 1.203-0.223 0.022 0 0.044 0 0.065 0.001l-0.003-0c0.043-0.002 0.092-0.004 0.143-0.004 0.559 0 1.079 0.166 1.514 0.451l-0.011-0.006c0.398 0.284 0.677 0.713 0.763 1.208l0.002 0.011z"></path>
<path fill="#fff" style="fill: var(--color4, #fff)" d="M20.693 13.069l1.208 2.209 1.231-2.209h1.492l-1.805 2.992 1.836 2.992h-1.488l-1.266-2.154-1.254 2.154h-1.496l1.823-2.992-1.774-2.992z"></path>
</symbol>
<symbol id="icon-youtube-svgrepo-com" viewBox="0 0 32 32">
<path fill="#f61c0d" style="fill: var(--color17, #f61c0d)" d="M25.354 4.8h-18.707c-3.671 0-6.646 2.976-6.646 6.646v0 9.352c0 3.671 2.976 6.646 6.646 6.646v0h18.707c3.671 0 6.646-2.976 6.646-6.646v0-9.352c0-3.671-2.976-6.646-6.646-6.646v0zM20.859 16.578l-8.75 4.173c-0.044 0.021-0.096 0.034-0.15 0.034-0.194 0-0.352-0.158-0.352-0.352 0-0.001 0-0.001 0-0.002v0-8.608c-0-0.002-0-0.004-0-0.006 0-0.194 0.158-0.352 0.352-0.352 0.058 0 0.112 0.014 0.16 0.039l-0.002-0.001 8.75 4.434c0.121 0.057 0.203 0.179 0.203 0.319 0 0.143-0.086 0.267-0.209 0.322l-0.002 0.001z"></path>
</symbol>
<symbol id="icon-down" viewBox="0 0 12 7.101">
  <path  d="M10.9,0,6,4.9,1.1,0,0,1.1l6,6,6-6Z" transform="translate(0 0)" />
</symbol>
</defs>
</svg>
