<svg id="_2" data-name="2" xmlns="http://www.w3.org/2000/svg" xmlns:xlink="http://www.w3.org/1999/xlink" width="458.533" height="76.5" viewBox="0 0 458.533 76.5">
  <defs>
    <clipPath id="clip-path">
      <rect id="Прямоугольник_150" data-name="Прямоугольник 150" width="458.533" height="76.5" fill="none"/>
    </clipPath>
  </defs>
  <path id="Контур_1652" data-name="Контур 1652" d="M0,1.12V66.508H3.673V4.426h16.99V1.12Z" transform="translate(0 -0.385)" fill="#fff"/>
  <g id="Сгруппировать_118" data-name="Сгруппировать 118" transform="translate(0 0)">
    <g id="Сгруппировать_117" data-name="Сгруппировать 117" clip-path="url(#clip-path)">
      <path id="Контур_1653" data-name="Контур 1653" d="M65.439,63.642c-2.02,2.113-5.143,3.215-8.724,3.215s-6.7-1.1-8.724-3.215C44.133,59.694,43.4,56.02,43.4,33.429S44.133,7.163,47.99,3.214C50.01,1.1,53.133,0,56.714,0s6.7,1.1,8.724,3.214c3.857,3.949,4.592,7.622,4.592,30.214S69.3,59.694,65.439,63.642M62.867,5.6a8.169,8.169,0,0,0-6.153-2.3,8.172,8.172,0,0,0-6.153,2.3c-2.938,3.214-3.49,6.061-3.49,27.827s.552,24.612,3.49,27.827a8.172,8.172,0,0,0,6.153,2.3,8.169,8.169,0,0,0,6.153-2.3c2.939-3.215,3.49-6.061,3.49-27.827S65.806,8.816,62.867,5.6" transform="translate(-14.93 0)" fill="#fff"/>
      <path id="Контур_1654" data-name="Контур 1654" d="M113.768,36.385h-7.9V66.508H102.2V1.12h11.571c6.429,0,13.224,1.745,13.224,17.633,0,15.7-6.98,17.633-13.224,17.633m-.276-31.959H105.87V33.079h7.622c5.327,0,9.827-1.745,9.827-14.327s-4.5-14.327-9.827-14.327" transform="translate(-35.158 -0.385)" fill="#fff"/>
      <path id="Контур_1655" data-name="Контур 1655" d="M177.158,63.642c-2.02,2.113-5.143,3.215-8.724,3.215s-6.7-1.1-8.724-3.215c-3.857-3.948-4.592-7.622-4.592-30.214s.735-26.265,4.592-30.214C161.729,1.1,164.852,0,168.433,0s6.7,1.1,8.724,3.214c3.857,3.949,4.592,7.622,4.592,30.214s-.735,26.265-4.592,30.214M174.586,5.6a9.393,9.393,0,0,0-12.306,0c-2.938,3.214-3.49,6.061-3.49,27.827s.552,24.612,3.49,27.827a9.393,9.393,0,0,0,12.306,0c2.939-3.215,3.49-6.061,3.49-27.827s-.551-24.612-3.49-27.827" transform="translate(-53.364 0)" fill="#fff"/>
      <path id="Контур_1656" data-name="Контур 1656" d="M234.454,76.885V66.508H206.811V76.885h-3.673V63.2h3.948c3.4-8.908,5.235-19.929,5.235-32.51V1.12h21.214V63.2h4.592V76.885ZM229.862,4.426H215.9V30.875c0,12.122-1.47,22.959-4.96,32.327h18.918Z" transform="translate(-69.884 -0.385)" fill="#fff"/>
      <path id="Контур_1657" data-name="Контур 1657" d="M288.328,66.508,284.38,46.855H269.134l-3.857,19.653h-4.041l14.05-65.387h3.307L292.37,66.508ZM276.757,8.652l-6.888,34.9h13.867Z" transform="translate(-89.872 -0.386)" fill="#fff"/>
      <path id="Контур_1658" data-name="Контур 1658" d="M380.212,66.507V9.661L367.171,46.946h-3.306l-12.858-36V66.507h-3.673V1.12h4.041L365.61,41.069,379.844,1.12h4.041V66.507Z" transform="translate(-119.491 -0.385)" fill="#fff"/>
      <path id="Контур_1659" data-name="Контур 1659" d="M443.294,63.642c-2.02,2.113-5.143,3.215-8.724,3.215s-6.7-1.1-8.725-3.215c-3.857-3.948-4.592-7.622-4.592-30.214s.735-26.265,4.592-30.214C427.865,1.1,430.988,0,434.569,0s6.7,1.1,8.724,3.214c3.857,3.949,4.592,7.622,4.592,30.214s-.735,26.265-4.592,30.214M440.722,5.6a9.393,9.393,0,0,0-12.306,0c-2.938,3.214-3.49,6.061-3.49,27.827s.552,24.612,3.49,27.827a9.393,9.393,0,0,0,12.306,0c2.939-3.215,3.49-6.061,3.49-27.827s-.551-24.612-3.49-27.827" transform="translate(-144.921 0)" fill="#fff"/>
      <path id="Контур_1660" data-name="Контур 1660" d="M499.49,64.1a11.611,11.611,0,0,1-8.082,2.755c-3.582,0-6.7-1.1-8.725-3.214-3.857-3.949-4.592-7.622-4.592-30.214s.735-26.265,4.592-30.214C484.7,1.1,487.827,0,491.408,0a11.566,11.566,0,0,1,8.633,3.215c2.663,2.755,3.765,6.979,3.765,11.663h-3.674c0-3.582-.735-7.255-2.938-9.459a7.918,7.918,0,0,0-5.786-2.112,8.17,8.17,0,0,0-6.153,2.3c-2.939,3.215-3.49,6.062-3.49,27.827s.552,24.612,3.49,27.827a8.17,8.17,0,0,0,6.153,2.3,7.918,7.918,0,0,0,5.786-2.112c2.2-2.2,2.938-5.878,2.938-9.459h3.674c0,4.959-1.286,9.459-4.316,12.122" transform="translate(-164.475 0)" fill="#fff"/>
      <path id="Контур_1661" data-name="Контур 1661" d="M533.531,1.12H537.2V66.508h-3.673Zm24.887,65.388L537.387,32.437,557.041,1.12h4.316L541.245,32.253l21.673,34.255Z" transform="translate(-183.547 -0.385)" fill="#fff"/>
      <path id="Контур_1662" data-name="Контур 1662" d="M610.936,62.834c-2.571,2.663-5.694,3.673-10.837,3.673h-10.01V1.12h10.1c5.05,0,7.99.919,10.469,3.673,2.663,2.939,3.489,6.061,3.489,12.949,0,4.684-.55,8.724-4.041,12.214a10.069,10.069,0,0,1-4.316,2.663,10.033,10.033,0,0,1,4.867,2.571c3.765,3.765,4.224,8.633,4.224,13.592,0,8.265-1.286,11.3-3.949,14.051M600.742,4.426h-6.98V31.059h6.98c6.061,0,9.735-3.765,9.735-13.316,0-10.561-3.673-13.316-9.735-13.316m0,29.939h-6.98V63.2h6.98c6.52,0,10.469-2.939,10.469-14.418,0-10.378-3.95-14.418-10.469-14.418" transform="translate(-203.004 -0.385)" fill="#fff"/>
      <path id="Контур_1663" data-name="Контур 1663" d="M657.1,66.508H645.528V1.12H649.2V31.242h7.9c6.429,0,13.224,1.745,13.224,17.633,0,15.7-6.98,17.633-13.224,17.633m-.276-31.959H649.2V63.2h7.622c5.327,0,9.827-1.746,9.827-14.327s-4.5-14.327-9.827-14.327M676.936,1.12h3.674V66.508h-3.674Z" transform="translate(-222.077 -0.385)" fill="#fff"/>
    </g>
  </g>
</svg>
