<svg xmlns="http://www.w3.org/2000/svg" width="85.791" height="81.433" viewBox="0 0 85.791 81.433">
  <path id="skate" d="M83.114,58.124a20.308,20.308,0,0,0-1.647-1.379.255.255,0,0,1-.093.045.29.29,0,0,1-.22-.028.286.286,0,0,1-.133-.177.267.267,0,0,1,.01-.18c-.252-.2-.51-.392-.772-.583-.24-.183-1.172-.914-1.714-1.362l-.083-.092c-.183-.2-.34-.42-.505-.633.13-.023.257-.058.39-.075l0,.008c.28-.257.653-.532-.212-1.265a9.3,9.3,0,0,1-.922-1.167.726.726,0,0,0-.919-.363.814.814,0,0,0-.86-.118,2.893,2.893,0,0,0-.282-.355c-.18-.177-.39-.4-.583-.613.1-.008.193-.03.29-.033.02-.012.043-.018.067-.03.553-.217.5-.667-.137-1.334a15.537,15.537,0,0,1-1.062-1.18,1,1,0,0,0-1.049-.39,1.026,1.026,0,0,0-.21-.112,4.819,4.819,0,0,0-.343-.462,4.137,4.137,0,0,1-.467-.667c.092-.008.182-.028.272-.033.5-.312.452-.552-.167-1.31-.592-.628-.974-2.052-1.94-1.759a.863.863,0,0,0-.293-.157,2.1,2.1,0,0,0-.363-.723c-.11-.16-.252-.4-.41-.657l-.01-.028c.042,0,.085-.012.127-.013a1.291,1.291,0,0,1,.108-.09c.285-.29.323-.487-.178-1.222a11.081,11.081,0,0,0-1.079-1.572l0-.008-.258-.2a1.286,1.286,0,0,0-.135-.105l-.007,0-.672-.517c-.107-.223-.263-.528-.478-.957-.033-.082-.085-.152-.12-.232a1.837,1.837,0,0,1,.248.055c.315-.353.24-.378-.488-1.834a8.605,8.605,0,0,0-.717-1.367.675.675,0,0,0-.755-.143l0,0a.578.578,0,0,0-.205-.127c-.112-.25-.3-.612-.568-1.175-.025-.068-.06-.13-.088-.2.1,0,.19-.012.283-.008.28-.223.123-.4-.557-1.805a6.445,6.445,0,0,0-.743-1.455c-.24-.205-.43-.12-.687-.04-.1-.243-.247-.555-.46-.994-.025-.067-.063-.125-.093-.19.065,0,.127-.013.192-.01h.013c.275-.177.213-.393-.473-1.81a4.8,4.8,0,0,0-.924-1.519c-.27-.213-.418-.148-.678-.042-.03-.033-.047-.072-.077-.1a.732.732,0,0,0-.105-.063c.02-.008.037-.02.058-.028a12.535,12.535,0,0,1-.653-1.692,17.216,17.216,0,0,1-.44-4.026,33.55,33.55,0,0,1,1.254-6.97c1.02-3.9,1-4.941.207-6.473C58.7,2.244,55.757,1.309,48.777.728,44.05.33,39.275.16,34.531,0l-.4.712a.268.268,0,0,1,.053.18.271.271,0,0,1-.092.2.279.279,0,0,1-.21.077c-1.729,3.111-3.449,6.231-5.3,9.272a.35.35,0,0,1,.087.085.267.267,0,0,1,.045.215.286.286,0,0,1-.337.233.238.238,0,0,1-.1-.038q-.693,1.123-1.412,2.232a.332.332,0,0,1,.057.062.288.288,0,0,1,.047.215.294.294,0,0,1-.122.188.291.291,0,0,1-.3.017q-.818,1.243-1.682,2.45c-3.432,4.806-8.3,11.017-8.09,16.17l0-.005v.148l-.017.068c-.667,2.777-2.15,8.835-2.667,11.669a11.988,11.988,0,0,0,1.824,1.062,12.566,12.566,0,0,1-1.259,3.247c-1.474,2.43-3.7,2.547-7.7,1.522l-.01-.005c-2.027-.522-6.32-1.772-6.9,1.214a2.5,2.5,0,0,0,.725,2.282c1.3,1.4,4.022,2.272,6.169,3.077l36.6,13.716L56.8,75.237c5.356,2.009,10.82,4.342,16.6,4.448a21.228,21.228,0,0,0,2.492-.1l.64.413,0,0,0,0,.277-.83.952.475v0l.008,0,.26-.987,1.089.433v0l.007,0,.113-1.065,1.079.135v0l.005,0-.11-1.105,1.03.117,0,0h.005l-.312-1.035.612-.1-.27-.787a19.972,19.972,0,0,0-1-6.053,4.342,4.342,0,0,0,.608-.08c1.435-.3,1.947-1.325,1.427-2.947l-.008,0a.176.176,0,0,0-.01-.04,3.009,3.009,0,0,0,1.56-1.334,5.556,5.556,0,0,0-.747-6.668M27.855,12.181h0v-.005ZM53.37,66.257c-1.067.318-2.932-.027-6.475-1.332L26.14,56.987C21,55.02,18.428,53.382,21.694,47.906a35.142,35.142,0,0,0,5.613,2.114l0,0,.005,0a50.07,50.07,0,0,0,4.021-5.559A67.537,67.537,0,0,1,45.812,55.765c3.072,3.121,4.216,4.321,6.948,5.521.7.307,1.6.667,2.652,1.057-.615,1.987-.67,3.5-2.042,3.914M73.435,73.8l-.013.007c-3.564.058-12.721-2.59-13.473-5.8a3.9,3.9,0,0,1-.1-.617c-.11-1.34.6-2.045,1.517-2.989,4.686,1.522,10.07,3.084,14,3.956.155.035.318.073.5.117.057.163.117.352.175.553l.037.128.015.058a6.644,6.644,0,0,1,.262,2.067c-.072,1.31-.745,2.49-2.922,2.524" transform="translate(0.5 0.51)" fill="none" stroke="#f8f9fa" stroke-width="1"/>
</svg>
