<svg xmlns="http://www.w3.org/2000/svg" width="81.414" height="81.414" viewBox="0 0 81.414 81.414">
  <g id="snow" transform="translate(0.705 -44.294)">
    <path id="Объединение_2" data-name="Объединение 2" d="M37.551,77.672l2.327-2.33,2.329,2.33L39.878,80Zm-2.106-7.58,4.433-4.434,4.435,4.434-4.435,4.434ZM31,66l7.154-6.927V56.421l-4.279,4.143L32.2,58.84h-2.41V53.435l-1.815,1.813v9.538H23.848v-8.5l-8.667-.136.069-4.13,9.955.157L27.081,50.3l-5.958-.094.041-2.4-1.708-1.7,3.82-3.823H20.721l-6.748,6.744L11.055,46.1l6-6.008-6.031-6.224L14,31l6.93,7.153h2.655l-4.147-4.279L21.16,32.2V29.793h5.405l-1.812-1.815H15.213v-4.13h8.5l.135-8.667,4.129.067L27.823,25.2,29.7,27.081l.095-5.955,2.4.039L33.9,19.458l3.826,3.823V20.72l-6.748-6.745L33.9,11.054,39.9,17.061l6.225-6.029L49,14l-7.155,6.929v2.653l4.28-4.143L47.8,21.159h2.412v5.407l1.813-1.814V15.216h4.132v8.495l8.665.137-.065,4.13L54.8,27.821,52.919,29.7l5.956.1-.037,2.4,1.7,1.708L56.719,37.72H59.28l6.746-6.744L68.948,33.9,62.94,39.9l6.028,6.224L66,49,59.075,41.85H56.421l4.144,4.277L58.84,47.8v2.411H53.432l1.815,1.813h9.539v4.13h-8.5l-.137,8.666-4.132-.064.16-9.958L50.3,52.92l-.095,5.956-2.4-.039L46.1,60.542l-3.823-3.823v2.563l6.744,6.744L46.1,68.947,40.1,62.939,33.872,68.97Zm2.924-16.7v5.461l4.23-4.1V49.482a9.566,9.566,0,0,1-3.164-1.243Zm8.36.09v1.482l3.862,3.86.093-5.883-.834-.835A9.57,9.57,0,0,1,42.281,49.395ZM25.262,46.143l5.886.093.862-.864a9.512,9.512,0,0,1-1.35-3.092H29.124Zm22.991-1.115,1.051,1.05h5.461l-4.1-4.228h-1.19A9.6,9.6,0,0,1,48.253,45.028Zm-13.73-4.993a5.5,5.5,0,1,0,5.5-5.5A5.5,5.5,0,0,0,34.523,40.035Zm-5.192-1.884h1.246A9.592,9.592,0,0,1,31.8,35.027l-1.1-1.1H25.237ZM47.985,34.63a9.574,9.574,0,0,1,1.382,3.09h1.51l3.859-3.862-5.883-.095ZM33.762,31.148l.9.895a9.542,9.542,0,0,1,3.063-1.358v-1.56l-3.865-3.862Zm8.086-1.816v1.25a9.538,9.538,0,0,1,3.138,1.205L46.078,30.7V25.235ZM64.906,68.368V65.075H68.2v3.293ZM11.629,68.2V64.907h3.295V68.2Zm46.43-3.7V58.227H64.33V64.5ZM15.5,64.329V58.059h6.27v6.271ZM65.657,40.12l4.435-4.435,4.433,4.435L70.09,44.553ZM5.472,39.88l4.434-4.434,4.432,4.434L9.906,44.313Zm69.871.24,2.329-2.329L80,40.12l-2.328,2.328ZM0,39.88l2.327-2.328,2.329,2.329L2.327,42.209ZM58.227,21.941V15.67H64.5v6.271Zm-42.558-.168V15.5h6.27v6.271Zm49.406-6.679V11.8h3.295v3.3ZM11.8,14.926v-3.3h3.294v3.3ZM35.686,9.908l4.433-4.434,4.432,4.434-4.432,4.433Zm2.1-7.58L40.119,0l2.328,2.328L40.119,4.657Z" transform="translate(0.002 45.001)" fill="none" stroke="#fff" stroke-width="1"/>
  </g>
</svg>
