<svg xmlns="http://www.w3.org/2000/svg" xmlns:xlink="http://www.w3.org/1999/xlink" width="1825.872" height="85.01" viewBox="0 0 1825.872 85.01">
  <defs>
    <clipPath id="clip-path">
      <rect id="Прямоугольник_174" data-name="Прямоугольник 174" width="458.533" height="76.5" fill="none"/>
    </clipPath>
    <clipPath id="clip-path-2">
      <rect id="Прямоугольник_175" data-name="Прямоугольник 175" width="664.128" height="67.932" transform="translate(0 0)" fill="none"/>
    </clipPath>
    <clipPath id="clip-path-3">
      <rect id="Прямоугольник_177" data-name="Прямоугольник 177" width="314.149" height="80" fill="none"/>
    </clipPath>
  </defs>
  <g id="Сгруппировать_135" data-name="Сгруппировать 135" transform="translate(17228 5090.01)">
    <g id="snow" transform="translate(-15482.837 -5134.001)">
      <path id="Объединение_6" data-name="Объединение 6" d="M39.878,80.707l-3.034-3.034,2.735-2.738-4.841-4.842,5.14-5.141,5.143,5.141-4.844,4.842,2.738,2.738Zm-1.62-3.035,1.62,1.621L41.5,77.672,39.879,76.05Zm-2.106-7.58,3.726,3.727,3.728-3.727-3.728-3.727Zm-2.292-.416L30.29,65.992l7.361-7.128V57.6l-3.79,3.67-1.87-1.93h-2.7v-4.7l-.815.814v9.831H23.348V56.78l-8.676-.136.086-5.13L25,51.675l.891-.89L20.615,50.7l.046-2.688L18.75,46.1l3.321-3.324H20.928l-6.955,6.951L10.348,46.1l6.01-6.014-6.037-6.23,3.687-3.569,7.13,7.36H22.4L18.727,33.86l1.933-1.869v-2.7h4.7l-.814-.815H14.713v-5.13h8.508l.135-8.675,5.129.083L28.326,25l.891.892.084-5.274,2.685.044,1.909-1.911,3.326,3.324V20.927l-6.955-6.952L33.9,10.347l6.013,6.013,6.231-6.034,3.571,3.683-7.362,7.129V22.4l3.792-3.67,1.868,1.93h2.7v4.7l.813-.813V14.716h5.132v8.5l8.673.137-.08,5.13L55,28.325l-.892.891,5.275.085-.041,2.685L61.248,33.9,57.926,37.22h1.147l6.953-6.951L69.655,33.9l-6.013,6.012,6.033,6.23L65.991,49.71l-7.128-7.36H57.6l3.67,3.789L59.34,48.01v2.7h-4.7l.813.813h9.832v5.13h-8.5l-.137,8.673-5.132-.08L51.676,55l-.894-.892L50.7,59.384l-2.686-.044L46.1,61.249l-3.323-3.323v1.148l6.952,6.951L46.1,69.654,40.09,63.64ZM31.7,66.014l2.179,2.249L40.1,62.237l6,6,2.215-2.215-6.537-6.537V55.512L46.1,59.835l1.5-1.5,2.109.034.106-6.635,2.863,2.858-.155,9.67,3.132.049.137-8.658h8.489v-3.13H55.04l-2.816-2.812H58.34V47.586l1.517-1.47L55.24,41.35h4.046L66.013,48.3l2.247-2.179L62.238,39.9l6-6-2.215-2.214L59.487,38.22H55.512L59.835,33.9l-1.5-1.5.032-2.108-6.638-.108,2.862-2.859,9.668.152.049-3.13L55.652,24.2V15.716H52.52v9.243l-2.812,2.815V21.659H47.584l-1.467-1.516-4.769,4.616V20.714L48.3,13.986l-2.179-2.247L39.9,17.762l-6-6L31.68,13.975l6.541,6.538v3.975L33.9,20.165l-1.5,1.5-2.109-.034-.106,6.636-2.859-2.863.151-9.667-3.13-.051-.135,8.659H15.713v3.13H24.96l2.811,2.815H21.66v2.123l-1.518,1.467,4.621,4.768H20.715L13.985,31.7l-2.25,2.178L17.761,40.1l-6,6,2.212,2.214,6.541-6.537h3.97L20.165,46.1l1.5,1.5-.036,2.112,6.638.105-2.861,2.86-9.668-.152-.052,3.13,8.659.136v8.49h3.129V55.04l2.815-2.811V58.34h2.121l1.469,1.516,4.768-4.616v4.046Zm37,2.854H64.406V65H57.559V57.727H64.83v6.849H68.7Zm-3.294-1H67.7V65.575H65.406ZM58.559,64H63.83V58.727H58.559ZM15.424,68.7H11.129V64.407H15V57.559h7.27v7.271H15.424Zm-3.295-1h2.295V65.407H12.129ZM16,63.829h5.27V58.559H16Zm17.421-7.883V49.1l1.492-1.491.336.208a9.042,9.042,0,0,0,3,1.178l.4.08V50.88Zm1-6.434v4.073l3.23-3.128v-.573a10.025,10.025,0,0,1-2.585-1.017Zm12.2,6.413-4.843-4.841V49l.383-.092a9.033,9.033,0,0,0,2.957-1.3l.342-.232,1.275,1.277ZM42.781,50.67l2.88,2.879.071-4.492-.4-.4a10.017,10.017,0,0,1-2.553,1.123ZM31.353,46.74l-7.279-.115,4.843-4.843h2.138l.091.385a8.982,8.982,0,0,0,1.28,2.929l.228.341Zm-4.9-1.078,4.494.071.428-.429a9.965,9.965,0,0,1-1.1-2.523h-.941Zm29.5.916H49.1L47.622,45.1l.2-.336a9.073,9.073,0,0,0,1.162-3.013l.078-.406H50.88Zm-6.435-1h4.073L50.457,42.35h-.573a10.059,10.059,0,0,1-1,2.6Zm-9.491.457a6,6,0,1,1,6-6A6.005,6.005,0,0,1,40.02,46.035Zm0-11a5,5,0,1,0,5,5A5,5,0,0,0,40.02,35.037ZM70.09,45.26l-5.14-5.14,5.142-5.142,4.841,4.843,2.738-2.738,3.035,3.037-3.035,3.034-2.738-2.736Zm-3.726-5.14,3.726,3.726,3.728-3.726-3.726-3.727Zm9.685,0,1.622,1.621,1.621-1.621L77.672,38.5ZM9.906,45.02,5.065,40.18,2.327,42.916-.707,39.88l3.034-3.035,2.737,2.737,4.843-4.842,5.139,5.141ZM6.179,39.88l3.727,3.726,3.725-3.726L9.906,36.154Zm-5.472,0L2.327,41.5l1.622-1.621L2.327,38.259Zm30.28-1.229H29.12l-5.063-5.228H30.9l1.529,1.529-.205.336a9.058,9.058,0,0,0-1.158,2.96Zm-1.444-1h.632a10.042,10.042,0,0,1,1-2.543l-.685-.685H26.417Zm21.541.569H48.976l-.094-.38a9.043,9.043,0,0,0-1.309-2.928l-.234-.343,1.312-1.31,7.274.117Zm-1.334-1h.92l2.879-2.881-4.492-.072-.431.431A10.027,10.027,0,0,1,49.75,37.22ZM34.6,32.688l-1.338-1.336.116-7.277,4.846,4.842v2.159l-.38.094a9.007,9.007,0,0,0-2.9,1.286Zm-.332-1.744.46.46a9.991,9.991,0,0,1,2.495-1.1v-.969l-2.884-2.881Zm10.8,1.474-.335-.2a9.033,9.033,0,0,0-2.974-1.142L41.348,31V29.121l5.23-5.066V30.9Zm-2.715-2.24a10.019,10.019,0,0,1,2.556.985l.674-.674V26.416l-3.23,3.128ZM65,22.441H57.727V15.17h6.848V11.3h4.295v4.3H65Zm-6.273-1H64V16.17H58.727Zm6.848-6.847h2.295V12.3H65.575ZM22.439,22.273h-7.27V15.426H11.3v-4.3h4.294V15h6.846Zm-6.27-1h5.27V16h-5.27ZM12.3,14.426h2.294v-2.3H12.3Zm27.82.622-5.14-5.14,4.841-4.843L37.083,2.328,40.12-.707l3.035,3.035L40.418,5.065l4.84,4.843Zm-3.726-5.14,3.726,3.726,3.725-3.726L40.119,6.181Zm2.1-7.58L40.119,3.95,41.74,2.328,40.119.707Z" transform="translate(0.002 45.001)" fill="#fff"/>
    </g>
    <g id="_2" data-name="2" transform="translate(-15971.367 -5083)">
      <path id="Контур_1719" data-name="Контур 1719" d="M0,1.12V66.508H3.673V4.426h16.99V1.12Z" transform="translate(0 -0.385)" fill="#fff"/>
      <g id="Сгруппировать_130" data-name="Сгруппировать 130" transform="translate(0 0)">
        <g id="Сгруппировать_129" data-name="Сгруппировать 129" clip-path="url(#clip-path)">
          <path id="Контур_1720" data-name="Контур 1720" d="M65.439,63.642c-2.02,2.113-5.143,3.215-8.724,3.215s-6.7-1.1-8.724-3.215C44.133,59.694,43.4,56.02,43.4,33.429S44.133,7.163,47.99,3.214C50.01,1.1,53.133,0,56.714,0s6.7,1.1,8.724,3.214c3.857,3.949,4.592,7.622,4.592,30.214S69.3,59.694,65.439,63.642M62.867,5.6a8.169,8.169,0,0,0-6.153-2.3,8.172,8.172,0,0,0-6.153,2.3c-2.938,3.214-3.49,6.061-3.49,27.827s.552,24.612,3.49,27.827a8.172,8.172,0,0,0,6.153,2.3,8.169,8.169,0,0,0,6.153-2.3c2.939-3.215,3.49-6.061,3.49-27.827S65.806,8.816,62.867,5.6" transform="translate(-14.93 0)" fill="#fff"/>
          <path id="Контур_1721" data-name="Контур 1721" d="M113.768,36.385h-7.9V66.508H102.2V1.12h11.571c6.429,0,13.224,1.745,13.224,17.633,0,15.7-6.98,17.633-13.224,17.633m-.276-31.959H105.87V33.079h7.622c5.327,0,9.827-1.745,9.827-14.327s-4.5-14.327-9.827-14.327" transform="translate(-35.158 -0.385)" fill="#fff"/>
          <path id="Контур_1722" data-name="Контур 1722" d="M177.158,63.642c-2.02,2.113-5.143,3.215-8.724,3.215s-6.7-1.1-8.724-3.215c-3.857-3.948-4.592-7.622-4.592-30.214s.735-26.265,4.592-30.214C161.729,1.1,164.852,0,168.433,0s6.7,1.1,8.724,3.214c3.857,3.949,4.592,7.622,4.592,30.214s-.735,26.265-4.592,30.214M174.586,5.6a9.393,9.393,0,0,0-12.306,0c-2.938,3.214-3.49,6.061-3.49,27.827s.552,24.612,3.49,27.827a9.393,9.393,0,0,0,12.306,0c2.939-3.215,3.49-6.061,3.49-27.827s-.551-24.612-3.49-27.827" transform="translate(-53.364 0)" fill="#fff"/>
          <path id="Контур_1723" data-name="Контур 1723" d="M234.454,76.885V66.508H206.811V76.885h-3.673V63.2h3.948c3.4-8.908,5.235-19.929,5.235-32.51V1.12h21.214V63.2h4.592V76.885ZM229.862,4.426H215.9V30.875c0,12.122-1.47,22.959-4.96,32.327h18.918Z" transform="translate(-69.884 -0.385)" fill="#fff"/>
          <path id="Контур_1724" data-name="Контур 1724" d="M288.328,66.508,284.38,46.855H269.134l-3.857,19.653h-4.041l14.05-65.387h3.307L292.37,66.508ZM276.757,8.652l-6.888,34.9h13.867Z" transform="translate(-89.872 -0.386)" fill="#fff"/>
          <path id="Контур_1725" data-name="Контур 1725" d="M380.212,66.507V9.661L367.171,46.946h-3.306l-12.858-36V66.507h-3.673V1.12h4.041L365.61,41.069,379.844,1.12h4.041V66.507Z" transform="translate(-119.491 -0.385)" fill="#fff"/>
          <path id="Контур_1726" data-name="Контур 1726" d="M443.294,63.642c-2.02,2.113-5.143,3.215-8.724,3.215s-6.7-1.1-8.725-3.215c-3.857-3.948-4.592-7.622-4.592-30.214s.735-26.265,4.592-30.214C427.865,1.1,430.988,0,434.569,0s6.7,1.1,8.724,3.214c3.857,3.949,4.592,7.622,4.592,30.214s-.735,26.265-4.592,30.214M440.722,5.6a9.393,9.393,0,0,0-12.306,0c-2.938,3.214-3.49,6.061-3.49,27.827s.552,24.612,3.49,27.827a9.393,9.393,0,0,0,12.306,0c2.939-3.215,3.49-6.061,3.49-27.827s-.551-24.612-3.49-27.827" transform="translate(-144.921 0)" fill="#fff"/>
          <path id="Контур_1727" data-name="Контур 1727" d="M499.49,64.1a11.611,11.611,0,0,1-8.082,2.755c-3.582,0-6.7-1.1-8.725-3.214-3.857-3.949-4.592-7.622-4.592-30.214s.735-26.265,4.592-30.214C484.7,1.1,487.827,0,491.408,0a11.566,11.566,0,0,1,8.633,3.215c2.663,2.755,3.765,6.979,3.765,11.663h-3.674c0-3.582-.735-7.255-2.938-9.459a7.918,7.918,0,0,0-5.786-2.112,8.17,8.17,0,0,0-6.153,2.3c-2.939,3.215-3.49,6.062-3.49,27.827s.552,24.612,3.49,27.827a8.17,8.17,0,0,0,6.153,2.3,7.918,7.918,0,0,0,5.786-2.112c2.2-2.2,2.938-5.878,2.938-9.459h3.674c0,4.959-1.286,9.459-4.316,12.122" transform="translate(-164.475 0)" fill="#fff"/>
          <path id="Контур_1728" data-name="Контур 1728" d="M533.531,1.12H537.2V66.508h-3.673Zm24.887,65.388L537.387,32.437,557.041,1.12h4.316L541.245,32.253l21.673,34.255Z" transform="translate(-183.547 -0.385)" fill="#fff"/>
          <path id="Контур_1729" data-name="Контур 1729" d="M610.936,62.834c-2.571,2.663-5.694,3.673-10.837,3.673h-10.01V1.12h10.1c5.05,0,7.99.919,10.469,3.673,2.663,2.939,3.489,6.061,3.489,12.949,0,4.684-.55,8.724-4.041,12.214a10.069,10.069,0,0,1-4.316,2.663,10.033,10.033,0,0,1,4.867,2.571c3.765,3.765,4.224,8.633,4.224,13.592,0,8.265-1.286,11.3-3.949,14.051M600.742,4.426h-6.98V31.059h6.98c6.061,0,9.735-3.765,9.735-13.316,0-10.561-3.673-13.316-9.735-13.316m0,29.939h-6.98V63.2h6.98c6.52,0,10.469-2.939,10.469-14.418,0-10.378-3.95-14.418-10.469-14.418" transform="translate(-203.004 -0.385)" fill="#fff"/>
          <path id="Контур_1730" data-name="Контур 1730" d="M657.1,66.508H645.528V1.12H649.2V31.242h7.9c6.429,0,13.224,1.745,13.224,17.633,0,15.7-6.98,17.633-13.224,17.633m-.276-31.959H649.2V63.2h7.622c5.327,0,9.827-1.746,9.827-14.327s-4.5-14.327-9.827-14.327M676.936,1.12h3.674V66.508h-3.674Z" transform="translate(-222.077 -0.385)" fill="#fff"/>
        </g>
      </g>
    </g>
    <path id="skate" d="M76.761,80.924l-.518-.518L75.77,80.1a21.926,21.926,0,0,1-2.376.084c-5.247-.1-10.224-1.99-15.036-3.823-.569-.217-1.157-.441-1.733-.657L43.369,70.736,6.769,57.02c-.259-.1-.526-.2-.8-.295-2.032-.745-4.335-1.59-5.562-2.91A2.985,2.985,0,0,1-.441,51.1c.207-1.062.962-2.327,3.379-2.327a16.087,16.087,0,0,1,3.882.658l.257.067.061.018a15.251,15.251,0,0,0,3.64.581A3.62,3.62,0,0,0,14.235,48.2a11.28,11.28,0,0,0,1.094-2.722,12.515,12.515,0,0,1-1.521-.92l-.26-.184.057-.314c.458-2.51,1.676-7.559,2.4-10.576.1-.412.19-.789.27-1.12l0-.012v-.174q-.006-.232,0-.468v-1.1l.078.117a17.986,17.986,0,0,1,2.247-6.168,73.384,73.384,0,0,1,4.921-7.443c.328-.454.637-.882.94-1.307.583-.816,1.145-1.635,1.671-2.435L26.389,13h0l.064-.1c.458-.7.918-1.431,1.406-2.222l.3-.493C29.87,7.376,31.5,4.449,33.068,1.619l.479-.862,0-.005.7-1.261.306.01c5.3.179,9.715.346,14.271.73a39.509,39.509,0,0,1,7.794,1.212c1.809.55,2.9,1.283,3.423,2.305.884,1.71.854,2.923-.168,6.828l0,.013a33.1,33.1,0,0,0-1.234,6.85,16.742,16.742,0,0,0,.424,3.876,12.1,12.1,0,0,0,.537,1.423.92.92,0,0,1,.1-.006,1.02,1.02,0,0,1,.642.249l.033.026.028.032a5.279,5.279,0,0,1,1.011,1.655,9.472,9.472,0,0,1,.621,1.441.851.851,0,0,1-.139.82c.063.132.119.251.168.358.028,0,.057,0,.086,0a.963.963,0,0,1,.637.247l.051.043.038.055a6.954,6.954,0,0,1,.792,1.542c.1.2.18.369.255.52a6.069,6.069,0,0,1,.438,1,.781.781,0,0,1-.189.788l.131.267c.074.15.138.281.193.4a1.31,1.31,0,0,1,.159-.01,1.091,1.091,0,0,1,.806.351l.033.034.026.04a9.138,9.138,0,0,1,.751,1.429l.212.42c.506,1,.68,1.344.28,1.852l.042.082c.1.195.181.358.248.5l.537.413a.877.877,0,0,1,.156.116l.01.009.018.013.406.314.011.054a8.378,8.378,0,0,1,.809,1.173c.086.142.161.265.222.356.413.605.714,1.16.2,1.76.059.1.113.181.157.246a3.611,3.611,0,0,1,.358.632,1.281,1.281,0,0,1,.138-.008c.809,0,1.259.737,1.62,1.328a4.1,4.1,0,0,0,.433.627l.023.027c.377.463.684.882.608,1.332a.938.938,0,0,1-.346.563c.026.033.052.063.077.091l.022.025c.117.144.209.263.283.368a1.507,1.507,0,0,1,1.312.587l.015.019a15.181,15.181,0,0,0,1.02,1.133l.008.008a1.724,1.724,0,0,1,.635,1.431.9.9,0,0,1-.331.519l.049.048.013.013c.047.049.089.1.126.143a1.238,1.238,0,0,1,.775.145,1.481,1.481,0,0,1,.163-.009,1.173,1.173,0,0,1,1.062.644,8.843,8.843,0,0,0,.84,1.064,1.587,1.587,0,0,1,.691,1.118,1.059,1.059,0,0,1-.4.8l.063.071.061.067c.54.445,1.439,1.15,1.667,1.324s.489.364.778.589l.3.233,0,0,.131.1a20.909,20.909,0,0,1,1.688,1.412l.022.022a6.056,6.056,0,0,1,.817,7.263A3.523,3.523,0,0,1,82.9,66.4a2.769,2.769,0,0,1-.189,2.091A2.446,2.446,0,0,1,80.992,69.6l-.054.011a20.437,20.437,0,0,1,.845,5.546l.435,1.268-.634.107.114.378.923.917-1.842-.207.125,1.257-.682-.227-.532-.067-.063.6v.645l-.066-.026-.006.061-.613-.3-.564-.225-.108.41v.709l-1.16-.575Zm-.741-1.852.25.162.257-.77.925.461.248-.942.928.37v-.071l.085.042.091-.858.967.121-.109-1.1.9.1-.257-.854.59-.1-.105-.306v-.081a19.445,19.445,0,0,0-.977-5.9l-.2-.616.647-.04a3.854,3.854,0,0,0,.538-.071,1.5,1.5,0,0,0,1.061-.636,1.763,1.763,0,0,0,.1-1.24l-.016,0-.112-.449-.224-.447.52-.2a2.517,2.517,0,0,0,1.3-1.112l.005-.009a5.073,5.073,0,0,0-.669-6.057c-.449-.417-.918-.814-1.395-1.182a.794.794,0,0,1-.463-.1l0,0a.79.79,0,0,1-.362-.475.748.748,0,0,1-.017-.074c-.2-.155-.386-.293-.558-.419l-.008-.006c-.259-.2-1.185-.924-1.729-1.374l-.027-.023-.107-.118-.062-.069-.475.436.165-.823-.042-.055-.116-.152-.5-.652.812-.146c.044-.008.088-.018.132-.027l.126-.026.031-.032a1.487,1.487,0,0,0-.347-.373l-.022-.019-.02-.022a9.841,9.841,0,0,1-.971-1.229l-.015-.022-.012-.024c-.066-.125-.118-.135-.19-.135a.672.672,0,0,0-.162.024l-.271.069-.2-.2a.158.158,0,0,0-.128-.044.8.8,0,0,0-.233.044l-.349.11-.21-.3a2.463,2.463,0,0,0-.229-.292c-.212-.209-.441-.456-.6-.628l-.68-.75,1.009-.084c.028,0,.061-.007.1-.012l.11-.015.01,0a.536.536,0,0,0,.051-.023,1.631,1.631,0,0,0-.363-.5,15.951,15.951,0,0,1-1.091-1.213.52.52,0,0,0-.412-.234.75.75,0,0,0-.15.017l-.207.042-.175-.119a.536.536,0,0,0-.106-.057l-.156-.06-.089-.142a4.261,4.261,0,0,0-.3-.4,4.656,4.656,0,0,1-.517-.736l-.413-.684.8-.072c.026,0,.059-.007.093-.012l.039-.006a3.359,3.359,0,0,0-.359-.5,4.935,4.935,0,0,1-.545-.777c-.243-.4-.519-.85-.767-.85a.371.371,0,0,0-.106.018l-.258.078-.207-.172a.365.365,0,0,0-.125-.065l-.286-.091-.054-.3a1.757,1.757,0,0,0-.286-.535c-.076-.11-.165-.257-.26-.412-.051-.083-.1-.17-.159-.259l-.029-.047-.245-.693.605-.048.022-.026a2.085,2.085,0,0,0-.3-.523c-.076-.113-.156-.245-.248-.4a6.764,6.764,0,0,0-.777-1.11h0l-.195-.151c-.024-.017-.044-.033-.062-.048l-.006,0-.849-.653L66.2,37.4c-.071-.15-.168-.342-.291-.585l-.183-.363-.016-.035c-.005-.013-.021-.04-.034-.064a1.614,1.614,0,0,1-.081-.156l-.385-.879.659.132c-.072-.154-.173-.353-.282-.568-.066-.13-.14-.276-.222-.44l-.015-.033a8.107,8.107,0,0,0-.643-1.237.075.075,0,0,0-.055-.016.657.657,0,0,0-.17.032l-.284.083-.21-.209-.036-.016-.2-.089-.077-.173c-.063-.142-.157-.332-.275-.573-.082-.168-.178-.362-.287-.589l-.019-.045c-.006-.018-.019-.044-.033-.072s-.032-.067-.046-.1l-.3-.7h.566c-.068-.148-.162-.34-.264-.546-.078-.159-.168-.341-.27-.55l-.012-.024-.009-.025a5.949,5.949,0,0,0-.621-1.245c-.036.009-.086.025-.127.038l-.5.156-.175-.42c-.095-.226-.233-.525-.448-.967l-.019-.043c0-.009-.017-.035-.027-.054s-.034-.063-.052-.1l-.337-.73.576.015c-.117-.3-.348-.777-.5-1.1l-.018-.042a4.281,4.281,0,0,0-.8-1.325l-.007,0c-.035.012-.089.034-.132.051l-.336.138-.236-.262a.781.781,0,0,1-.051-.063l-.007,0-.883-.5.525-.219a13.121,13.121,0,0,1-.467-1.285l-.009-.034a17.744,17.744,0,0,1-.453-4.143v-.032a34.1,34.1,0,0,1,1.27-7.067c1-3.827.951-4.742.244-6.11-.806-1.568-3.822-2.431-10.411-2.979C44.29.852,39.97.685,34.82.51l-.138.249a.758.758,0,0,1,.008.152.772.772,0,0,1-.254.554.786.786,0,0,1-.217.143l-.276.5c-1.526,2.747-3.1,5.585-4.76,8.325a.767.767,0,0,1,.03.407.778.778,0,0,1-.328.508.77.77,0,0,1-.343.132q-.178.287-.352.565l.14-.023.221.663h-.765q-.165.259-.329.513a.788.788,0,0,1-.31.85.77.77,0,0,1-.336.135c-.485.73-1,1.474-1.527,2.215-.3.427-.615.856-.943,1.311-3.224,4.466-7.237,10.024-7.054,14.548l.072,1.782-.331-.5-.045.185c-.7,2.883-1.84,7.629-2.332,10.2a11.539,11.539,0,0,0,1.485.837l.378.177-.107.4a13.058,13.058,0,0,1-1.314,3.378,4.626,4.626,0,0,1-4.312,2.373,16.3,16.3,0,0,1-3.94-.625l-.062-.018L6.568,50.4a15.31,15.31,0,0,0-3.63-.625c-1.883,0-2.27.866-2.4,1.518a1.987,1.987,0,0,0,.6,1.844c1.066,1.146,3.249,1.947,5.176,2.654.274.1.544.2.8.3L56.976,74.769c.578.217,1.168.441,1.738.658,4.733,1.8,9.626,3.665,14.7,3.757a20.818,20.818,0,0,0,2.434-.1ZM73.3,74.31a26.189,26.189,0,0,1-7.942-1.743c-2.432-.919-5.429-2.436-5.9-4.449a4.415,4.415,0,0,1-.112-.692c-.127-1.542.678-2.37,1.61-3.328l.264-.271.3.1c5.156,1.675,10.374,3.149,13.956,3.943.159.036.324.075.508.118l.267.064.09.259c.062.178.125.378.183.578l.055.2a7.029,7.029,0,0,1,.277,2.224c-.1,1.863-1.271,2.922-3.3,2.991l-.015.008-.114,0Zm-11.8-9.339a2.872,2.872,0,0,0-1.161,2.376,3.434,3.434,0,0,0,.088.54c.286,1.222,2.21,2.585,5.281,3.745A25.119,25.119,0,0,0,73.3,73.31l.012-.006.114,0c1.583-.024,2.355-.676,2.431-2.051a6.052,6.052,0,0,0-.245-1.909l-.05-.18c-.026-.09-.053-.181-.081-.268l-.223-.051C71.717,68.057,66.6,66.615,61.508,64.97Zm-9,1.9a18.684,18.684,0,0,1-5.781-1.474l-.006,0L25.961,57.454c-2.764-1.057-5.3-2.176-6.016-4.228-.5-1.452-.084-3.224,1.319-5.577l.234-.392.411.2a34.729,34.729,0,0,0,5.136,1.969l.008-.016.091.03a49.75,49.75,0,0,0,3.765-5.244l.256-.411.419.244A68.046,68.046,0,0,1,46.17,55.417l.214.217c2.909,2.956,4,4.062,6.577,5.195.682.3,1.589.662,2.625,1.046l.444.164-.14.452c-.128.414-.231.8-.33,1.181-.375,1.426-.7,2.658-2.046,3.064A3.5,3.5,0,0,1,52.5,66.868Zm-5.433-2.411A18.215,18.215,0,0,0,52.5,65.868a2.561,2.561,0,0,0,.723-.09c.775-.234.99-.931,1.366-2.361.063-.239.131-.5.208-.769-.879-.332-1.632-.635-2.242-.9-2.754-1.21-3.964-2.439-6.887-5.409l-.216-.219A67.058,67.058,0,0,0,31.5,45.135a50.784,50.784,0,0,1-3.779,5.176l-.149.3-.081-.022-.01.013-.254-.085-.054-.015A35.763,35.763,0,0,1,21.9,48.553c-1.06,1.88-1.38,3.268-1.006,4.346.517,1.49,2.382,2.456,5.428,3.622Z" transform="translate(-16086.009 -5089.5)" fill="#f8f9fa"/>
    <g id="Сгруппировать_132" data-name="Сгруппировать 132" transform="translate(-16780.137 -5083)">
      <g id="Сгруппировать_131" data-name="Сгруппировать 131" clip-path="url(#clip-path-2)">
        <path id="Контур_1731" data-name="Контур 1731" d="M19.2,59.7v7.771H15.543V59.7C3.2,59.063,0,51.2,0,32.457S3.2,5.852,15.543,5.212V0H19.2V5.212c12.343.64,15.543,8.5,15.543,27.245S31.543,59.063,19.2,59.7M15.543,8.5C5.76,9.051,3.657,15.543,3.657,32.457s2.1,23.406,11.886,23.955Zm3.657,0V56.412c9.783-.549,11.886-7.04,11.886-23.955S28.983,9.051,19.2,8.5" fill="#fff"/>
        <path id="Контур_1732" data-name="Контур 1732" d="M67.658,67.2V12.525L49.006,67.2H45.349V2.1h3.657V56.777L67.658,2.1h3.657V67.2Z" fill="#fff"/>
        <path id="Контур_1733" data-name="Контур 1733" d="M88.138,5.394V67.2H84.481V2.1h20.572V5.394Z" fill="#fff"/>
        <path id="Контур_1734" data-name="Контур 1734" d="M121.326,58.515c-2.286,7.863-6.034,8.686-11.885,8.686V63.909c4.754,0,6.856-1.006,8.594-6.857l3.109-10.7L107.886,2.1h4.023l11.154,38.858L133.943,2.1h4.023Z" fill="#fff"/>
        <path id="Контур_1735" data-name="Контур 1735" d="M156.433,37.211H148.57V67.2h-3.657V2.1h11.52c6.4,0,13.166,1.737,13.166,17.554,0,15.635-6.948,17.554-13.166,17.554m-.274-31.817H148.57V33.92h7.589c5.3,0,9.783-1.738,9.783-14.263s-4.48-14.263-9.783-14.263" fill="#fff"/>
        <path id="Контур_1736" data-name="Контур 1736" d="M201.327,67.2V35.748H183.955V67.2H180.3V2.1h3.657V32.457h17.372V2.1h3.657V67.2Z" fill="#fff"/>
        <path id="Контур_1737" data-name="Контур 1737" d="M238.811,64.731c-2.012,2.1-5.12,3.2-8.686,3.2s-6.674-1.1-8.685-3.2c-3.84-3.931-4.572-7.589-4.572-30.08S217.6,8.5,221.44,4.571c2.011-2.1,5.12-3.2,8.685-3.2s6.674,1.1,8.686,3.2c3.84,3.931,4.571,7.589,4.571,30.08s-.731,26.149-4.571,30.08m-2.56-57.783a9.35,9.35,0,0,0-12.251,0c-2.926,3.2-3.475,6.034-3.475,27.7s.549,24.5,3.475,27.7a9.35,9.35,0,0,0,12.251,0c2.926-3.2,3.475-6.034,3.475-27.7s-.549-24.5-3.475-27.7" fill="#fff"/>
        <path id="Контур_1738" data-name="Контур 1738" d="M258.925,5.394V67.2h-3.657V2.1H275.84V5.394Z" fill="#fff"/>
        <path id="Контур_1739" data-name="Контур 1739" d="M305.553,64.731c-2.012,2.1-5.12,3.2-8.686,3.2s-6.674-1.1-8.685-3.2c-3.84-3.931-4.572-7.589-4.572-30.08s.732-26.149,4.572-30.08c2.011-2.1,5.12-3.2,8.685-3.2s6.674,1.1,8.686,3.2c3.84,3.931,4.571,7.589,4.571,30.08s-.731,26.149-4.571,30.08m-2.56-57.783a9.35,9.35,0,0,0-12.251,0c-2.926,3.2-3.475,6.034-3.475,27.7s.549,24.5,3.475,27.7a9.35,9.35,0,0,0,12.251,0c2.926-3.2,3.475-6.034,3.475-27.7s-.549-24.5-3.475-27.7" fill="#fff"/>
        <path id="Контур_1740" data-name="Контур 1740" d="M340.3,2.1h3.657V67.2H340.3Zm24.777,65.1L344.135,33.28,363.7,2.1H368L347.975,33.1l21.577,34.1Z" fill="#fff"/>
        <path id="Контур_1741" data-name="Контур 1741" d="M398.9,67.2l-3.931-19.566H379.79L375.95,67.2h-4.023L385.916,2.1h3.291l13.715,65.1ZM387.379,9.6l-6.857,34.743h13.8Z" fill="#fff"/>
        <path id="Контур_1742" data-name="Контур 1742" d="M418.464,5.394V67.2h-3.657V5.394h-10.88V2.1h25.417V5.394Z" fill="#fff"/>
        <path id="Контур_1743" data-name="Контур 1743" d="M457.321,67.2,453.39,47.634H438.212L434.372,67.2h-4.023L444.338,2.1h3.291l13.715,65.1ZM445.8,9.6l-6.857,34.743h13.8Z" fill="#fff"/>
        <path id="Контур_1744" data-name="Контур 1744" d="M489.32,67.2V35.748H471.948V67.2h-3.657V2.1h3.657V32.457H489.32V2.1h3.657V67.2Z" fill="#fff"/>
        <path id="Контур_1745" data-name="Контур 1745" d="M528.451,67.2V12.525L509.8,67.2h-3.657V2.1H509.8V56.777L528.451,2.1h3.657V67.2Z" fill="#fff"/>
        <path id="Контур_1746" data-name="Контур 1746" d="M543.262,67.2l10.331-30.628c-5.12-1.554-8.229-6.126-8.229-16.915C545.364,3.84,552.13,2.1,558.53,2.1h11.52V67.2h-3.657V37.12h-9.326L547.285,67.2Zm14.994-33.28h8.137V5.394h-8.137c-6.857,0-9.234,4.755-9.234,14.263S551.4,33.92,558.256,33.92" fill="#fff"/>
        <path id="Контур_1747" data-name="Контур 1747" d="M622.53,67.2V35.748H605.158V67.2H601.5V2.1h3.657V32.457H622.53V2.1h3.657V67.2Z" fill="#fff"/>
        <path id="Контур_1748" data-name="Контур 1748" d="M660.1,67.2l-3.931-19.566H641L637.156,67.2h-4.023L647.122,2.1h3.291l13.715,65.1ZM648.586,9.6l-6.858,34.743h13.806Z" fill="#fff"/>
      </g>
    </g>
    <path id="Объединение_7" data-name="Объединение 7" d="M17339.207,6519.708l-4.283-4.283,12.848-12.849H17284.5v-6.128h63.3l-12.871-12.871,4.283-4.283.354.354,19.859,19.853-.354.354Zm-2.869-4.283,2.869,2.869,18.8-18.793-18.8-18.792-2.869,2.869,13.871,13.871H17285.5v4.128h64.688Z" transform="translate(-34168.848 -11549.041)" fill="#fff"/>
    <g id="Сгруппировать_134" data-name="Сгруппировать 134" transform="translate(-17228 -5085)">
      <g id="Сгруппировать_133" data-name="Сгруппировать 133" transform="translate(0 0)" clip-path="url(#clip-path-3)">
        <path id="Контур_1749" data-name="Контур 1749" d="M19.2,59.7v7.771H15.543V59.7C3.2,59.063,0,51.2,0,32.457S3.2,5.851,15.543,5.211V0H19.2V5.211c12.343.64,15.543,8.5,15.543,27.246S31.543,59.063,19.2,59.7M15.543,8.5C5.76,9.052,3.657,15.543,3.657,32.457s2.1,23.406,11.886,23.954Zm3.657,0V56.412c9.783-.549,11.886-7.04,11.886-23.954S28.983,9.052,19.2,8.5" transform="translate(0 0)" fill="#fff"/>
        <path id="Контур_1750" data-name="Контур 1750" d="M69.441,68.317V3.219H90.47V6.511H73.1V34.123H88.093v3.291H73.1V65.026H90.47v3.291Z" transform="translate(-24.092 -1.117)" fill="#fff"/>
        <path id="Контур_1751" data-name="Контур 1751" d="M141.917,78.649V68.318H114.4V78.649H110.74V65.026h3.931c3.383-8.869,5.211-19.84,5.211-32.366V3.22H141V65.026h4.571V78.649ZM137.346,6.511h-13.9V32.843c0,12.069-1.462,22.857-4.937,32.183h18.834Z" transform="translate(-38.419 -1.117)" fill="#fff"/>
        <path id="Контур_1752" data-name="Контур 1752" d="M178.359,68.317V3.219h21.029V6.511H182.016V34.123H197.01v3.291H182.016V65.026h17.372v3.291Z" transform="translate(-61.879 -1.117)" fill="#fff"/>
        <path id="Контур_1753" data-name="Контур 1753" d="M239.157,38.329h-7.863V68.318h-3.657V3.22h11.52c6.4,0,13.166,1.737,13.166,17.554,0,15.634-6.949,17.554-13.166,17.554m-.274-31.817h-7.589V35.037h7.589c5.3,0,9.783-1.737,9.783-14.263s-4.48-14.263-9.783-14.263" transform="translate(-78.975 -1.117)" fill="#fff"/>
        <path id="Контур_1754" data-name="Контур 1754" d="M292.971,68.317l-3.931-19.566H273.862l-3.84,19.566H266l13.989-65.1h3.291l13.714,65.1Zm-11.52-57.6L274.593,45.46H288.4Z" transform="translate(-92.284 -1.117)" fill="#fff"/>
        <path id="Контур_1755" data-name="Контур 1755" d="M349.7,81.117v-12.8H324.1V3.22h3.657V65.026h17.372V3.22h3.657V65.026h4.571V81.117Z" transform="translate(-112.44 -1.117)" fill="#fff"/>
        <path id="Контур_1756" data-name="Контур 1756" d="M405.485,68.317V13.642L386.834,68.317h-3.657V3.219h3.657V57.894L405.485,3.219h3.657v65.1Z" transform="translate(-132.937 -1.117)" fill="#fff"/>
        <path id="Контур_1757" data-name="Контур 1757" d="M440.016,68.317l10.332-30.628c-5.12-1.554-8.229-6.126-8.229-16.915,0-15.817,6.766-17.554,13.166-17.554H466.8v65.1h-3.657V38.236h-9.326l-9.783,30.08Zm14.994-33.28h8.137V6.51H455.01c-6.857,0-9.234,4.755-9.234,14.263s2.377,14.263,9.234,14.263" transform="translate(-152.656 -1.117)" fill="#fff"/>
      </g>
    </g>
  </g>
</svg>
