<svg xmlns="http://www.w3.org/2000/svg" width="1060" height="391.591" viewBox="0 0 1060 391.591">
  <g id="_404" data-name="404" transform="translate(-250 -354)">
    <g id="_4" data-name="4" transform="translate(972.711 354)">
      <path id="Контур_1563" data-name="Контур 1563" d="M157.555,0,0,247.8v82.6H190.442v61.186H292.164V330.4h45.125V247.8H292.164V0Z" transform="translate(0 -0.001)" fill="#161615"/>
      <path id="Контур_1564" data-name="Контур 1564" d="M312.7,131.449c-6.047,25.352-14.411,43.523-24.9,53.934a4.635,4.635,0,0,0-.191-.737c-1.9-5.339-9.475-1.832-13.059-.289-7.092,3.02-11.212,3.426-14.613-.634A23.408,23.408,0,0,1,256.7,178.1a22.27,22.27,0,0,0,3.06-2.457c-1.751-5.073-6.189-15.813-8.2-20.742l-.048-.122-.041-.262c-1.068-9.549-11.783-19.617-19.456-27.5q-1.934-1.982-3.791-4.04a.539.539,0,0,1-.553.055.552.552,0,0,1-.276-.311.537.537,0,0,1,.027-.411.609.609,0,0,1,.085-.128q-1.634-1.838-3.228-3.713a.446.446,0,0,1-.169.1l-.018.006a.531.531,0,0,1-.67-.338.491.491,0,0,1,.021-.411.663.663,0,0,1,.136-.181c-4.268-5.076-8.316-10.34-12.375-15.582a.521.521,0,0,1-.41-.081.547.547,0,0,1-.181-.693l-.929-1.2c-8.7,1.633-17.455,3.292-26.036,5.356-12.692,3.056-17.854,5.592-19.006,9.015-1.026,3.046-.776,4.973,2.2,11.867a62.526,62.526,0,0,1,4.273,12.485,32.134,32.134,0,0,1,.337,7.5,23.476,23.476,0,0,1-.729,3.3l.115.037a1.264,1.264,0,0,0-.176.147c-.045.066-.069.139-.112.211-.506-.122-.812-.2-1.237.269a8.936,8.936,0,0,0-1.272,3.059c-.865,2.8-.9,3.216-.36,3.467l.025,0a1.732,1.732,0,0,1,.354-.054c-.035.13-.091.247-.116.375-.264.871-.444,1.485-.565,1.961-.493-.074-.868-.181-1.252.266a12,12,0,0,0-.96,2.892c-.859,2.772-1.1,3.147-.517,3.481l.52-.08c-.03.134-.081.256-.1.389-.342,1.111-.581,1.829-.715,2.322a1.091,1.091,0,0,0-.343.291,1.259,1.259,0,0,0-1.349.475,15.979,15.979,0,0,0-.937,2.719c-.927,2.912-1.057,2.977-.379,3.54a3.333,3.333,0,0,1,.442-.172c-.041.155-.114.3-.153.461-.272.852-.478,1.455-.609,1.9l-1.091,1.161a2.349,2.349,0,0,0-.218.232l-.43.444a20.671,20.671,0,0,0-1.541,3.219c-.721,1.493-.593,1.846.014,2.3.077.042.153.086.225.135a.76.76,0,0,0,.236-.011l.008.053c-.2.508-.409,1-.568,1.326a3.935,3.935,0,0,0-.467,1.433,1.609,1.609,0,0,0-.5.37c-1.866-.266-2.169,2.466-3.08,3.789-.921,1.588-.945,2.044.065,2.477.153-.014.326.014.5-.012a7.693,7.693,0,0,1-.672,1.361,8.933,8.933,0,0,0-.5.947,1.919,1.919,0,0,0-.358.264,1.859,1.859,0,0,0-1.834,1.017,28.891,28.891,0,0,1-1.611,2.469c-.988,1.4-.959,2.25.123,2.493.047.013.091.041.13.035.181-.018.359.01.544-.019-.294.448-.62.921-.9,1.3a5.438,5.438,0,0,0-.42.736,1.518,1.518,0,0,0-1.55.461,1.351,1.351,0,0,0-1.588.929,17.382,17.382,0,0,1-1.367,2.408c-1.386,1.6-.621,1.984-.032,2.392.237-.007.495.019.74.025-.241.44-.466.887-.749,1.309l-.13.194c-.875.979-2.344,2.561-2.775,2.99s-.829.858-1.259,1.292a.492.492,0,0,1,.051.331.538.538,0,0,1-.593.479.5.5,0,0,1-.183-.057,37.841,37.841,0,0,0-2.643,3.006,10.352,10.352,0,0,0,.5,12.49,5.606,5.606,0,0,0,3.247,2.014.346.346,0,0,0,.011.073c-.5,3.145.733,4.886,3.46,5.026a8.045,8.045,0,0,0,1.144-.026,37.238,37.238,0,0,0-.141,11.43l-.263,1.532,1.156.017-.281,1.993,1.862-.5.108,2.067,1.949-.552.506,1.911,1.885-1.1.765,1.743,1.62-1.143.72,1.457,1.065-.944a39.506,39.506,0,0,0,4.619-.522,94.846,94.846,0,0,0,29.314-12.855l23.017-12.891,63.549-35.584a32.7,32.7,0,0,0,6.2-3.613c13.813-8.846,23.439-27.6,30.085-51.091ZM182.024,232.5c-.479,6.131-16.6,13.59-23.181,14.488l-.025,0-.005,0c-4.024.551-5.593-1.417-6.1-3.827a12.36,12.36,0,0,1-.1-3.884l.013-.112.031-.248c.05-.391.108-.753.164-1.07l.891-.355c7-2.717,16.477-7.111,24.679-11.236,1.957,1.481,3.462,2.578,3.636,5.078a7.235,7.235,0,0,1-.011,1.165M241.2,202.679l-35.986,20.51a22.9,22.9,0,0,1-11.554,4.254l-.006-.008c-2.644-.376-3.173-3.151-4.864-6.636,1.829-1.011,3.395-1.932,4.586-2.691a37.758,37.758,0,0,0,11.252-12.136,125.858,125.858,0,0,1,23.482-24.907,93.33,93.33,0,0,0,8.973,9.106,65.536,65.536,0,0,0,9.746-5.47c7.559,9.163,3.287,12.9-5.629,17.979" transform="translate(-20.535 -15.253)" fill="#f8f9fa"/>
    </g>
    <g id="_0" data-name="0" transform="translate(626.449 354)">
      <path id="Контур_1565" data-name="Контур 1565" d="M206.757,391.591H100.345A100.346,100.346,0,0,1,0,291.246v-190.9A100.346,100.346,0,0,1,100.345,0H206.757A100.345,100.345,0,0,1,307.1,100.345v190.9A100.345,100.345,0,0,1,206.757,391.591" transform="translate(0.001)" fill="#161615"/>
      <path id="Контур_1566" data-name="Контур 1566" d="M186.5,285.377H169.1a10,10,0,0,1-10-10V162.788a10,10,0,0,1,10-10h17.4a10,10,0,0,1,10,10V275.374a10,10,0,0,1-10,10" transform="translate(-24.649 -23.559)" fill="#f8f9fa"/>
    </g>
    <g id="_4-2" data-name="4" transform="translate(250 354)">
      <path id="Контур_1563-2" data-name="Контур 1563" d="M157.555,0,0,247.8v82.6H190.442v61.186H292.164V330.4h45.125V247.8H292.164V0Z" transform="translate(0 -0.001)" fill="#161615"/>
      <path id="Контур_1564-2" data-name="Контур 1564" d="M312.7,131.449c-6.047,25.352-14.411,43.523-24.9,53.934a4.635,4.635,0,0,0-.191-.737c-1.9-5.339-9.475-1.832-13.059-.289-7.092,3.02-11.212,3.426-14.613-.634A23.408,23.408,0,0,1,256.7,178.1a22.27,22.27,0,0,0,3.06-2.457c-1.751-5.073-6.189-15.813-8.2-20.742l-.048-.122-.041-.262c-1.068-9.549-11.783-19.617-19.456-27.5q-1.934-1.982-3.791-4.04a.539.539,0,0,1-.553.055.552.552,0,0,1-.276-.311.537.537,0,0,1,.027-.411.609.609,0,0,1,.085-.128q-1.634-1.838-3.228-3.713a.446.446,0,0,1-.169.1l-.018.006a.531.531,0,0,1-.67-.338.491.491,0,0,1,.021-.411.663.663,0,0,1,.136-.181c-4.268-5.076-8.316-10.34-12.375-15.582a.521.521,0,0,1-.41-.081.547.547,0,0,1-.181-.693l-.929-1.2c-8.7,1.633-17.455,3.292-26.036,5.356-12.692,3.056-17.854,5.592-19.006,9.015-1.026,3.046-.776,4.973,2.2,11.867a62.527,62.527,0,0,1,4.273,12.485,32.134,32.134,0,0,1,.337,7.5,23.476,23.476,0,0,1-.729,3.3l.115.037a1.264,1.264,0,0,0-.176.147c-.045.066-.069.139-.112.211-.506-.122-.812-.2-1.237.269a8.935,8.935,0,0,0-1.272,3.059c-.865,2.8-.9,3.216-.36,3.467l.025,0a1.732,1.732,0,0,1,.354-.054c-.035.13-.091.247-.116.375-.264.871-.444,1.485-.565,1.961-.493-.074-.868-.181-1.252.266a12,12,0,0,0-.96,2.892c-.859,2.772-1.1,3.147-.517,3.481l.52-.08c-.03.134-.081.256-.1.389-.342,1.111-.581,1.829-.715,2.322a1.091,1.091,0,0,0-.343.291,1.259,1.259,0,0,0-1.349.475,15.977,15.977,0,0,0-.937,2.719c-.927,2.912-1.057,2.977-.379,3.54a3.333,3.333,0,0,1,.442-.172c-.041.155-.114.3-.153.461-.272.852-.478,1.455-.609,1.9l-1.091,1.161a2.351,2.351,0,0,0-.218.232l-.43.444a20.666,20.666,0,0,0-1.541,3.219c-.721,1.493-.593,1.846.014,2.3.077.042.153.086.225.135a.76.76,0,0,0,.236-.011l.008.053c-.2.508-.409,1-.568,1.326a3.934,3.934,0,0,0-.467,1.433,1.609,1.609,0,0,0-.5.37c-1.866-.266-2.169,2.466-3.08,3.789-.92,1.588-.945,2.044.065,2.477.153-.014.325.014.5-.012a7.7,7.7,0,0,1-.672,1.361,8.933,8.933,0,0,0-.5.947,1.919,1.919,0,0,0-.358.264,1.859,1.859,0,0,0-1.834,1.017,28.887,28.887,0,0,1-1.611,2.469c-.988,1.4-.959,2.25.123,2.493.047.013.091.041.13.035.181-.018.359.01.544-.019-.294.448-.62.921-.9,1.3a5.438,5.438,0,0,0-.42.736,1.518,1.518,0,0,0-1.55.461,1.351,1.351,0,0,0-1.588.929,17.381,17.381,0,0,1-1.367,2.408c-1.386,1.6-.621,1.984-.032,2.392.237-.007.495.019.74.025-.241.44-.466.887-.749,1.309l-.13.194c-.875.979-2.344,2.561-2.775,2.99s-.829.858-1.26,1.292a.492.492,0,0,1,.051.331.538.538,0,0,1-.593.479.5.5,0,0,1-.183-.057,37.844,37.844,0,0,0-2.643,3.006,10.352,10.352,0,0,0,.5,12.49,5.605,5.605,0,0,0,3.247,2.014.346.346,0,0,0,.011.073c-.5,3.145.733,4.886,3.46,5.026a8.045,8.045,0,0,0,1.144-.026,37.238,37.238,0,0,0-.141,11.43l-.263,1.532,1.156.017-.281,1.993,1.862-.5.108,2.067,1.949-.552.506,1.911,1.885-1.1.765,1.743,1.62-1.143.72,1.457,1.065-.944a39.506,39.506,0,0,0,4.619-.522,94.846,94.846,0,0,0,29.314-12.855l23.017-12.891,63.549-35.584a32.7,32.7,0,0,0,6.2-3.613c13.813-8.846,23.439-27.6,30.085-51.091ZM182.024,232.5c-.479,6.131-16.6,13.59-23.181,14.488l-.025,0-.005,0c-4.024.551-5.593-1.417-6.1-3.827a12.361,12.361,0,0,1-.1-3.884l.013-.112.031-.248c.05-.391.108-.753.164-1.07l.891-.355c7-2.717,16.477-7.111,24.679-11.236,1.957,1.481,3.462,2.578,3.636,5.078a7.235,7.235,0,0,1-.011,1.165M241.2,202.679l-35.986,20.51a22.9,22.9,0,0,1-11.554,4.254l-.006-.008c-2.644-.376-3.173-3.151-4.864-6.636,1.829-1.011,3.395-1.932,4.586-2.691a37.758,37.758,0,0,0,11.252-12.136,125.858,125.858,0,0,1,23.482-24.907,93.33,93.33,0,0,0,8.973,9.106,65.536,65.536,0,0,0,9.746-5.47c7.559,9.163,3.287,12.9-5.629,17.979" transform="translate(-20.535 -15.253)" fill="#f8f9fa"/>
    </g>
  </g>
</svg>
