<svg id="docx" xmlns="http://www.w3.org/2000/svg" xmlns:xlink="http://www.w3.org/1999/xlink" width="31.647" height="35" viewBox="0 0 31.647 35">
  <defs>
    <clipPath id="clip-path">
      <rect id="Прямоугольник_77" data-name="Прямоугольник 77" width="31.647" height="35" fill="none"/>
    </clipPath>
  </defs>
  <path id="Контур_1171" data-name="Контур 1171" d="M2.126,0V35H31.646V5.832L25.742,0Z" transform="translate(0)" fill="#fff"/>
  <path id="Контур_1172" data-name="Контур 1172" d="M22.126,0V5h5Z" transform="translate(4.521)" fill="#e1e3e5"/>
  <g id="Сгруппировать_41" data-name="Сгруппировать 41">
    <g id="Сгруппировать_40" data-name="Сгруппировать 40" clip-path="url(#clip-path)">
      <path id="Контур_1173" data-name="Контур 1173" d="M24.179,23.425H0V10.705A1.863,1.863,0,0,1,1.863,8.842H27.94a1.273,1.273,0,0,1,1.225,1.619l-3.318,11.7a1.734,1.734,0,0,1-1.668,1.261" transform="translate(0 1.474)" fill="#02b2ff"/>
      <path id="Контур_1174" data-name="Контур 1174" d="M2.48,24.023V21.342H0Z" transform="translate(0 3.557)" fill="#0081b6"/>
      <path id="Контур_1175" data-name="Контур 1175" d="M4.456,20.4a2.665,2.665,0,0,1-1.132-.242,2.588,2.588,0,0,1-.894-.684,3.189,3.189,0,0,1-.585-1.1,4.839,4.839,0,0,1-.21-1.466,4.769,4.769,0,0,1,.212-1.464,3.157,3.157,0,0,1,.591-1.1,2.6,2.6,0,0,1,.9-.676,2.672,2.672,0,0,1,1.131-.238,2.377,2.377,0,0,1,.663.087,2.15,2.15,0,0,1,.494.2,1.763,1.763,0,0,1,.364.3,2.375,2.375,0,0,1,.248.3c.048.077.106.174.174.29h.078V11.263H7.8v9H6.517V19.216h-.11a3.367,3.367,0,0,1-.178.292,2.7,2.7,0,0,1-.257.306,1.724,1.724,0,0,1-.368.3,2.077,2.077,0,0,1-.5.2,2.364,2.364,0,0,1-.653.086m.29-1.122a1.5,1.5,0,0,0,1.3-.65,2.932,2.932,0,0,0,.464-1.737,2.859,2.859,0,0,0-.46-1.714,1.511,1.511,0,0,0-1.3-.633,1.582,1.582,0,0,0-.985.309,1.813,1.813,0,0,0-.6.833,3.426,3.426,0,0,0-.2,1.205,3.5,3.5,0,0,0,.2,1.22,1.875,1.875,0,0,0,.606.851,1.559,1.559,0,0,0,.981.316" transform="translate(1.966 1.237)" fill="#fff"/>
      <path id="Контур_1176" data-name="Контур 1176" d="M11.864,19.463a3.124,3.124,0,0,1-1.657.432,3.13,3.13,0,0,1-1.657-.432,2.85,2.85,0,0,1-1.1-1.225,4.094,4.094,0,0,1-.386-1.825,3.654,3.654,0,0,1,.86-2.536,2.922,2.922,0,0,1,2.286-.957,2.92,2.92,0,0,1,2.286.957,3.643,3.643,0,0,1,.862,2.536,4.094,4.094,0,0,1-.386,1.825,2.844,2.844,0,0,1-1.1,1.225m-1.652-.671a1.7,1.7,0,0,0,.8-.188,1.544,1.544,0,0,0,.572-.52,2.555,2.555,0,0,0,.33-.755,3.862,3.862,0,0,0,0-1.838,2.618,2.618,0,0,0-.33-.76,1.547,1.547,0,0,0-.572-.521,1.77,1.77,0,0,0-1.609,0,1.561,1.561,0,0,0-.573.521,2.521,2.521,0,0,0-.333.76,3.862,3.862,0,0,0,0,1.838,2.462,2.462,0,0,0,.333.755,1.557,1.557,0,0,0,.573.52,1.711,1.711,0,0,0,.807.188" transform="translate(4.151 1.744)" fill="#fff"/>
      <path id="Контур_1177" data-name="Контур 1177" d="M15.418,19.9a3.109,3.109,0,0,1-1.682-.447,2.853,2.853,0,0,1-1.092-1.233,4.149,4.149,0,0,1-.373-1.8,4.1,4.1,0,0,1,.384-1.818,2.906,2.906,0,0,1,1.1-1.235,3.065,3.065,0,0,1,1.65-.441,2.942,2.942,0,0,1,1.917.622,2.346,2.346,0,0,1,.871,1.647h-1.28a1.445,1.445,0,0,0-1.486-1.161,1.6,1.6,0,0,0-1.328.639,2.712,2.712,0,0,0-.5,1.718,2.81,2.81,0,0,0,.5,1.752,1.591,1.591,0,0,0,1.332.648,1.539,1.539,0,0,0,.965-.307,1.437,1.437,0,0,0,.521-.854h1.28a2.417,2.417,0,0,1-.855,1.64,2.854,2.854,0,0,1-1.919.633" transform="translate(6.326 1.743)" fill="#fff"/>
    </g>
  </g>
</svg>
