<svg id="home" xmlns="http://www.w3.org/2000/svg" xmlns:xlink="http://www.w3.org/1999/xlink" width="18" height="18" viewBox="0 0 18 18">
  <defs>
    <clipPath id="clip-path">
      <rect id="Прямоугольник_26" data-name="Прямоугольник 26" width="18" height="18" fill="#fff"/>
    </clipPath>
  </defs>
  <g id="Сгруппировать_19" data-name="Сгруппировать 19" clip-path="url(#clip-path)">
    <path id="Контур_1056" data-name="Контур 1056" d="M17.488,4.7,9.5.133a1,1,0,0,0-1,0L.512,4.7A1.022,1.022,0,0,0,0,5.587V16.981A1.014,1.014,0,0,0,1.01,18H16.99A1.014,1.014,0,0,0,18,16.981V5.587a1.022,1.022,0,0,0-.512-.887m-6.44,11.8h-4.1V9.172h4.1Zm5.452,0H12.548V7.672h-7.1V16.5H1.5V5.864L9,1.575l7.5,4.289Z" fill="#fff"/>
  </g>
</svg>
