<svg id="pdf" xmlns="http://www.w3.org/2000/svg" xmlns:xlink="http://www.w3.org/1999/xlink" width="31.647" height="35" viewBox="0 0 31.647 35">
  <defs>
    <clipPath id="clip-path">
      <rect id="Прямоугольник_78" data-name="Прямоугольник 78" width="31.647" height="35" fill="none"/>
    </clipPath>
  </defs>
  <path id="Контур_1179" data-name="Контур 1179" d="M2.126,0V35H31.292V5.832L25.459,0Z" transform="translate(0.354 0)" fill="#fff"/>
  <path id="Контур_1180" data-name="Контур 1180" d="M22.126,0V5.832h5.833Z" transform="translate(3.687 0)" fill="#e1e3e5"/>
  <g id="Сгруппировать_43" data-name="Сгруппировать 43">
    <g id="Сгруппировать_42" data-name="Сгруппировать 42" clip-path="url(#clip-path)">
      <path id="Контур_1181" data-name="Контур 1181" d="M24.179,23.425H0V10.705A1.863,1.863,0,0,1,1.863,8.842H27.94a1.273,1.273,0,0,1,1.225,1.619l-3.318,11.7a1.734,1.734,0,0,1-1.668,1.261" transform="translate(0 1.474)" fill="#fc1f3c"/>
      <path id="Контур_1182" data-name="Контур 1182" d="M2.48,24.023V21.342H0Z" transform="translate(0 3.557)" fill="#b01f46"/>
      <path id="Контур_1183" data-name="Контур 1183" d="M4.48,21.786v-9H5.724v1.062H5.83c.062-.11.119-.2.167-.279a2.25,2.25,0,0,1,.241-.295,1.634,1.634,0,0,1,.351-.292,2.109,2.109,0,0,1,.48-.2,2.333,2.333,0,0,1,.642-.085,2.607,2.607,0,0,1,1.1.231,2.535,2.535,0,0,1,.873.656,3.082,3.082,0,0,1,.573,1.067,4.6,4.6,0,0,1,.206,1.419A3.736,3.736,0,0,1,9.7,18.545a2.451,2.451,0,0,1-1.973.914,2.278,2.278,0,0,1-.633-.082,2.094,2.094,0,0,1-.481-.2,1.7,1.7,0,0,1-.357-.287A2.61,2.61,0,0,1,6,18.6a3.3,3.3,0,0,1-.174-.284H5.754v3.474Zm1.249-5.728a2.836,2.836,0,0,0,.451,1.684,1.461,1.461,0,0,0,1.258.631,1.513,1.513,0,0,0,.953-.307,1.8,1.8,0,0,0,.591-.824,3.405,3.405,0,0,0,.191-1.183,3.3,3.3,0,0,0-.19-1.168,1.75,1.75,0,0,0-.586-.808,1.536,1.536,0,0,0-.959-.3,1.466,1.466,0,0,0-1.263.613,2.774,2.774,0,0,0-.446,1.662" transform="translate(0.747 1.985)" fill="#fff"/>
      <path id="Контур_1184" data-name="Контур 1184" d="M12.92,19.878a2.577,2.577,0,0,1-1.1-.235,2.5,2.5,0,0,1-.867-.663,3.094,3.094,0,0,1-.568-1.07,4.708,4.708,0,0,1-.2-1.421,4.6,4.6,0,0,1,.206-1.419A3.044,3.044,0,0,1,10.962,14a2.521,2.521,0,0,1,.869-.657,2.607,2.607,0,0,1,1.1-.231,2.33,2.33,0,0,1,.643.085,2.143,2.143,0,0,1,.478.2,1.725,1.725,0,0,1,.353.291,2.113,2.113,0,0,1,.24.292c.047.075.1.169.17.282h.076V11.019h1.274V19.75H14.919V18.73h-.106a3.3,3.3,0,0,1-.174.284,2.749,2.749,0,0,1-.249.3,1.694,1.694,0,0,1-.357.287,2.094,2.094,0,0,1-.481.2,2.277,2.277,0,0,1-.633.084M13.2,18.79a1.458,1.458,0,0,0,1.26-.631,2.845,2.845,0,0,0,.45-1.684,2.774,2.774,0,0,0-.446-1.662A1.468,1.468,0,0,0,13.2,14.2a1.534,1.534,0,0,0-.954.3,1.742,1.742,0,0,0-.586.808,3.3,3.3,0,0,0-.19,1.168,3.405,3.405,0,0,0,.191,1.183,1.817,1.817,0,0,0,.588.824,1.506,1.506,0,0,0,.95.307" transform="translate(2.167 1.567)" fill="#fff"/>
      <path id="Контур_1185" data-name="Контур 1185" d="M19.659,13.283v1.024h-1.41v5.524h-1.28V14.307h-1.01V13.283h1.01v-.758a1.951,1.951,0,0,1,.159-.8,1.518,1.518,0,0,1,.427-.577,1.947,1.947,0,0,1,.617-.337,2.341,2.341,0,0,1,.741-.115,3.008,3.008,0,0,1,1.067.175l-.3,1.032a1.9,1.9,0,0,0-.571-.1.848.848,0,0,0-.659.224.978.978,0,0,0-.2.671v.588Z" transform="translate(3.605 1.485)" fill="#fff"/>
    </g>
  </g>
</svg>
