<svg xmlns="http://www.w3.org/2000/svg" width="24" height="24" viewBox="0 0 24 24">
  <path id="phone" d="M5.129,1.8c.495,0,.99,0,1.485.01,1.02.014,1.334.383,1.442,1.366a34.34,34.34,0,0,0,.556,3.495,1.611,1.611,0,0,1-.466,1.708,26.17,26.17,0,0,0-1.885,1.913.863.863,0,0,0-.1.784,17,17,0,0,0,6.781,6.773.518.518,0,0,0,.243.049.9.9,0,0,0,.539-.167c.689-.61,1.341-1.266,1.97-1.939a1.379,1.379,0,0,1,1.07-.474,2.637,2.637,0,0,1,.506.056q1.813.351,3.651.577c.85.1,1.235.428,1.27,1.292.024.6,0,1.212.005,1.818,0,.58.012,1.16,0,1.739-.024,1-.375,1.4-1.321,1.4l-.141,0A18.956,18.956,0,0,1,5.609,14.432,18.805,18.805,0,0,1,1.8,3.414c-.038-1.25.3-1.6,1.572-1.607Q4.252,1.8,5.129,1.8m0-1.8C4.54,0,3.951,0,3.363.007A3.416,3.416,0,0,0,.8.9,3.377,3.377,0,0,0,0,3.469a20.615,20.615,0,0,0,4.17,12.049A20.731,20.731,0,0,0,20.662,24c.072,0,.141,0,.209,0a2.929,2.929,0,0,0,3.12-3.158c.01-.43.008-.86.005-1.29l0-.494c0-.187,0-.374,0-.562,0-.442.008-.884-.01-1.325a2.952,2.952,0,0,0-2.848-3.006c-1.2-.149-2.385-.336-3.527-.558a4.374,4.374,0,0,0-.85-.089,3.156,3.156,0,0,0-2.384,1.044c-.462.494-.879.917-1.277,1.3A15.168,15.168,0,0,1,8.143,10.9c.365-.384.771-.781,1.226-1.2a3.388,3.388,0,0,0,1-3.408A32.755,32.755,0,0,1,9.845,2.98,3,3,0,0,0,6.64.01Q5.884,0,5.129,0" transform="translate(0.001)" fill="#1c1c1c"/>
</svg>
