<svg id="Telegram" xmlns="http://www.w3.org/2000/svg" width="20" height="16.488" viewBox="0 0 20 16.488">
  <path id="Telegram-2" data-name="Telegram" d="M19.959.347A.422.422,0,0,0,19.668.03a1.482,1.482,0,0,0-.786.056S1.359,6.383.358,7.08c-.217.151-.29.238-.325.341-.172.5.369.716.369.716l4.518,1.47a.482.482,0,0,0,.229-.012c1.027-.648,10.336-6.528,10.874-6.726.081-.025.147,0,.13.062-.217.754-8.3,7.942-8.3,7.942a.308.308,0,0,0-.052.084H7.792l-.421,4.479s-.178,1.373,1.2,0c.966-.966,1.9-1.778,2.373-2.173,1.555,1.071,3.227,2.262,3.948,2.879a1.254,1.254,0,0,0,.869.348H15.8c.685-.025.875-.777.875-.777s3.193-12.847,3.3-14.574C19.984.968,20,.861,20,.745a1.444,1.444,0,0,0-.039-.4" transform="translate(0 0)" fill="#039be5"/>
</svg>
