<svg id="Vk" xmlns="http://www.w3.org/2000/svg" width="20" height="11.878" viewBox="0 0 20 11.878">
  <path id="Vk-2" data-name="Vk" d="M51.741,61.8c.139-.464,0-.8-.662-.8H48.892a.945.945,0,0,0-.952.619,18.3,18.3,0,0,1-2.689,4.474c-.51.51-.742.672-1.02.672-.139,0-.34-.162-.34-.626V61.8c0-.556-.161-.8-.625-.8H39.827a.527.527,0,0,0-.557.5c0,.527.788.649.869,2.133v3.222c0,.706-.128.834-.406.834-.742,0-2.546-2.724-3.616-5.841-.21-.606-.42-.851-.979-.851H32.95c-.625,0-.75.294-.75.619,0,.58.742,3.454,3.454,7.256a8.525,8.525,0,0,0,6.674,4c1.391,0,1.563-.313,1.563-.851V70.065c0-.625.132-.75.572-.75.325,0,.881.162,2.179,1.414,1.484,1.484,1.728,2.149,2.563,2.149h2.188c.625,0,.938-.313.757-.929A9.393,9.393,0,0,0,50.3,69.384c-.51-.6-1.275-1.252-1.507-1.576-.325-.417-.232-.6,0-.974C48.8,66.834,51.463,63.079,51.741,61.8Z" transform="translate(-32.2 -61)" fill="#2787f5" fill-rule="evenodd"/>
</svg>
