<svg id="whatsapp" xmlns="http://www.w3.org/2000/svg" width="20" height="20" viewBox="0 0 20 20">
  <path id="Контур_566" data-name="Контур 566" d="M0,20l1.417-5A9.653,9.653,0,0,1,0,10,9.976,9.976,0,0,1,10,0,9.924,9.924,0,0,1,20,10,9.924,9.924,0,0,1,10,20a10.267,10.267,0,0,1-4.917-1.25Zm5.417-3.083.333.25a7.882,7.882,0,0,0,4.333,1.167A8.334,8.334,0,1,0,1.667,10,7.467,7.467,0,0,0,3,14.417l.25.333-.833,2.917Z" fill="#2cb742"/>
  <path id="Контур_567" data-name="Контур 567" d="M8.239,6.5H7.571c-.25,0-.334.091-.584.274a3.75,3.75,0,0,0-1,1.645,5.7,5.7,0,0,0,1,3.929,10.832,10.832,0,0,0,5.675,4.568A2.276,2.276,0,0,0,15,16.551a2.686,2.686,0,0,0,.918-1.462L16,14.54c0-.183-.083-.365-.25-.365l-2.253-1.1c-.167-.091-.334,0-.334.091l-.918,1.188c-.083.091-.167.183-.334.091a7.1,7.1,0,0,1-3.505-3.381c-.083-.091,0-.274,0-.365l.835-1.1a.59.59,0,0,0,.083-.365L8.573,6.683A.57.57,0,0,0,8.239,6.5Z" transform="translate(-0.993 -1.571)" fill="#2cb742"/>
</svg>
