<svg xmlns="http://www.w3.org/2000/svg" xmlns:xlink="http://www.w3.org/1999/xlink" width="31.647" height="35" viewBox="0 0 31.647 35">
  <defs>
    <clipPath id="clip-path">
      <rect id="Прямоугольник_101" data-name="Прямоугольник 101" width="31.647" height="35" fill="none"/>
    </clipPath>
  </defs>
  <g id="xlsx" transform="translate(0 0)">
    <path id="Контур_1536" data-name="Контур 1536" d="M2.48,0V35H31.645V5.832L25.813,0Z" fill="#fff"/>
    <path id="Контур_1537" data-name="Контур 1537" d="M25.813,0V5.832h5.833Z" fill="#e1e3e5"/>
    <g id="Сгруппировать_55" data-name="Сгруппировать 55">
      <g id="Сгруппировать_54" data-name="Сгруппировать 54" clip-path="url(#clip-path)">
        <path id="Контур_1538" data-name="Контур 1538" d="M24.179,24.9H0V12.179a1.863,1.863,0,0,1,1.863-1.863H27.94a1.273,1.273,0,0,1,1.225,1.619l-3.318,11.7A1.735,1.735,0,0,1,24.179,24.9" fill="#12b240"/>
        <path id="Контур_1539" data-name="Контур 1539" d="M2.48,27.58V24.9H0Z" fill="#0e7a2a"/>
        <path id="Контур_1540" data-name="Контур 1540" d="M4.668,14.294,5.988,16.71l1.343-2.416H8.964L6.99,17.566,9,20.839H7.373L5.988,18.483,4.616,20.839H2.98l1.994-3.273L3.031,14.294Z" fill="#fff"/>
        <rect id="Прямоугольник_100" data-name="Прямоугольник 100" width="1.4" height="8.727" transform="translate(10.55 12.112)" fill="#fff"/>
        <path id="Контур_1541" data-name="Контур 1541" d="M18.458,16.024l-1.406.153a1.1,1.1,0,0,0-.4-.586,1.3,1.3,0,0,0-.8-.232,1.457,1.457,0,0,0-.809.211.614.614,0,0,0-.319.539.569.569,0,0,0,.212.467,1.719,1.719,0,0,0,.713.292l1.115.239a2.814,2.814,0,0,1,1.383.637,1.52,1.52,0,0,1,.458,1.135,1.805,1.805,0,0,1-.785,1.509,3.28,3.28,0,0,1-2.009.579,3.344,3.344,0,0,1-1.931-.5,2.023,2.023,0,0,1-.878-1.41l1.5-.145a1.047,1.047,0,0,0,.434.667,1.507,1.507,0,0,0,.867.228,1.576,1.576,0,0,0,.879-.222.654.654,0,0,0,.339-.562q0-.551-.882-.746l-1.116-.234q-1.849-.384-1.84-1.846a1.724,1.724,0,0,1,.33-1.048,2.074,2.074,0,0,1,.93-.694,3.676,3.676,0,0,1,1.384-.243,3.024,3.024,0,0,1,1.8.482,2.048,2.048,0,0,1,.836,1.333" fill="#fff"/>
        <path id="Контур_1542" data-name="Контур 1542" d="M21.133,14.294l1.321,2.416L23.8,14.294h1.632l-1.974,3.272,2.008,3.273H23.839l-1.385-2.356-1.372,2.356H19.446l1.994-3.273L19.5,14.294Z" fill="#fff"/>
      </g>
    </g>
  </g>
</svg>
