<svg id="youtube-svgrepo-com" xmlns="http://www.w3.org/2000/svg" width="20" height="14.152" viewBox="0 0 20 14.152">
  <path id="youtube-svgrepo-com-2" data-name="youtube-svgrepo-com" d="M15.846,67.393H4.154A4.154,4.154,0,0,0,0,71.547v5.845a4.154,4.154,0,0,0,4.154,4.154H15.846A4.154,4.154,0,0,0,20,77.392V71.547A4.154,4.154,0,0,0,15.846,67.393Zm-2.809,7.361L7.568,77.362a.22.22,0,0,1-.314-.2v-5.38a.22.22,0,0,1,.319-.2l5.469,2.771A.22.22,0,0,1,13.037,74.754Z" transform="translate(0 -67.393)" fill="#f61c0d"/>
</svg>
