<svg data-name="2" xmlns="http://www.w3.org/2000/svg" width="458.533" height="76.5"><defs><clipPath id="a"><path data-name="Прямоугольник 150" fill="none" d="M0 0h458.533v76.5H0z"/></clipPath></defs><path data-name="Контур 1652" d="M0 .735v65.388h3.673V4.041h16.99V.735z" fill="#fff"/><g data-name="Сгруппировать 118"><g data-name="Сгруппировать 117" clip-path="url(#a)" fill="#fff"><path data-name="Контур 1653" d="M50.509 63.642c-2.02 2.113-5.143 3.215-8.724 3.215s-6.7-1.1-8.724-3.215c-3.858-3.948-4.591-7.622-4.591-30.213s.733-26.266 4.59-30.215C35.08 1.1 38.203 0 41.784 0s6.7 1.1 8.724 3.214c3.857 3.949 4.592 7.622 4.592 30.214s-.73 26.266-4.591 30.214M47.937 5.6a8.169 8.169 0 00-6.153-2.3 8.172 8.172 0 00-6.153 2.3c-2.938 3.214-3.49 6.061-3.49 27.827s.552 24.612 3.49 27.827a8.172 8.172 0 006.153 2.3 8.169 8.169 0 006.153-2.3c2.939-3.215 3.49-6.061 3.49-27.827S50.876 8.816 47.937 5.6"/><path data-name="Контур 1654" d="M78.61 36h-7.9v30.123h-3.668V.735h11.571c6.429 0 13.224 1.745 13.224 17.633 0 15.7-6.98 17.633-13.224 17.633m-.276-31.959h-7.625v28.652h7.622c5.327 0 9.827-1.745 9.827-14.327S83.661 4.04 78.334 4.04"/><path data-name="Контур 1655" d="M123.794 63.642c-2.02 2.113-5.143 3.215-8.724 3.215s-6.7-1.1-8.724-3.215c-3.857-3.948-4.592-7.622-4.592-30.214s.735-26.265 4.592-30.214C108.365 1.1 111.488 0 115.069 0s6.7 1.1 8.724 3.214c3.857 3.949 4.592 7.622 4.592 30.214s-.735 26.265-4.592 30.214M121.222 5.6a9.393 9.393 0 00-12.306 0c-2.938 3.214-3.49 6.061-3.49 27.827s.552 24.612 3.49 27.827a9.393 9.393 0 0012.306 0c2.939-3.215 3.49-6.061 3.49-27.827s-.551-24.612-3.49-27.827"/><path data-name="Контур 1656" d="M164.57 76.5V66.123h-27.643V76.5h-3.673V62.815h3.948c3.4-8.908 5.235-19.929 5.235-32.51V.735h21.214v62.08h4.592V76.5zm-4.592-72.459h-13.962V30.49c0 12.122-1.47 22.959-4.96 32.327h18.918z"/><path data-name="Контур 1657" d="M198.456 66.122l-3.948-19.653h-15.246l-3.857 19.653h-4.041L185.414.735h3.307l13.777 65.387zM186.885 8.266l-6.888 34.9h13.867z"/><path data-name="Контур 1658" d="M260.721 66.122V9.276L247.68 46.561h-3.306l-12.858-36v55.561h-3.673V.735h4.041l14.235 39.949L260.353.735h4.041v65.387z"/><path data-name="Контур 1659" d="M298.373 63.642c-2.02 2.113-5.143 3.215-8.724 3.215s-6.7-1.1-8.725-3.215c-3.857-3.948-4.592-7.622-4.592-30.214s.735-26.265 4.592-30.214C282.944 1.1 286.067 0 289.648 0s6.7 1.1 8.724 3.214c3.857 3.949 4.592 7.622 4.592 30.214s-.735 26.265-4.592 30.214M295.801 5.6a9.393 9.393 0 00-12.306 0c-2.938 3.214-3.49 6.061-3.49 27.827s.552 24.612 3.49 27.827a9.393 9.393 0 0012.306 0c2.939-3.215 3.49-6.061 3.49-27.827s-.551-24.612-3.49-27.827"/><path data-name="Контур 1660" d="M335.015 64.1a11.611 11.611 0 01-8.082 2.755c-3.582 0-6.7-1.1-8.725-3.214-3.857-3.949-4.592-7.622-4.592-30.214s.735-26.265 4.592-30.214C320.225 1.1 323.352 0 326.933 0a11.566 11.566 0 018.633 3.215c2.663 2.755 3.765 6.979 3.765 11.663h-3.674c0-3.582-.735-7.255-2.938-9.459a7.918 7.918 0 00-5.786-2.112 8.17 8.17 0 00-6.153 2.3c-2.939 3.215-3.49 6.062-3.49 27.827s.552 24.612 3.49 27.827a8.17 8.17 0 006.153 2.3 7.918 7.918 0 005.786-2.112c2.2-2.2 2.938-5.878 2.938-9.459h3.674c0 4.959-1.286 9.459-4.316 12.122"/><path data-name="Контур 1661" d="M349.984.735h3.669v65.388h-3.673zm24.887 65.388L353.84 32.052 373.494.735h4.316l-20.112 31.133 21.673 34.255z"/><path data-name="Контур 1662" d="M407.932 62.449c-2.571 2.663-5.694 3.673-10.837 3.673h-10.01V.735h10.1c5.05 0 7.99.919 10.469 3.673 2.663 2.939 3.489 6.061 3.489 12.949 0 4.684-.55 8.724-4.041 12.214a10.069 10.069 0 01-4.316 2.663 10.033 10.033 0 014.867 2.571c3.765 3.765 4.224 8.633 4.224 13.592 0 8.265-1.286 11.3-3.949 14.051m-10.19-58.407h-6.98v26.633h6.98c6.061 0 9.735-3.765 9.735-13.316 0-10.561-3.673-13.316-9.735-13.316m0 29.939h-6.98v28.834h6.98c6.52 0 10.469-2.939 10.469-14.418 0-10.378-3.95-14.418-10.469-14.418"/><path data-name="Контур 1663" d="M435.023 66.123h-11.572V.735h3.672v30.122h7.9c6.429 0 13.224 1.745 13.224 17.633 0 15.7-6.98 17.633-13.224 17.633m-.276-31.959h-7.624v28.651h7.622c5.327 0 9.827-1.746 9.827-14.327s-4.5-14.327-9.827-14.327M454.859.735h3.674v65.388h-3.674z"/></g></g></svg>