<svg xmlns="http://www.w3.org/2000/svg" width="85.791" height="81.433"><path d="M83.614 58.634a20.308 20.308 0 00-1.647-1.379.255.255 0 01-.093.045.29.29 0 01-.22-.028.286.286 0 01-.133-.177.267.267 0 01.01-.18c-.252-.2-.51-.392-.772-.583a80.018 80.018 0 01-1.714-1.362l-.083-.092c-.183-.2-.34-.42-.505-.633.13-.023.257-.058.39-.075v.008c.28-.257.653-.532-.212-1.265a9.3 9.3 0 01-.922-1.167.726.726 0 00-.919-.363.814.814 0 00-.86-.118 2.893 2.893 0 00-.282-.355c-.18-.177-.39-.4-.583-.613.1-.008.193-.03.29-.033.02-.012.043-.018.067-.03.553-.217.5-.667-.137-1.334a15.537 15.537 0 01-1.062-1.18 1 1 0 00-1.049-.39 1.026 1.026 0 00-.21-.112 4.819 4.819 0 00-.343-.462 4.137 4.137 0 01-.467-.667c.092-.008.182-.028.272-.033.5-.312.452-.552-.167-1.31-.592-.628-.974-2.052-1.94-1.759a.863.863 0 00-.293-.157 2.1 2.1 0 00-.363-.723c-.11-.16-.252-.4-.41-.657l-.01-.028c.042 0 .085-.012.127-.013a1.291 1.291 0 01.108-.09c.285-.29.323-.487-.178-1.222a11.081 11.081 0 00-1.079-1.572v-.008l-.258-.2a1.286 1.286 0 00-.135-.105h-.007l-.672-.517c-.107-.223-.263-.528-.478-.957-.033-.082-.085-.152-.12-.232a1.837 1.837 0 01.248.055c.315-.353.24-.378-.488-1.834a8.605 8.605 0 00-.717-1.367.675.675 0 00-.755-.143h0a.578.578 0 00-.205-.127c-.112-.25-.3-.612-.568-1.175-.025-.068-.06-.13-.088-.2.1 0 .19-.012.283-.008.28-.223.123-.4-.557-1.805a6.445 6.445 0 00-.743-1.455c-.24-.205-.43-.12-.687-.04-.1-.243-.247-.555-.46-.994-.025-.067-.063-.125-.093-.19.065 0 .127-.013.192-.01h.013c.275-.177.213-.393-.473-1.81a4.8 4.8 0 00-.924-1.519c-.27-.213-.418-.148-.678-.042-.03-.033-.047-.072-.077-.1a.732.732 0 00-.105-.063c.02-.008.037-.02.058-.028a12.535 12.535 0 01-.653-1.692 17.216 17.216 0 01-.44-4.026 33.55 33.55 0 011.254-6.97c1.02-3.9 1-4.941.207-6.473-.899-1.736-3.842-2.671-10.822-3.252C44.55.84 39.775.67 35.031.51l-.4.712a.268.268 0 01.053.18.271.271 0 01-.092.2.279.279 0 01-.21.077c-1.729 3.111-3.449 6.231-5.3 9.272a.35.35 0 01.087.085.267.267 0 01.045.215.286.286 0 01-.337.233.238.238 0 01-.1-.038q-.693 1.123-1.412 2.232a.332.332 0 01.057.062.288.288 0 01.047.215.294.294 0 01-.122.188.291.291 0 01-.3.017q-.818 1.243-1.682 2.45c-3.432 4.806-8.3 11.017-8.09 16.17v-.005.148l-.017.068c-.667 2.777-2.15 8.835-2.667 11.669a11.988 11.988 0 001.824 1.062 12.566 12.566 0 01-1.259 3.247c-1.474 2.43-3.7 2.547-7.7 1.522l-.01-.005c-2.027-.522-6.32-1.772-6.9 1.214a2.5 2.5 0 00.725 2.282c1.3 1.4 4.022 2.272 6.169 3.077l36.6 13.716 13.26 4.972c5.356 2.009 10.82 4.342 16.6 4.448a21.228 21.228 0 002.492-.1l.64.413h0l.277-.83.952.475h.008l.26-.987 1.089.433h.007l.113-1.065 1.079.135h.005l-.11-1.105 1.03.117h.005l-.312-1.035.612-.1-.27-.787a19.972 19.972 0 00-1-6.053 4.342 4.342 0 00.608-.08c1.435-.3 1.947-1.325 1.427-2.947h-.008a.176.176 0 00-.01-.04 3.009 3.009 0 001.56-1.334 5.556 5.556 0 00-.747-6.668M28.355 12.691h0v-.005zM53.87 66.767c-1.067.318-2.932-.027-6.475-1.332L26.64 57.497c-5.14-1.967-7.712-3.605-4.446-9.081a35.142 35.142 0 005.613 2.114h.005a50.07 50.07 0 004.021-5.559 67.537 67.537 0 0114.479 11.304c3.072 3.121 4.216 4.321 6.948 5.521.7.307 1.6.667 2.652 1.057-.615 1.987-.67 3.5-2.042 3.914m20.065 7.543l-.013.007c-3.564.058-12.721-2.59-13.473-5.8a3.9 3.9 0 01-.1-.617c-.11-1.34.6-2.045 1.517-2.989 4.686 1.522 10.07 3.084 14 3.956.155.035.318.073.5.117.057.163.117.352.175.553l.037.128.015.058a6.644 6.644 0 01.262 2.067c-.072 1.31-.745 2.49-2.922 2.524" fill="none" stroke="#f8f9fa"/></svg>