<svg xmlns="http://www.w3.org/2000/svg" width="81.414" height="81.414"><path data-name="Объединение 2" d="M38.258 78.379l2.327-2.33 2.329 2.33-2.329 2.328zm-2.106-7.58l4.433-4.434 4.435 4.434-4.435 4.434zm-4.445-4.092l7.154-6.927v-2.652l-4.279 4.143-1.675-1.724h-2.41v-5.405l-1.815 1.813v9.538h-4.127v-8.5l-8.667-.136.069-4.13 9.955.157 1.876-1.877-5.958-.094.041-2.4-1.708-1.7 3.82-3.823h-2.555l-6.748 6.744-2.918-2.927 6-6.008-6.031-6.224 2.976-2.868 6.93 7.153h2.655l-4.147-4.279 1.722-1.674V30.5h5.405l-1.812-1.815h-9.54v-4.13h8.5l.135-8.667 4.129.067-.154 9.952 1.877 1.881.095-5.955 2.4.039 1.705-1.707 3.826 3.823v-2.561l-6.748-6.745 2.922-2.921 6 6.007 6.225-6.029 2.875 2.968-7.155 6.929v2.653l4.28-4.143 1.675 1.72h2.412v5.407l1.813-1.814v-9.536h4.132v8.495l8.665.137-.065 4.13-9.957-.157-1.881 1.879 5.956.1-.037 2.4 1.7 1.708-3.819 3.812h2.561l6.746-6.744 2.922 2.924-6.008 6 6.028 6.224-2.968 2.876-6.925-7.15h-2.654l4.144 4.277-1.725 1.673v2.411h-5.408l1.815 1.813h9.539v4.13h-8.5l-.137 8.666-4.132-.064.16-9.958-1.877-1.878-.095 5.956-2.4-.039-1.705 1.705-3.823-3.823v2.563l6.744 6.744-2.921 2.921-6-6.008-6.228 6.031zm2.924-16.7v5.461l4.23-4.1v-1.179a9.566 9.566 0 01-3.164-1.243zm8.36.09v1.482l3.862 3.86.093-5.883-.834-.835a9.57 9.57 0 01-3.124 1.381zM25.969 46.85l5.886.093.862-.864a9.512 9.512 0 01-1.35-3.092h-1.536zm22.991-1.115l1.051 1.05h5.461l-4.1-4.228h-1.19a9.6 9.6 0 01-1.222 3.178zm-13.73-4.993a5.5 5.5 0 105.5-5.5 5.5 5.5 0 00-5.5 5.5zm-5.192-1.884h1.246a9.592 9.592 0 011.223-3.124l-1.1-1.1h-5.463zm18.654-3.521a9.574 9.574 0 011.382 3.09h1.51l3.859-3.862-5.883-.095zm-14.223-3.482l.9.895a9.542 9.542 0 013.063-1.358v-1.56l-3.865-3.862zm8.086-1.816v1.25a9.538 9.538 0 013.138 1.205l1.092-1.087v-5.465zm23.058 39.036v-3.293h3.294v3.293zm-53.277-.168v-3.293h3.295v3.293zm46.43-3.7v-6.273h6.271v6.273zm-42.559-.171v-6.27h6.27v6.271zm50.157-24.209l4.435-4.435 4.433 4.435-4.435 4.433zm-60.185-.24l4.434-4.434 4.432 4.434-4.432 4.433zm69.871.24l2.329-2.329 2.328 2.329-2.328 2.328zm-75.343-.24l2.327-2.328 2.329 2.329-2.329 2.328zm58.227-17.939v-6.271h6.273v6.271zm-42.558-.168v-6.273h6.27v6.271zm49.406-6.679v-3.294h3.295v3.3zm-53.275-.168v-3.3h3.294v3.3zm23.886-5.018l4.433-4.434 4.432 4.434-4.432 4.433zm2.1-7.58L40.826.707l2.328 2.328-2.328 2.329z" fill="none" stroke="#fff"/></svg>