<svg xmlns="http://www.w3.org/2000/svg" width="1825.872" height="85.01"><defs><clipPath id="a"><path data-name="Прямоугольник 174" fill="none" d="M0 0h458.533v76.5H0z"/></clipPath><clipPath id="b"><path data-name="Прямоугольник 175" fill="none" d="M0 0h664.128v67.932H0z"/></clipPath><clipPath id="c"><path data-name="Прямоугольник 177" fill="none" d="M0 0h314.149v80H0z"/></clipPath></defs><g data-name="Сгруппировать 135"><path data-name="Объединение 6" d="M1785.043 81.717l-3.034-3.034 2.735-2.738-4.841-4.842 5.14-5.141 5.143 5.141-4.844 4.842 2.738 2.738zm-1.62-3.035l1.62 1.621 1.622-1.621-1.621-1.622zm-2.106-7.58l3.726 3.727 3.728-3.727-3.728-3.727zm-2.292-.416l-3.57-3.684 7.361-7.128V58.61l-3.79 3.67-1.87-1.93h-2.7v-4.7l-.815.814v9.831h-5.128V57.79l-8.676-.136.086-5.13 10.242.161.891-.89-5.276-.085.046-2.688-1.911-1.912 3.321-3.324h-1.143l-6.955 6.951-3.625-3.627 6.01-6.014-6.037-6.23 3.687-3.569 7.13 7.36h1.262l-3.673-3.787 1.933-1.869v-2.7h4.7l-.814-.815h-9.833v-5.13h8.508l.135-8.675 5.129.083-.159 10.246.891.892.084-5.274 2.685.044 1.909-1.911 3.326 3.324v-1.148l-6.955-6.952 3.634-3.628 6.013 6.013 6.231-6.034 3.571 3.683-7.362 7.129v1.262l3.792-3.67 1.868 1.93h2.7v4.7l.813-.813v-9.831h5.132v8.5l8.673.137-.08 5.13-10.251-.158-.892.891 5.275.085-.041 2.685 1.906 1.914-3.322 3.32h1.147l6.953-6.951 3.629 3.631-6.013 6.012 6.033 6.23-3.684 3.568-7.128-7.36h-1.263l3.67 3.789-1.93 1.871v2.7h-4.7l.813.813h9.832v5.13h-8.5l-.137 8.673-5.132-.08.16-10.246-.894-.892-.082 5.276-2.686-.044-1.914 1.909-3.323-3.323v1.148l6.952 6.951-3.629 3.629-6.01-6.014zm-2.16-3.662l2.179 2.249 6.221-6.026 6 6 2.215-2.215-6.537-6.537v-3.973l4.322 4.323 1.5-1.5 2.109.034.106-6.635 2.863 2.858-.155 9.67 3.132.049.137-8.658h8.489v-3.13h-9.241l-2.816-2.812h6.116v-2.125l1.517-1.47-4.617-4.766h4.046l6.727 6.95 2.247-2.179-6.022-6.221 6-6-2.215-2.214-6.536 6.534h-3.975l4.323-4.32-1.5-1.5.032-2.108-6.638-.108 2.862-2.859 9.668.152.049-3.13-8.656-.147v-8.484h-3.132v9.243l-2.812 2.815v-6.115h-2.124l-1.467-1.516-4.769 4.616v-4.045l6.952-6.728-2.179-2.247-6.221 6.023-6-6-2.22 2.213 6.541 6.538v3.975l-4.321-4.323-1.5 1.5-2.109-.034-.106 6.636-2.859-2.863.151-9.667-3.13-.051-.135 8.659h-8.499v3.13h9.247l2.811 2.815h-6.111v2.123l-1.518 1.467 4.621 4.768h-4.048l-6.73-6.948-2.25 2.178 6.026 6.222-6 6 2.212 2.214 6.541-6.537h3.97l-4.319 4.323 1.5 1.5-.036 2.112 6.638.105-2.861 2.86-9.668-.152-.052 3.13 8.659.136v8.49h3.129V56.05l2.815-2.811v6.111h2.121l1.469 1.516 4.768-4.616v4.046zm37 2.854h-4.294V66.01h-6.847v-7.273h7.271v6.849h3.87zm-3.294-1h2.294v-2.293h-2.294zm-6.847-3.868h5.271v-5.273h-5.271zm-43.135 4.7h-4.295v-4.293h3.871v-6.848h7.27v7.271h-6.846zm-3.295-1h2.295v-2.293h-2.295zm3.871-3.871h5.27v-5.27h-5.27zm17.421-7.883V50.11l1.492-1.491.336.208a9.042 9.042 0 003 1.178l.4.08v1.805zm1-6.434v4.073l3.23-3.128v-.573a10.025 10.025 0 01-2.585-1.017zm12.2 6.413l-4.843-4.841V50.01l.383-.092a9.033 9.033 0 002.957-1.3l.342-.232 1.275 1.277zm-3.84-5.255l2.88 2.879.071-4.492-.4-.4a10.017 10.017 0 01-2.553 1.123zm-11.428-3.93l-7.279-.115 4.843-4.843h2.138l.091.385a8.982 8.982 0 001.28 2.929l.228.341zm-4.9-1.078l4.494.071.428-.429a9.965 9.965 0 01-1.1-2.523h-.941zm29.5.916h-6.853l-1.478-1.478.2-.336a9.073 9.073 0 001.162-3.013l.078-.406h1.818zm-6.435-1h4.073l-3.134-3.228h-.573a10.059 10.059 0 01-1 2.6zm-9.491.457a6 6 0 116-6 6.005 6.005 0 01-6.007 6zm0-11a5 5 0 105 5 5 5 0 00-5.007-4.998zm30.063 10.225l-5.14-5.14 5.142-5.142 4.841 4.843 2.738-2.738 3.035 3.037-3.035 3.034-2.738-2.736zm-3.726-5.14l3.726 3.726 3.728-3.726-3.726-3.727zm9.685 0l1.622 1.621 1.621-1.621-1.62-1.62zm-66.143 4.9l-4.841-4.84-2.738 2.736-3.034-3.036 3.034-3.035 2.737 2.737 4.843-4.842 5.139 5.141zm-3.727-5.14l3.727 3.726 3.725-3.726-3.725-3.726zm-5.472 0l1.62 1.62 1.622-1.621-1.622-1.62zm30.28-1.229h-1.867l-5.063-5.228h6.843l1.529 1.529-.205.336a9.058 9.058 0 00-1.158 2.96zm-1.444-1h.632a10.042 10.042 0 011-2.543l-.685-.685h-4.073zm21.541.569h-2.108l-.094-.38a9.043 9.043 0 00-1.309-2.928l-.234-.343 1.312-1.31 7.274.117zm-1.334-1h.92l2.879-2.881-4.492-.072-.431.431a10.027 10.027 0 011.124 2.522zm-15.15-4.532l-1.338-1.336.116-7.277 4.846 4.842v2.159l-.38.094a9.007 9.007 0 00-2.9 1.286zm-.332-1.744l.46.46a9.991 9.991 0 012.495-1.1v-.969l-2.884-2.881zm10.8 1.474l-.335-.2a9.033 9.033 0 00-2.974-1.142l-.411-.076v-1.879l5.23-5.066v6.845zm-2.715-2.24a10.019 10.019 0 012.556.985l.674-.674v-4.073l-3.23 3.128zm22.647-7.737h-7.273V16.18h6.848v-3.87h4.295v4.3h-3.87zm-6.273-1h5.273V17.18h-5.273zm6.848-6.847h2.295V13.31h-2.295zm-43.136 7.679h-7.27v-6.847h-3.869v-4.3h4.294v3.874h6.846zm-6.27-1h5.27V17.01h-5.27zm-3.869-6.847h2.294v-2.3h-2.294zm27.82.622l-5.14-5.14 4.841-4.843-2.738-2.737 3.037-3.035 3.035 3.035-2.737 2.737 4.84 4.843zm-3.726-5.14l3.726 3.726 3.725-3.726-3.726-3.727zm2.1-7.58l1.625 1.622 1.621-1.622-1.621-1.621z" fill="#fff"/><g data-name="2"><path data-name="Контур 1719" d="M1256.633 7.745v65.388h3.673V11.051h16.99V7.745z" fill="#fff"/><g data-name="Сгруппировать 130"><g data-name="Сгруппировать 129" clip-path="url(#a)" fill="#fff" transform="translate(1256.633 7.01)"><path data-name="Контур 1720" d="M50.509 63.642c-2.02 2.113-5.143 3.215-8.724 3.215s-6.7-1.1-8.724-3.215c-3.858-3.948-4.591-7.622-4.591-30.213s.733-26.266 4.59-30.215C35.08 1.1 38.203 0 41.784 0s6.7 1.1 8.724 3.214c3.857 3.949 4.592 7.622 4.592 30.214s-.73 26.266-4.591 30.214M47.937 5.6a8.169 8.169 0 00-6.153-2.3 8.172 8.172 0 00-6.153 2.3c-2.938 3.214-3.49 6.061-3.49 27.827s.552 24.612 3.49 27.827a8.172 8.172 0 006.153 2.3 8.169 8.169 0 006.153-2.3c2.939-3.215 3.49-6.061 3.49-27.827S50.876 8.816 47.937 5.6"/><path data-name="Контур 1721" d="M78.61 36h-7.9v30.123h-3.668V.735h11.571c6.429 0 13.224 1.745 13.224 17.633 0 15.7-6.98 17.633-13.224 17.633m-.276-31.959h-7.625v28.652h7.622c5.327 0 9.827-1.745 9.827-14.327S83.661 4.04 78.334 4.04"/><path data-name="Контур 1722" d="M123.794 63.642c-2.02 2.113-5.143 3.215-8.724 3.215s-6.7-1.1-8.724-3.215c-3.857-3.948-4.592-7.622-4.592-30.214s.735-26.265 4.592-30.214C108.365 1.1 111.488 0 115.069 0s6.7 1.1 8.724 3.214c3.857 3.949 4.592 7.622 4.592 30.214s-.735 26.265-4.592 30.214M121.222 5.6a9.393 9.393 0 00-12.306 0c-2.938 3.214-3.49 6.061-3.49 27.827s.552 24.612 3.49 27.827a9.393 9.393 0 0012.306 0c2.939-3.215 3.49-6.061 3.49-27.827s-.551-24.612-3.49-27.827"/><path data-name="Контур 1723" d="M164.57 76.5V66.123h-27.643V76.5h-3.673V62.815h3.948c3.4-8.908 5.235-19.929 5.235-32.51V.735h21.214v62.08h4.592V76.5zm-4.592-72.459h-13.962V30.49c0 12.122-1.47 22.959-4.96 32.327h18.918z"/><path data-name="Контур 1724" d="M198.456 66.122l-3.948-19.653h-15.246l-3.857 19.653h-4.041L185.414.735h3.307l13.777 65.387zM186.885 8.266l-6.888 34.9h13.867z"/><path data-name="Контур 1725" d="M260.721 66.122V9.276L247.68 46.561h-3.306l-12.858-36v55.561h-3.673V.735h4.041l14.235 39.949L260.353.735h4.041v65.387z"/><path data-name="Контур 1726" d="M298.373 63.642c-2.02 2.113-5.143 3.215-8.724 3.215s-6.7-1.1-8.725-3.215c-3.857-3.948-4.592-7.622-4.592-30.214s.735-26.265 4.592-30.214C282.944 1.1 286.067 0 289.648 0s6.7 1.1 8.724 3.214c3.857 3.949 4.592 7.622 4.592 30.214s-.735 26.265-4.592 30.214M295.801 5.6a9.393 9.393 0 00-12.306 0c-2.938 3.214-3.49 6.061-3.49 27.827s.552 24.612 3.49 27.827a9.393 9.393 0 0012.306 0c2.939-3.215 3.49-6.061 3.49-27.827s-.551-24.612-3.49-27.827"/><path data-name="Контур 1727" d="M335.015 64.1a11.611 11.611 0 01-8.082 2.755c-3.582 0-6.7-1.1-8.725-3.214-3.857-3.949-4.592-7.622-4.592-30.214s.735-26.265 4.592-30.214C320.225 1.1 323.352 0 326.933 0a11.566 11.566 0 018.633 3.215c2.663 2.755 3.765 6.979 3.765 11.663h-3.674c0-3.582-.735-7.255-2.938-9.459a7.918 7.918 0 00-5.786-2.112 8.17 8.17 0 00-6.153 2.3c-2.939 3.215-3.49 6.062-3.49 27.827s.552 24.612 3.49 27.827a8.17 8.17 0 006.153 2.3 7.918 7.918 0 005.786-2.112c2.2-2.2 2.938-5.878 2.938-9.459h3.674c0 4.959-1.286 9.459-4.316 12.122"/><path data-name="Контур 1728" d="M349.984.735h3.669v65.388h-3.673zm24.887 65.388L353.84 32.052 373.494.735h4.316l-20.112 31.133 21.673 34.255z"/><path data-name="Контур 1729" d="M407.932 62.449c-2.571 2.663-5.694 3.673-10.837 3.673h-10.01V.735h10.1c5.05 0 7.99.919 10.469 3.673 2.663 2.939 3.489 6.061 3.489 12.949 0 4.684-.55 8.724-4.041 12.214a10.069 10.069 0 01-4.316 2.663 10.033 10.033 0 014.867 2.571c3.765 3.765 4.224 8.633 4.224 13.592 0 8.265-1.286 11.3-3.949 14.051m-10.19-58.407h-6.98v26.633h6.98c6.061 0 9.735-3.765 9.735-13.316 0-10.561-3.673-13.316-9.735-13.316m0 29.939h-6.98v28.834h6.98c6.52 0 10.469-2.939 10.469-14.418 0-10.378-3.95-14.418-10.469-14.418"/><path data-name="Контур 1730" d="M435.023 66.123h-11.572V.735h3.672v30.122h7.9c6.429 0 13.224 1.745 13.224 17.633 0 15.7-6.98 17.633-13.224 17.633m-.276-31.959h-7.624v28.651h7.622c5.327 0 9.827-1.746 9.827-14.327s-4.5-14.327-9.827-14.327M454.859.735h3.674v65.388h-3.674z"/></g></g></g><path d="M1218.752 81.434l-.518-.518-.473-.306a21.926 21.926 0 01-2.376.084c-5.247-.1-10.224-1.99-15.036-3.823a335.13 335.13 0 00-1.733-.657l-13.256-4.968-36.6-13.716c-.259-.1-.526-.2-.8-.295-2.032-.745-4.335-1.59-5.562-2.91a2.985 2.985 0 01-.848-2.715c.207-1.062.962-2.327 3.379-2.327a16.087 16.087 0 013.882.658l.257.067.061.018a15.251 15.251 0 003.64.581 3.62 3.62 0 003.457-1.897 11.28 11.28 0 001.094-2.722 12.515 12.515 0 01-1.521-.92l-.26-.184.057-.314c.458-2.51 1.676-7.559 2.4-10.576l.27-1.12v-.186q-.006-.232 0-.468v-1.1l.078.117a17.986 17.986 0 012.247-6.168 73.384 73.384 0 014.921-7.443c.328-.454.637-.882.94-1.307a76.612 76.612 0 001.671-2.435l.257-.374.064-.1c.458-.7.918-1.431 1.406-2.222l.3-.493c1.711-2.809 3.341-5.736 4.909-8.566l.479-.862v-.005l.7-1.261.306.01c5.3.179 9.715.346 14.271.73a39.509 39.509 0 017.794 1.212c1.809.55 2.9 1.283 3.423 2.305.884 1.71.854 2.923-.168 6.828v.013a33.1 33.1 0 00-1.234 6.85 16.742 16.742 0 00.424 3.876 12.1 12.1 0 00.537 1.423.92.92 0 01.1-.006 1.02 1.02 0 01.642.249l.033.026.028.032a5.279 5.279 0 011.011 1.655 9.472 9.472 0 01.621 1.441.851.851 0 01-.139.82c.063.132.119.251.168.358h.086a.963.963 0 01.637.247l.051.043.038.055a6.954 6.954 0 01.792 1.542c.1.2.18.369.255.52a6.069 6.069 0 01.438 1 .781.781 0 01-.189.788l.131.267c.074.15.138.281.193.4a1.31 1.31 0 01.159-.01 1.091 1.091 0 01.806.351l.033.034.026.04a9.138 9.138 0 01.751 1.429l.212.42c.506 1 .68 1.344.28 1.852l.042.082c.1.195.181.358.248.5l.537.413a.877.877 0 01.156.116l.01.009.018.013.406.314.011.054a8.378 8.378 0 01.809 1.173c.086.142.161.265.222.356.413.605.714 1.16.2 1.76.059.1.113.181.157.246a3.611 3.611 0 01.358.632 1.281 1.281 0 01.138-.008c.809 0 1.259.737 1.62 1.328a4.1 4.1 0 00.433.627l.023.027c.377.463.684.882.608 1.332a.938.938 0 01-.346.563c.026.033.052.063.077.091l.022.025c.117.144.209.263.283.368a1.507 1.507 0 011.312.587l.015.019a15.181 15.181 0 001.02 1.133l.008.008a1.724 1.724 0 01.635 1.431.9.9 0 01-.331.519l.049.048.013.013c.047.049.089.1.126.143a1.238 1.238 0 01.775.145 1.481 1.481 0 01.163-.009 1.173 1.173 0 011.062.644 8.843 8.843 0 00.84 1.064 1.587 1.587 0 01.691 1.118 1.059 1.059 0 01-.4.8l.063.071.061.067c.54.445 1.439 1.15 1.667 1.324s.489.364.778.589l.3.233.131.1a20.909 20.909 0 011.688 1.412l.022.022a6.056 6.056 0 01.817 7.263 3.523 3.523 0 01-1.4 1.344 2.769 2.769 0 01-.189 2.091 2.446 2.446 0 01-1.719 1.109l-.054.011a20.437 20.437 0 01.845 5.546l.435 1.268-.634.107.114.378.923.917-1.842-.207.125 1.257-.682-.227-.532-.067-.063.6v.645l-.066-.026-.006.061-.613-.3-.564-.225-.108.41v.709l-1.16-.575zm-.741-1.852l.25.162.257-.77.925.461.248-.942.928.37v-.071l.085.042.091-.858.967.121-.109-1.1.9.1-.257-.854.59-.1-.105-.306v-.081a19.445 19.445 0 00-.977-5.9l-.2-.616.647-.04a3.854 3.854 0 00.538-.071 1.5 1.5 0 001.061-.636 1.763 1.763 0 00.1-1.24h-.016l-.112-.449-.224-.447.52-.2a2.517 2.517 0 001.3-1.112l.005-.009a5.073 5.073 0 00-.669-6.057 20.094 20.094 0 00-1.395-1.182.794.794 0 01-.463-.1.79.79 0 01-.362-.475.748.748 0 01-.017-.074c-.2-.155-.386-.293-.558-.419l-.008-.006c-.259-.2-1.185-.924-1.729-1.374l-.027-.023-.107-.118-.062-.069-.475.436.165-.823-.042-.055-.116-.152-.5-.652.812-.146.132-.027.126-.026.031-.032a1.487 1.487 0 00-.347-.373l-.022-.019-.02-.022a9.841 9.841 0 01-.971-1.229l-.015-.022-.012-.024c-.066-.125-.118-.135-.19-.135a.672.672 0 00-.162.024l-.271.069-.2-.2a.158.158 0 00-.128-.044.8.8 0 00-.233.044l-.349.11-.21-.3a2.463 2.463 0 00-.229-.292 19.648 19.648 0 01-.6-.628l-.68-.75 1.009-.084c.028 0 .061-.007.1-.012l.11-.015h.01a.536.536 0 00.051-.023 1.631 1.631 0 00-.363-.5 15.951 15.951 0 01-1.091-1.213.52.52 0 00-.412-.234.75.75 0 00-.15.017l-.207.042-.175-.119a.536.536 0 00-.106-.057l-.156-.06-.089-.142a4.261 4.261 0 00-.3-.4 4.656 4.656 0 01-.517-.736l-.413-.684.8-.072c.026 0 .059-.007.093-.012l.039-.006a3.359 3.359 0 00-.359-.5 4.935 4.935 0 01-.545-.777c-.243-.4-.519-.85-.767-.85a.371.371 0 00-.106.018l-.258.078-.207-.172a.365.365 0 00-.125-.065l-.286-.091-.054-.3a1.757 1.757 0 00-.286-.535c-.076-.11-.165-.257-.26-.412-.051-.083-.1-.17-.159-.259l-.029-.047-.245-.693.605-.048.022-.026a2.085 2.085 0 00-.3-.523 8.612 8.612 0 01-.248-.4 6.764 6.764 0 00-.777-1.11l-.195-.151a.977.977 0 01-.062-.048h-.006l-.849-.653-.066-.087c-.071-.15-.168-.342-.291-.585l-.183-.363-.016-.035c-.005-.013-.021-.04-.034-.064a1.614 1.614 0 01-.081-.156l-.385-.879.659.132c-.072-.154-.173-.353-.282-.568l-.222-.44-.015-.033a8.107 8.107 0 00-.643-1.237.075.075 0 00-.055-.016.657.657 0 00-.17.032l-.284.083-.21-.209-.036-.016-.2-.089-.077-.173c-.063-.142-.157-.332-.275-.573-.082-.168-.178-.362-.287-.589l-.019-.045c-.006-.018-.019-.044-.033-.072s-.032-.067-.046-.1l-.3-.7h.566c-.068-.148-.162-.34-.264-.546l-.27-.55-.012-.024-.009-.025a5.949 5.949 0 00-.621-1.245c-.036.009-.086.025-.127.038l-.5.156-.175-.42a20.31 20.31 0 00-.448-.967l-.019-.043c0-.009-.017-.035-.027-.054s-.034-.063-.052-.1l-.337-.73.576.015c-.117-.3-.348-.777-.5-1.1l-.018-.042a4.281 4.281 0 00-.8-1.325h-.007c-.035.012-.089.034-.132.051l-.336.138-.236-.262a.781.781 0 01-.051-.063h-.007l-.883-.5.525-.219a13.121 13.121 0 01-.467-1.285l-.009-.034a17.744 17.744 0 01-.453-4.143v-.032a34.1 34.1 0 011.27-7.067c1-3.827.951-4.742.244-6.11-.806-1.568-3.822-2.431-10.411-2.979-4.435-.386-8.755-.553-13.905-.728l-.138.249a.758.758 0 01.008.152.772.772 0 01-.254.554.786.786 0 01-.217.143l-.276.5c-1.526 2.747-3.1 5.585-4.76 8.325a.767.767 0 01.03.407.778.778 0 01-.328.508.77.77 0 01-.343.132l-.352.565.14-.023.221.663h-.765l-.329.513a.788.788 0 01-.31.85.77.77 0 01-.336.135c-.485.73-1 1.474-1.527 2.215-.3.427-.615.856-.943 1.311-3.224 4.466-7.237 10.024-7.054 14.548l.072 1.782-.331-.5-.045.185c-.7 2.883-1.84 7.629-2.332 10.2a11.539 11.539 0 001.485.837l.378.177-.107.4a13.058 13.058 0 01-1.314 3.378 4.626 4.626 0 01-4.312 2.373 16.3 16.3 0 01-3.94-.625l-.062-.018-.211-.046a15.31 15.31 0 00-3.63-.625c-1.883 0-2.27.866-2.4 1.518a1.987 1.987 0 00.6 1.844c1.066 1.146 3.249 1.947 5.176 2.654.274.1.544.2.8.3l49.862 18.678c.578.217 1.168.441 1.738.658 4.733 1.8 9.626 3.665 14.7 3.757a20.818 20.818 0 002.434-.1zm-2.72-4.762a26.189 26.189 0 01-7.942-1.743c-2.432-.919-5.429-2.436-5.9-4.449a4.415 4.415 0 01-.112-.692c-.127-1.542.678-2.37 1.61-3.328l.264-.271.3.1c5.156 1.675 10.374 3.149 13.956 3.943l.508.118.267.064.09.259c.062.178.125.378.183.578l.055.2a7.029 7.029 0 01.277 2.224c-.1 1.863-1.271 2.922-3.3 2.991l-.015.008h-.114zm-11.8-9.339a2.872 2.872 0 00-1.161 2.376 3.434 3.434 0 00.088.54c.286 1.222 2.21 2.585 5.281 3.745a25.119 25.119 0 007.592 1.678l.012-.006h.114c1.583-.024 2.355-.676 2.431-2.051a6.052 6.052 0 00-.245-1.909l-.05-.18a9.39 9.39 0 00-.081-.268l-.223-.051c-3.541-.788-8.658-2.23-13.75-3.875zm-9 1.9a18.684 18.684 0 01-5.781-1.474h-.006l-20.752-7.943c-2.764-1.057-5.3-2.176-6.016-4.228-.5-1.452-.084-3.224 1.319-5.577l.234-.392.411.2a34.729 34.729 0 005.136 1.969l.008-.016.091.03a49.75 49.75 0 003.765-5.244l.256-.411.419.244a68.046 68.046 0 0114.586 11.388l.214.217c2.909 2.956 4 4.062 6.577 5.195.682.3 1.589.662 2.625 1.046l.444.164-.14.452a26.3 26.3 0 00-.33 1.181c-.375 1.426-.7 2.658-2.046 3.064a3.5 3.5 0 01-1.014.132zm-5.433-2.411a18.215 18.215 0 005.433 1.408 2.561 2.561 0 00.723-.09c.775-.234.99-.931 1.366-2.361.063-.239.131-.5.208-.769a50.788 50.788 0 01-2.242-.9c-2.754-1.21-3.964-2.439-6.887-5.409l-.216-.219a67.058 67.058 0 00-13.952-10.985 50.784 50.784 0 01-3.779 5.176l-.149.3-.081-.022-.01.013-.254-.085-.054-.015a35.763 35.763 0 01-5.273-1.949c-1.06 1.88-1.38 3.268-1.006 4.346.517 1.49 2.382 2.456 5.428 3.622z" fill="#f8f9fa"/><g data-name="Сгруппировать 132"><g data-name="Сгруппировать 131" clip-path="url(#b)" fill="#fff" transform="translate(447.863 7.01)"><path data-name="Контур 1731" d="M19.2 59.7v7.771h-3.657V59.7C3.2 59.063 0 51.2 0 32.457S3.2 5.852 15.543 5.212V0H19.2v5.212c12.343.64 15.543 8.5 15.543 27.245S31.543 59.063 19.2 59.7M15.543 8.5C5.76 9.051 3.657 15.543 3.657 32.457s2.1 23.406 11.886 23.955zm3.657 0v47.912c9.783-.549 11.886-7.04 11.886-23.955S28.983 9.051 19.2 8.5"/><path data-name="Контур 1732" d="M67.658 67.2V12.525L49.006 67.2h-3.657V2.1h3.657v54.677L67.658 2.1h3.657v65.1z"/><path data-name="Контур 1733" d="M88.138 5.394V67.2h-3.657V2.1h20.572v3.294z"/><path data-name="Контур 1734" d="M121.326 58.515c-2.286 7.863-6.034 8.686-11.885 8.686v-3.292c4.754 0 6.856-1.006 8.594-6.857l3.109-10.7L107.886 2.1h4.023l11.154 38.858L133.943 2.1h4.023z"/><path data-name="Контур 1735" d="M156.433 37.211h-7.863V67.2h-3.657V2.1h11.52c6.4 0 13.166 1.737 13.166 17.554 0 15.635-6.948 17.554-13.166 17.554m-.274-31.817h-7.589V33.92h7.589c5.3 0 9.783-1.738 9.783-14.263s-4.48-14.263-9.783-14.263"/><path data-name="Контур 1736" d="M201.327 67.2V35.748h-17.372V67.2H180.3V2.1h3.657v30.357h17.372V2.1h3.657v65.1z"/><path data-name="Контур 1737" d="M238.811 64.731c-2.012 2.1-5.12 3.2-8.686 3.2s-6.674-1.1-8.685-3.2c-3.84-3.931-4.572-7.589-4.572-30.08S217.6 8.5 221.44 4.571c2.011-2.1 5.12-3.2 8.685-3.2s6.674 1.1 8.686 3.2c3.84 3.931 4.571 7.589 4.571 30.08s-.731 26.149-4.571 30.08m-2.56-57.783a9.35 9.35 0 00-12.251 0c-2.926 3.2-3.475 6.034-3.475 27.7s.549 24.5 3.475 27.7a9.35 9.35 0 0012.251 0c2.926-3.2 3.475-6.034 3.475-27.7s-.549-24.5-3.475-27.7"/><path data-name="Контур 1738" d="M258.925 5.394V67.2h-3.657V2.1h20.572v3.294z"/><path data-name="Контур 1739" d="M305.553 64.731c-2.012 2.1-5.12 3.2-8.686 3.2s-6.674-1.1-8.685-3.2c-3.84-3.931-4.572-7.589-4.572-30.08s.732-26.149 4.572-30.08c2.011-2.1 5.12-3.2 8.685-3.2s6.674 1.1 8.686 3.2c3.84 3.931 4.571 7.589 4.571 30.08s-.731 26.149-4.571 30.08m-2.56-57.783a9.35 9.35 0 00-12.251 0c-2.926 3.2-3.475 6.034-3.475 27.7s.549 24.5 3.475 27.7a9.35 9.35 0 0012.251 0c2.926-3.2 3.475-6.034 3.475-27.7s-.549-24.5-3.475-27.7"/><path data-name="Контур 1740" d="M340.3 2.1h3.657v65.1H340.3zm24.777 65.1l-20.942-33.92L363.7 2.1h4.3l-20.025 31 21.577 34.1z"/><path data-name="Контур 1741" d="M398.9 67.2l-3.931-19.566H379.79L375.95 67.2h-4.023l13.989-65.1h3.291l13.715 65.1zM387.379 9.6l-6.857 34.743h13.8z"/><path data-name="Контур 1742" d="M418.464 5.394V67.2h-3.657V5.394h-10.88V2.1h25.417v3.294z"/><path data-name="Контур 1743" d="M457.321 67.2l-3.931-19.566h-15.178l-3.84 19.566h-4.023l13.989-65.1h3.291l13.715 65.1zM445.8 9.6l-6.857 34.743h13.8z"/><path data-name="Контур 1744" d="M489.32 67.2V35.748h-17.372V67.2h-3.657V2.1h3.657v30.357h17.372V2.1h3.657v65.1z"/><path data-name="Контур 1745" d="M528.451 67.2V12.525L509.8 67.2h-3.657V2.1h3.657v54.677L528.451 2.1h3.657v65.1z"/><path data-name="Контур 1746" d="M543.262 67.2l10.331-30.628c-5.12-1.554-8.229-6.126-8.229-16.915C545.364 3.84 552.13 2.1 558.53 2.1h11.52v65.1h-3.657V37.12h-9.326l-9.782 30.08zm14.994-33.28h8.137V5.394h-8.137c-6.857 0-9.234 4.755-9.234 14.263s2.378 14.263 9.234 14.263"/><path data-name="Контур 1747" d="M622.53 67.2V35.748h-17.372V67.2H601.5V2.1h3.657v30.357h17.373V2.1h3.657v65.1z"/><path data-name="Контур 1748" d="M660.1 67.2l-3.931-19.566H641L637.156 67.2h-4.023l13.989-65.1h3.291l13.715 65.1zM648.586 9.6l-6.858 34.743h13.806z"/></g></g><path data-name="Объединение 7" d="M398.359 60.677l-4.283-4.283 12.848-12.849h-63.272v-6.128h63.3l-12.871-12.871 4.283-4.283.354.354 19.859 19.853-.354.354zm-2.869-4.283l2.869 2.869 18.8-18.793-18.8-18.792-2.869 2.869 13.871 13.871h-64.709v4.128h64.688z" fill="#fff"/><g data-name="Сгруппировать 134"><g data-name="Сгруппировать 133" transform="translate(0 5.01)" clip-path="url(#c)" fill="#fff"><path data-name="Контур 1749" d="M19.2 59.7v7.771h-3.657V59.7C3.2 59.063 0 51.2 0 32.457S3.2 5.851 15.543 5.211V0H19.2v5.211c12.343.64 15.543 8.5 15.543 27.246S31.543 59.063 19.2 59.7M15.543 8.5C5.76 9.052 3.657 15.543 3.657 32.457s2.1 23.406 11.886 23.954zm3.657 0v47.912c9.783-.549 11.886-7.04 11.886-23.954S28.983 9.052 19.2 8.5"/><path data-name="Контур 1750" d="M45.349 67.2V2.102h21.029v3.292h-17.37v27.612h14.993v3.291H49.008v27.612h17.37V67.2z"/><path data-name="Контур 1751" d="M103.498 77.532V67.201H75.981v10.331h-3.66V63.909h3.931c3.383-8.869 5.211-19.84 5.211-32.366V2.103h21.118v61.806h4.571v13.623zM98.927 5.394h-13.9v26.332c0 12.069-1.462 22.857-4.937 32.183h18.834z"/><path data-name="Контур 1752" d="M116.48 67.2V2.102h21.029v3.292h-17.372v27.612h14.994v3.291h-14.994v27.612h17.372V67.2z"/><path data-name="Контур 1753" d="M160.182 37.212h-7.863v29.989h-3.657V2.103h11.52c6.4 0 13.166 1.737 13.166 17.554 0 15.634-6.949 17.554-13.166 17.554m-.274-31.817h-7.589V33.92h7.589c5.3 0 9.783-1.737 9.783-14.263s-4.48-14.263-9.783-14.263"/><path data-name="Контур 1754" d="M200.687 67.2l-3.931-19.566h-15.178l-3.84 19.566h-4.022l13.989-65.1h3.291l13.714 65.1zm-11.52-57.6l-6.858 34.743h13.807z"/><path data-name="Контур 1755" d="M237.26 80V67.2h-25.6V2.103h3.657v61.806h17.372V2.103h3.657v61.806h4.571V80z"/><path data-name="Контур 1756" d="M272.548 67.2V12.525L253.897 67.2h-3.657V2.102h3.657v54.675l18.651-54.675h3.657v65.1z"/><path data-name="Контур 1757" d="M287.36 67.2l10.332-30.628c-5.12-1.554-8.229-6.126-8.229-16.915 0-15.817 6.766-17.554 13.166-17.554h11.515v65.1h-3.657V37.119h-9.326l-9.783 30.08zm14.994-33.28h8.137V5.393h-8.137c-6.857 0-9.234 4.755-9.234 14.263s2.377 14.263 9.234 14.263"/></g></g></g></svg>